<?xml version="1.0" standalone="no"?>
<!DOCTYPE svg PUBLIC "-//W3C//DTD SVG 1.1//EN" "http://www.w3.org/Graphics/SVG/1.1/DTD/svg11.dtd" >
<svg>
<metadata>
Created by FontForge 20090914 at Fri Feb 27 18:36:17 2015
 By www-data
Copyright &#194;&#169; 2013 Schick Toikka. All rights reserved. Noe Display is a trademark of Schick Toikka. Unauthorised copying or modification of any of its data is illegal.
</metadata>
<defs>
<font id="NoeDisplay-Regular" horiz-adv-x="540" >
  <font-face 
    font-family="Noe Display Regular"
    font-weight="400"
    font-stretch="normal"
    units-per-em="1000"
    panose-1="2 10 5 0 9 4 0 0 0 2"
    ascent="750"
    descent="-250"
    x-height="486.999"
    cap-height="702.998"
    bbox="-225 -250 1199 967"
    underline-thickness="17"
    underline-position="-84"
    unicode-range="U+0020-U+FB02"
  />
<missing-glyph horiz-adv-x="600" 
d="M543 -250h-486v1000h486v-1000zM292 251l-217 468v-935zM301 231l-216 -464h431zM310 251l215 -463v927zM86 733l215 -463l215 463h-430z" />
    <glyph glyph-name="fi" unicode="fi" horiz-adv-x="597" 
d="M588 2v-2h-253v2l68 40c7.33301 4 11 11.333 11 22v389c0 6.66699 -0.833008 11 -2.5 13s-5.16699 3 -10.5 3h-208v-402c0 -6 0.833008 -10 2.5 -12s5.5 -4.66699 11.5 -8l90 -45v-2h-278v2l68 40c7.33301 4 11 11.333 11 22v405h-70v18h70
c2 73.333 22.5 129.333 61.5 168s93.167 58 162.5 58c54.667 0 108.667 -10 162 -30l-52 -125h-2l-50 124c-2.66699 6.66699 -7.66699 10.667 -15 12c-12.667 2 -26.667 3 -42 3c-47.333 0 -80.833 -15.167 -100.5 -45.5s-29.5 -73.5 -29.5 -129.5v-35h316v-423
c0 -9.33301 4 -16.333 12 -21z" />
    <glyph glyph-name="fl" unicode="fl" horiz-adv-x="589" 
d="M503 64c0 -9.33301 4.00098 -16.332 12.001 -20.999l67 -41v-2h-253v2l68 40c7.33301 4 11 11.333 11 22v583c0 9.33301 -4 16.666 -12 21.999c-26.667 17.333 -57 26 -91 26c-74.667 0 -112 -53 -112 -159v-49h146v-18h-146v-402c0 -6 0.833008 -10 2.5 -12
s5.5 -4.66699 11.5 -8l90 -45v-2h-278v2l68 40c7.33301 4 11 11.333 11 22v405h-70v18h70c0 76.667 18.667 133.5 56 170.5s87.666 55.5 150.999 55.5c36.667 0 72 -10 106 -30l92 40v-659z" />
    <glyph glyph-name="f_j" unicode="fj" horiz-adv-x="571" 
d="M392 469h-198.999v-402c0 -6 0.833008 -10 2.5 -12s5.5 -4.66699 11.5 -8l90 -45v-2h-278v2l68 40c7.33301 4 11 11.333 11 22v405h-70v18h70c2 73.333 22 129.333 60 168s91 58 159 58c54.667 0 108.667 -10 162 -30l-52 -125h-2l-50 124
c-2.66699 6.66699 -7.66699 10.667 -15 12c-13.333 2 -27.333 3 -42 3c-46 0 -78.333 -15.167 -97 -45.5s-28 -73.5 -28 -129.5v-35h307v-467c0 -67.333 -15.833 -123 -47.5 -167s-78.834 -66 -141.501 -66c-8 0 -20.667 1.33301 -38 4v2c44 4 77 21.333 99 52
s33 80.667 33 150v458c0 6.66699 -0.833008 11 -2.5 13s-5.16699 3 -10.5 3z" />
    <glyph glyph-name="f_b" unicode="fb" horiz-adv-x="845" 
d="M394 -8v655c0 9.33301 -4 16.666 -12 21.999c-26.667 17.333 -53.667 26 -81 26c-72 0 -108 -53 -108 -159v-49h146v-18h-146v-402c0 -6 0.833008 -10 2.5 -12s5.5 -4.66699 11.5 -8l90 -45v-2h-278v2l68 40c7.33301 4 11 11.333 11 22v405h-70v18h70
c0 76.667 18.167 133.5 54.5 170.5s85.833 55.5 148.5 55.5c30 0 62 -10 96 -30l92 40v-338c33.333 73.333 83 110 149 110c54 0 96.333 -21.667 127 -65s46 -101.333 46 -174c0 -77.333 -17.333 -140.666 -52 -189.999s-82.667 -74 -144 -74
c-32 0 -58.667 6.16699 -80 18.5s-37 27.5 -47 45.5l-92 -64h-2zM596 445c-40.667 0 -76.333 -22.999 -107 -68.999v-310c20.667 -24.667 50 -37 88 -37c42 0 74.5 18 97.5 54s34.5 88.667 34.5 158c0 65.333 -10 115.666 -30 150.999s-47.667 53 -83 53z" />
    <glyph glyph-name="f_h" unicode="fh" horiz-adv-x="869" 
d="M787 64c0 -10 4.00195 -17.333 12.002 -22l68 -40v-2h-253v2l64 40c8.66699 5.33301 13 12 13 20c0 1.33301 0.166992 16 0.5 44s0.833008 58.167 1.5 90.5s1 54.5 1 66.5c0 60.667 -7 104.834 -21 132.501s-35.667 41.5 -65 41.5c-44 0 -79 -24.667 -105 -74v-299
c0 -9.33301 4 -16.333 12 -21l67 -41v-2h-253v2l68 40c7.33301 4 11 11.333 11 22v583c0 9.33301 -4 16.666 -12 21.999c-26.667 17.333 -57 26 -91 26c-74.667 0 -112 -53 -112 -159v-49h146v-18h-146v-402c0 -6 0.833008 -10 2.5 -12s5.5 -4.66699 11.5 -8l90 -45v-2h-278
v2l68 40c7.33301 4 11 11.333 11 22v405h-70v18h70c0 76.667 18.667 133.5 56 170.5s87.666 55.5 150.999 55.5c37.333 0 73 -10 107 -30l91 40v-354c23.333 84 72.666 126 147.999 126c92 0 138 -66.667 138 -200c0 -47.333 -0.666992 -124.333 -2 -231z" />
    <glyph glyph-name="f_k" unicode="fk" horiz-adv-x="827" 
d="M527 265c-7.33301 0 -15.3311 -3.33301 -23.998 -10v-191c0 -9.33301 4 -16.333 12 -21l67 -41v-2h-253v2l68 40c7.33301 4 11 11.333 11 22v583c0 9.33301 -4 16.666 -12 21.999c-26.667 17.333 -57 26 -91 26c-74.667 0 -112 -53 -112 -159v-49h146v-18h-146v-402
c0 -6 0.833008 -10 2.5 -12s5.5 -4.66699 11.5 -8l90 -45v-2h-278v2l68 40c7.33301 4 11 11.333 11 22v405h-70v18h70c0 76.667 18.667 133.5 56 170.5s87.666 55.5 150.999 55.5c36.667 0 72 -10 106 -30l92 40v-459l194 147c5.33301 4.66699 5.33301 9.33398 0 14.001
l-74 60v2h200v-2l-196 -148c-6.66699 -4.66699 -8.33398 -10 -5.00098 -16l136 -252c5.33301 -11.333 13 -20.333 23 -27l58 -40v-2h-156l-129 247c-6.66699 12 -15.667 18 -27 18z" />
    <glyph glyph-name=".notdef" horiz-adv-x="600" 
d="M543 -250h-486v1000h486v-1000zM292 251l-217 468v-935zM301 231l-216 -464h431zM310 251l215 -463v927zM86 733l215 -463l215 463h-430z" />
    <glyph glyph-name="space" unicode=" " horiz-adv-x="200" 
 />
    <glyph glyph-name="exclam" unicode="!" horiz-adv-x="240" 
d="M185 703l-67 -489h-2l-61 489h130zM57 54c0 18 6 33.167 18 45.5s26.667 18.5 44 18.5c18 0 33 -6.16699 45 -18.5s18 -27.5 18 -45.5c0 -17.333 -6 -32 -18 -44s-27 -18 -45 -18c-17.333 0 -32 6 -44 18s-18 26.667 -18 44z" />
    <glyph glyph-name="quotedbl" unicode="&#x22;" horiz-adv-x="351" 
d="M138 632l-41 -153h-2l-41 153c-2.66699 10.667 -4 20.667 -4 30c0 34 15.333 51 46 51s46 -17 46 -51c0 -10 -1.33301 -20 -4 -30zM297 632l-41 -153h-2l-41 153c-2.66699 8.66699 -4 18.667 -4 30c0 34 15.333 51 46 51s46 -17 46 -51
c0 -11.333 -1.33301 -21.333 -4 -30z" />
    <glyph glyph-name="numbersign" unicode="#" horiz-adv-x="588" 
d="M491 216h-140l-55 -190l-16 5l53 185h-152l-55 -190l-16 5l53 185h-128v17h133l58 204h-128v17h133l57 199l18 -5l-56 -194h151l57 199l18 -5l-56 -194h133v-17h-138l-59 -204h135v-17zM245 437l-59 -204h152l58 204h-151z" />
    <glyph glyph-name="dollar" unicode="$" horiz-adv-x="523" 
d="M245 -10c-67.333 0 -128.997 8.99805 -184.997 26.998v209h2l91 -196c5.33301 -11.333 12.666 -17.666 21.999 -18.999c21.333 -3.33301 40.666 -5 57.999 -5h18v289l-68 33c-39.333 18.667 -72 44.334 -98 77.001s-39 71.667 -39 117c0 53.333 19.167 97.833 57.5 133.5
s87.5 54.834 147.5 57.501v80h17v-80c49.333 -0.666992 104.666 -8.66699 165.999 -24v-204h-2l-94 192c-4.66699 10 -11 15.333 -19 16c-13.333 2.66699 -28 4 -44 4h-7v-289l62 -30c50 -23.333 88 -48.833 114 -76.5s39 -62.834 39 -105.501c0 -56 -19.333 -103 -58 -141
s-91 -59.333 -157 -64v-95h-17v94h-6zM268.003 287.998v-280.001c38 4.66699 68.833 18.167 92.5 40.5s35.5 53.5 35.5 93.5c0 33.333 -10.333 60.833 -31 82.5s-53 42.834 -97 63.501zM127.003 558.997c0 -56 33 -99.667 99 -131l25 -12v279
c-38 -4.66699 -68.167 -19 -90.5 -43s-33.5 -55 -33.5 -93z" />
    <glyph glyph-name="percent" unicode="%" horiz-adv-x="640" 
d="M579 701l-503 -711l-15 13l503 710zM189 699c-22 0 -36.667 -10.332 -44 -30.999s-11 -55 -11 -103s3.66699 -82.333 11 -103s22 -31 44 -31c22.667 0 37.5 10.167 44.5 30.5s10.5 54.5 10.5 102.5c0 49.333 -3.5 84.166 -10.5 104.499s-21.833 30.5 -44.5 30.5z
M189 713.001c40.667 0 71.5 -13.667 92.5 -41s31.5 -63.333 31.5 -108c0 -44 -10.5 -79.5 -31.5 -106.5s-51.833 -40.5 -92.5 -40.5c-40 0 -70.667 13.667 -92 41s-32 63 -32 107s10.667 79.667 32 107s52 41 92 41zM448 272.001c-22 0 -36.667 -10.332 -44 -30.999
s-11 -55 -11 -103s3.66699 -82.333 11 -103s22 -31 44 -31c22.667 0 37.5 10.167 44.5 30.5s10.5 54.5 10.5 102.5c0 49.333 -3.5 84.166 -10.5 104.499s-21.833 30.5 -44.5 30.5zM448 286.002c40.667 0 71.5 -13.667 92.5 -41s31.5 -63.333 31.5 -108
c0 -44 -10.5 -79.5 -31.5 -106.5s-51.833 -40.5 -92.5 -40.5c-40 0 -70.667 13.667 -92 41s-32 63 -32 107s10.667 79.667 32 107s52 41 92 41z" />
    <glyph glyph-name="ampersand" unicode="&#x26;" horiz-adv-x="745" 
d="M236 -10c-61.333 0 -109.333 15.4971 -144 46.4971s-52 70.833 -52 119.5c0 45.333 16.167 85.333 48.5 120s71.833 63.334 118.5 86.001l-6 7c-52.667 62 -79 122.667 -79 182c0 48.667 16.667 87.834 50 117.501s76.666 44.5 129.999 44.5
c49.333 0 89.333 -11.167 120 -33.5s46 -55.166 46 -98.499c0 -18 -3.66699 -35 -11 -51s-15.666 -29.333 -24.999 -40s-23.166 -21.5 -41.499 -32.5s-34 -19.667 -47 -26s-30.833 -14.5 -53.5 -24.5l197 -231c28.667 41.333 54.667 86 78 134c4.66699 10 3 19 -5 27l-82 82
v2h229v-2l-106 -89c-8.66699 -7.33301 -16.667 -18.333 -24 -33c-24.667 -46 -51.334 -90.333 -80.001 -133c30.667 -34 56.834 -57.5 78.501 -70.5s45.5 -19.5 71.5 -19.5c25.333 0 47.833 9.66699 67.5 29s30.5 47.333 32.5 84h2
c7.33301 -58.667 -3.83398 -106.167 -33.501 -142.5s-66.834 -54.5 -111.501 -54.5c-55.333 0 -111.666 32.667 -168.999 98c-32 -33.333 -63 -58 -93 -74s-65.333 -24 -106 -24zM213 355.997c-53.333 -42.667 -79.999 -96.667 -79.999 -162c0 -46 14.333 -83.833 43 -113.5
s62 -44.5 100 -44.5c36 0 64 4.66699 84 14s41.667 25.666 65 48.999c-2.66699 2.66699 -73.334 88.334 -212.001 257.001zM208.001 585.997c0 -52 18.668 -101.332 56.001 -147.999l21 -26c66 46.667 99 104 99 172c0 38 -7.33301 66.833 -22 86.5
s-34.334 29.5 -59.001 29.5c-29.333 0 -52.5 -10.333 -69.5 -31s-25.5 -48.334 -25.5 -83.001z" />
    <glyph glyph-name="quotesingle" unicode="'" horiz-adv-x="192" 
d="M142 662c0 -9.33301 -1.33301 -19.333 -4 -30l-41 -153h-2l-41 153c-2.66699 11.333 -4 21.333 -4 30c0 34 15.333 51 46 51s46 -17 46 -51z" />
    <glyph glyph-name="parenleft" unicode="(" horiz-adv-x="318" 
d="M53 292c0 168.667 49.667 296 149 382c30 26 64.667 47.333 104 64l2 -2c-32 -26.667 -59 -58 -81 -94c-53.333 -88 -80 -204.667 -80 -350s26.667 -262 80 -350c22 -36 49 -67.333 81 -94l-2 -2c-39.333 16.667 -74 38 -104 64c-99.333 86 -149 213.333 -149 382z" />
    <glyph glyph-name="parenright" unicode=")" horiz-adv-x="318" 
d="M265 292c0 -168.667 -49.667 -296 -149 -382c-30 -26 -64.667 -47.333 -104 -64l-2 2c32 26.667 59 58 81 94c53.333 88 80 204.667 80 350s-26.667 262 -80 350c-22 36 -49 67.333 -81 94l2 2c39.333 -16.667 74 -38 104 -64c99.333 -86 149 -213.333 149 -382z" />
    <glyph glyph-name="asterisk" unicode="*" horiz-adv-x="346" 
d="M316 565h-142l113 -82l-73 -54l-43 134l-44 -133l-73 54l114 81h-138l28 87l111 -83l-41 134h91l-46 -134l115 81z" />
    <glyph glyph-name="plus" unicode="+" 
d="M50 314v17h211v212h18v-212h211v-17h-211v-211h-18v211h-211z" />
    <glyph glyph-name="comma" unicode="," horiz-adv-x="225" 
d="M43 -133l-1.00098 1.99902c24.667 12.667 43.167 30.834 55.5 54.501s18.5 45.5 18.5 65.5c0 7.33301 -3.66699 11.333 -11 12c-14 1.33301 -26.167 7.83301 -36.5 19.5s-15.5 25.5 -15.5 41.5c0 17.333 5.83301 31.833 17.5 43.5s25.834 17.5 42.501 17.5
c18.667 0 34 -6.66699 46 -20s18 -33.333 18 -60c0 -37.333 -12.833 -73.5 -38.5 -108.5s-57.5 -57.5 -95.5 -67.5z" />
    <glyph glyph-name="hyphen" unicode="-" horiz-adv-x="351" 
d="M46 234v18h260v-18h-260z" />
    <glyph glyph-name="period" unicode="." horiz-adv-x="225" 
d="M50 54c0 18 6 33.167 18 45.5s26.667 18.5 44 18.5c18 0 33 -6.16699 45 -18.5s18 -27.5 18 -45.5c0 -17.333 -6 -32 -18 -44s-27 -18 -45 -18c-17.333 0 -32 6 -44 18s-18 26.667 -18 44z" />
    <glyph glyph-name="slash" unicode="/" horiz-adv-x="380" 
d="M347 732l-297 -885l-17 6l297 885z" />
    <glyph glyph-name="zero" unicode="0" horiz-adv-x="627" 
d="M313 8c104.667 0 157 114.333 157 343c0 66 -4 122.167 -12 168.5s-19.5 81.833 -34.5 106.5s-31.333 42.334 -49 53.001s-38.167 16 -61.5 16c-22.667 0 -43 -5.33301 -61 -16s-34.333 -28.334 -49 -53.001s-26 -60 -34 -106s-12 -101.667 -12 -167
c0 -230 52 -345 156 -345zM313 713c85.333 0 151 -30.501 197 -91.501s69 -151.167 69 -270.5c0 -118 -23 -207.667 -69 -269s-111.667 -92 -197 -92c-84.667 0 -150 30.833 -196 92.5s-69 151.834 -69 270.501c0 118 23 207.5 69 268.5s111.333 91.5 196 91.5z" />
    <glyph glyph-name="one" unicode="1" horiz-adv-x="393" 
d="M39 652l220 60.999v-634c0 -6 0.833008 -10.167 2.5 -12.5s5.5 -5.16602 11.5 -8.49902l101 -56v-2h-325v2l102 56c8.66699 5.33301 13 12.333 13 21v522c0 11.333 -4.33301 18.333 -13 21l-112 28v2z" />
    <glyph glyph-name="two" unicode="2" horiz-adv-x="527" 
d="M466 518c0 -27.333 -5.50195 -54.832 -16.502 -82.499s-24 -52.834 -39 -75.501s-37.833 -49 -68.5 -79s-57.834 -55.333 -81.501 -76l-100.5 -85l-47 -39h240c14.667 0 24.334 1 29.001 3s10.334 7.33301 17.001 16l71 92h2l-18 -192h-436v2l112 121
c30.667 32.667 63.334 70.667 98.001 114c46.667 58 79.667 107.833 99 149.5s29 86.834 29 135.501c0 116.667 -43 175 -129 175c-16.667 0 -31.667 -1.66699 -45 -5c-6 -1.33301 -9.83301 -2.83301 -11.5 -4.5s-4.16699 -6.16699 -7.5 -13.5l-65 -155h-2l-53 149
c60 30 125.667 45 197 45c69.333 0 124.333 -17.333 165 -52s61 -82.334 61 -143.001z" />
    <glyph glyph-name="three" unicode="3" horiz-adv-x="531" 
d="M487 199c0 -62.667 -24 -113.167 -72 -151.5s-113.333 -57.5 -196 -57.5c-64 0 -128 11.333 -192 34l62 167h2l48 -162c3.33301 -10 8.33301 -15.667 15 -17c18.667 -4 37 -6 55 -6c55.333 0 97.333 17.5 126 52.5s43 78.167 43 129.5s-15.667 92.5 -47 123.5
s-77.666 46.5 -138.999 46.5v2c105.333 23.333 158 85.333 158 186c0 46 -11.333 82.667 -34 110s-55.334 41 -98.001 41c-12 0 -24.667 -1 -38 -3c-6 -0.666992 -10.167 -2 -12.5 -4s-5.16602 -7 -8.49902 -15l-65 -155h-2l-53 149c59.333 29.333 125.333 44 198 44
c64 0 116.5 -14.667 157.5 -44s61.5 -69.666 61.5 -120.999c0 -85.333 -50.667 -142.333 -152 -171v-2c53.333 -5.33301 97.166 -23.833 131.499 -55.5s51.5 -71.834 51.5 -120.501z" />
    <glyph glyph-name="four" unicode="4" horiz-adv-x="565" 
d="M396 180v-102c0 -8.66699 4.33301 -15.667 13 -21l80 -55v-2h-286v2l85 55c8.66699 5.33301 13 12.333 13 21v102h-292v1l314 522h73v-505h35c10.667 0 19 4.33301 25 13l94 161h2l-15 -192h-141zM42 198h259v430z" />
    <glyph glyph-name="five" unicode="5" horiz-adv-x="546" 
d="M508 210c0 -67.333 -23.6699 -120.833 -71.0029 -160.5s-113 -59.5 -197 -59.5c-69.333 0 -133.666 11.667 -192.999 35l62 166h2l48 -162c2.66699 -7.33301 5.33398 -12 8.00098 -14s8.66699 -3.66699 18 -5c16 -2.66699 32 -4 48 -4c53.333 0 94.333 18.167 123 54.5
s43 83.833 43 142.5c0 53.333 -15 95.5 -45 126.5s-71.667 46.5 -125 46.5c-45.333 0 -89 -13.667 -131 -41l-2 1l7 367l173 -4c20 -0.666992 44.667 -1 74 -1c42 0 70.333 7.33301 85 22l29 28h2l-12 -76c-4 -25.333 -12.667 -42.333 -26 -51s-36.666 -13 -69.999 -13
c-23.333 0 -51 0.666992 -83 2l-156 5l-4 -253c53.333 38 112.333 57 177 57c66 0 118.5 -19.5 157.5 -58.5s58.5 -89.167 58.5 -150.5z" />
    <glyph glyph-name="six" unicode="6" horiz-adv-x="578" 
d="M344 437c56.667 0 102.501 -18.667 137.501 -56s52.5 -89 52.5 -155c0 -69.333 -22.333 -126 -67 -170s-100.334 -66 -167.001 -66c-80 0 -142 32 -186 96s-66 152.667 -66 266c0 114.667 23.833 203.5 71.5 266.5s120.5 94.5 218.5 94.5c51.333 0 108 -10 170 -30
l-50 -152h-2l-67 150c-3.33301 8 -10.333 12.667 -21 14c-14.667 1.33301 -25.334 2 -32.001 2c-64 0 -110.5 -28 -139.5 -84s-43.5 -142.667 -43.5 -260v-19c22.667 33.333 50.834 58.833 84.501 76.5s69.167 26.5 106.5 26.5zM308.001 404
c-55.333 0 -107.002 -27.333 -155.002 -82c2.66699 -105.333 17.334 -184.333 44.001 -237s61.334 -79 104.001 -79c35.333 0 66 17.333 92 52s39 87.667 39 159c0 59.333 -10.667 105.333 -32 138s-52 49 -92 49z" />
    <glyph glyph-name="seven" unicode="7" horiz-adv-x="479" 
d="M413 611c-38.667 -98 -93.333 -301.668 -164 -611.001h-123c39.333 112.667 86.166 228.334 140.499 347.001s98.833 210 133.5 274h-278c-10 0 -16.667 -1 -20 -3s-8.66602 -7 -15.999 -15l-59 -73h-2l21 173h440v-2l-53 -61c-10 -12 -16.667 -21.667 -20 -29z" />
    <glyph glyph-name="eight" unicode="8" horiz-adv-x="564" 
d="M278 -10c-70 0 -126.5 17.1689 -169.5 51.502s-64.5 74.833 -64.5 121.5c0 48.667 14.333 85.667 43 111s72 47.666 130 66.999l-30 17c-78.667 44.667 -118 102.667 -118 174c0 54 20.167 97.667 60.5 131s91.5 50 153.5 50c57.333 0 105.5 -15.167 144.5 -45.5
s58.5 -69.5 58.5 -117.5c0 -79.333 -50.667 -133.333 -152 -162l52 -28c50 -28 86.167 -55.333 108.5 -82s33.5 -59.667 33.5 -99c0 -50.667 -23 -94.834 -69 -132.501s-106.333 -56.5 -181 -56.5zM320 283.002l-93.999 53c-65.333 -36 -98 -92.333 -98 -169
c0 -45.333 15.167 -83.333 45.5 -114s67.166 -46 110.499 -46c42.667 0 78.5 12.167 107.5 36.5s43.5 57.5 43.5 99.5c0 31.333 -9.16699 57 -27.5 77s-47.5 41 -87.5 63zM156.001 573.002c0 -31.333 8.16895 -58 24.502 -80s43.166 -43.333 80.499 -64l64 -36
c52 32.667 78 85 78 157c0 47.333 -11.333 83.5 -34 108.5s-51.334 37.5 -86.001 37.5c-36 0 -66.167 -11.5 -90.5 -34.5s-36.5 -52.5 -36.5 -88.5z" />
    <glyph glyph-name="nine" unicode="9" horiz-adv-x="578" 
d="M240 269c-54 0 -100.168 19.1689 -138.501 57.502s-57.5 91.166 -57.5 158.499c0 66 22.5 120.5 67.5 163.5s100.833 64.5 167.5 64.5c81.333 0 143.5 -31.333 186.5 -94s64.5 -153.334 64.5 -272.001c0 -110 -24 -197 -72 -261s-117.333 -96 -208 -96
c-59.333 0 -120 10.333 -182 31l59 167h2l55 -166c2.66699 -8 9.33398 -12.667 20.001 -14c8.66699 -1.33301 22 -2 40 -2c62.667 0 108.5 28.333 137.5 85s43.5 142 43.5 256v23c-50 -67.333 -111.667 -101 -185 -101zM279.999 301.002c50 0 98 27 144 81
c-4.66699 210 -53.667 315 -147 315c-35.333 0 -66 -17.167 -92 -51.5s-39 -87.833 -39 -160.5c0 -122.667 44.667 -184 134 -184z" />
    <glyph glyph-name="colon" unicode=":" horiz-adv-x="225" 
d="M50 54c0 18 6 33.167 18 45.5s26.667 18.5 44 18.5c18 0 33 -6.16699 45 -18.5s18 -27.5 18 -45.5c0 -17.333 -6 -32 -18 -44s-27 -18 -45 -18c-17.333 0 -32 6 -44 18s-18 26.667 -18 44zM50 382c0 18 6 33.167 18 45.5s26.667 18.5 44 18.5c18 0 33 -6.16699 45 -18.5
s18 -27.5 18 -45.5c0 -17.333 -6 -32 -18 -44s-27 -18 -45 -18c-17.333 0 -32 6 -44 18s-18 26.667 -18 44z" />
    <glyph glyph-name="semicolon" unicode=";" horiz-adv-x="225" 
d="M53 62c0 17.333 5.83203 31.832 17.499 43.499s25.834 17.5 42.501 17.5c18.667 0 34 -6.66699 46 -20s18 -33.333 18 -60c0 -37.333 -12.833 -73.5 -38.5 -108.5s-57.5 -57.5 -95.5 -67.5l-1 2c24.667 12.667 43.167 30.834 55.5 54.501s18.5 45.5 18.5 65.5
c0 7.33301 -3.66699 11.333 -11 12c-14 1.33301 -26.167 7.83301 -36.5 19.5s-15.5 25.5 -15.5 41.5zM49.999 381.999c0 18 6 33.167 18 45.5s26.667 18.5 44 18.5c18 0 33 -6.16699 45 -18.5s18 -27.5 18 -45.5c0 -17.333 -6 -32 -18 -44s-27 -18 -45 -18
c-17.333 0 -32 6 -44 18s-18 26.667 -18 44z" />
    <glyph glyph-name="less" unicode="&#x3c;" 
d="M71 324l390 179l7 -16l-357 -164l357 -164l-7 -16l-390 179v2z" />
    <glyph glyph-name="equal" unicode="=" 
d="M50 404v17h440v-17h-440zM50 226v17h440v-17h-440z" />
    <glyph glyph-name="greater" unicode="&#x3e;" 
d="M79 503l390 -179v-2l-390 -179l-7 16l357 164l-357 164z" />
    <glyph glyph-name="question" unicode="?" horiz-adv-x="430" 
d="M415 566c0 -44 -24.001 -89.3359 -72.001 -136.003l-83 -83c-25.333 -25.333 -42.333 -47.166 -51 -65.499s-10.667 -41.166 -6 -68.499l-1 -2c-38 20.667 -57 49 -57 85c0 13.333 3.83301 27.333 11.5 42s15.167 26.167 22.5 34.5l34 38.5l56 61
c34 36.667 51 75.334 51 116.001c0 32.667 -10.667 59 -32 79s-49 30 -83 30c-15.333 0 -28.666 -1.33301 -39.999 -4c-9.33301 -2 -15 -3.83301 -17 -5.5s-4.33301 -5.5 -7 -11.5l-66 -157h-2l-53 149c62 30 128.333 45 199 45c56.667 0 103.5 -13 140.5 -39
s55.5 -62 55.5 -108zM130.999 53.9971c0 18 6 33.167 18 45.5s26.667 18.5 44 18.5c18 0 33 -6.16699 45 -18.5s18 -27.5 18 -45.5c0 -17.333 -6 -32 -18 -44s-27 -18 -45 -18c-17.333 0 -32 6 -44 18s-18 26.667 -18 44z" />
    <glyph glyph-name="at" unicode="@" horiz-adv-x="1007" 
d="M957 335c0 -102 -24.667 -184.668 -74 -248.001s-108.333 -95 -177 -95c-46 0 -83.167 11.667 -111.5 35s-42.5 58.333 -42.5 105c0 19.333 2.33301 39.333 7 60h-2c-22.667 -66 -47.167 -115.833 -73.5 -149.5s-56.5 -50.5 -90.5 -50.5c-30 0 -54 12.5 -72 37.5
s-27 61.833 -27 110.5c0 56 11.333 111.333 34 166s53.5 99.834 92.5 135.501s80.167 53.5 123.5 53.5c45.333 0 72.666 -19 81.999 -57l99 57l2 -1l-73 -264c-11.333 -40.667 -17 -77.667 -17 -111c0 -35.333 7 -62.333 21 -81s34 -28 60 -28c59.333 0 111 30.167 155 90.5
s66 137.833 66 232.5c0 105.333 -36.167 190.833 -108.5 256.5s-166.166 98.5 -281.499 98.5c-141.333 0 -256.833 -46.333 -346.5 -139s-134.5 -211.667 -134.5 -357c0 -127.333 40.167 -226.5 120.5 -297.5s182.833 -106.5 307.5 -106.5
c75.333 0 157.666 25.667 246.999 77l8 -15c-83.333 -52.667 -168.666 -79 -255.999 -79c-128.667 0 -235 37 -319 111s-126 177 -126 309c0 151.333 46.667 274.833 140 370.5s213.333 143.5 360 143.5c119.333 0 217 -34.667 293 -104s114 -158 114 -266zM535 161.999
c11.333 23.333 26.5 65.168 45.5 125.501s32.833 109.166 41.5 146.499c-9.33301 20 -28.333 30 -57 30c-37.333 0 -71.333 -22.333 -102 -67c-22 -32 -40.167 -72 -54.5 -120s-21.5 -93.667 -21.5 -137c0 -62 16 -93 48 -93c34.667 0 68 38.333 100 115z" />
    <glyph glyph-name="A" unicode="A" horiz-adv-x="621" 
d="M157 246l-47.998 -142.999c-2 -9.33301 -2.5 -15.166 -1.5 -17.499s6.5 -7.5 16.5 -15.5l85 -68v-2h-225v2l80 68c13.333 12 22 24 26 36l168 498c2.66699 10.667 3.66699 17.667 3 21s-4.33398 8.66602 -11.001 15.999l-55 60v2h153l210 -621
c5.33301 -15.333 13 -28 23 -38l43 -42v-2h-249v2l71 54c7.33301 5.33301 8.66602 13.666 3.99902 24.999l-56 165h-237zM276.002 599.001l-113 -335h225z" />
    <glyph glyph-name="B" unicode="B" horiz-adv-x="613" 
d="M18 703l285 -0.00488281c76 0 135 -14.667 177 -44s63 -71.666 63 -126.999c0 -41.333 -16 -76.833 -48 -106.5s-71.667 -47.5 -119 -53.5v-3c58 -3.33301 105.333 -20.166 142 -50.499s55 -69.5 55 -117.5c0 -63.333 -23.667 -112.666 -71 -147.999s-110 -53 -188 -53
h-296v2l86 47c8.66699 4.66699 13 11.334 13 20.001v565c0 8.66699 -4.33301 15.334 -13 20.001l-86 47v2zM283 354.995l-61.999 0.000976562v-313c0 -10.667 1.83301 -17.334 5.5 -20.001s13.5 -4 29.5 -4h26c118.667 0 178 56.667 178 170c0 55.333 -13.833 97 -41.5 125
s-72.834 42 -135.501 42zM221.001 661.996l-0.000976562 -290h60c44.667 0 80.834 13.167 108.501 39.5s41.5 66.833 41.5 121.5c0 52 -13 90.333 -39 115s-61.333 37 -106 37h-47c-12 0 -18 -7.66699 -18 -23z" />
    <glyph glyph-name="C" unicode="C" horiz-adv-x="595" 
d="M372 -10c-113.333 0 -197.833 32.335 -253.5 97.002s-83.5 152 -83.5 262c0 109.333 28.667 197.333 86 264s136.666 100 237.999 100c58 0 118.333 -7.33301 181 -22v-211h-2l-101 194c-4 7.33301 -7.83301 12.166 -11.5 14.499s-10.5 4.16602 -20.5 5.49902
c-14 2 -27.667 3 -41 3c-139.333 0 -209 -115.333 -209 -346c0 -230 72 -345 216 -345c8.66699 0 20.334 0.666992 35.001 2c14 1.33301 24 7.33301 30 18l102 201h2v-220c-53.333 -11.333 -109.333 -17 -168 -17z" />
    <glyph glyph-name="D" unicode="D" horiz-adv-x="672" 
d="M18 0l0.000976562 1.99805l86 47c8.66699 4.66699 13 11.334 13 20.001v565c0 8.66699 -4.33301 15.334 -13 20.001l-86 47v2h291c108 0 189.833 -30 245.5 -90s83.5 -144 83.5 -252c0 -110 -28.333 -197.667 -85 -263s-138.334 -98 -245.001 -98h-290zM248.001 17.998
l21 0.000976562c80 0 141.667 26 185 78s65 138.667 65 260c0 116.667 -20.833 200.667 -62.5 252s-97.5 77 -167.5 77h-52c-6 0 -10.167 -1.33301 -12.5 -4s-3.5 -8 -3.5 -16v-623c0 -10.667 1.5 -17.334 4.5 -20.001s10.5 -4 22.5 -4z" />
    <glyph glyph-name="E" unicode="E" horiz-adv-x="593" 
d="M540 0l-521.998 -0.00195312v2l86 47c8.66699 4.66699 13 11.334 13 20.001v565c0 8.66699 -4.33301 15.334 -13 20.001l-86 47v2h512v-216h-2l-84 180c-6 12 -15.667 18 -29 18h-178c-6.66699 0 -11 -1.5 -13 -4.5s-3 -9.16699 -3 -18.5v-294h123
c10.667 0.666992 20 7 28 19l64 89h2v-234h-2l-64 90c-8.66699 12 -18.334 18 -29.001 18h-122v-309c0 -9.33301 1 -15.5 3 -18.5s6.33301 -4.5 13 -4.5h178c17.333 0 28.666 4.33301 33.999 13l89 182h2v-213z" />
    <glyph glyph-name="F" unicode="F" horiz-adv-x="561" 
d="M349 0l-330.999 -0.00195312v2l86 47c8.66699 4.66699 13 11.334 13 20.001v565c0 8.66699 -4.33301 15.334 -13 20.001l-86 47v2h512v-216h-2l-84 180c-5.33301 12 -15 18 -29 18h-177c-6.66699 0 -11.167 -1.5 -13.5 -4.5s-3.5 -8.83301 -3.5 -17.5v-295h123
c10.667 0.666992 20 7 28 19l64 89h2v-234h-2l-64 90c-8.66699 12 -18.334 18 -29.001 18h-122v-274c0 -10 4.33301 -16.667 13 -20l115 -54v-2z" />
    <glyph glyph-name="G" unicode="G" horiz-adv-x="644" 
d="M348 -10c-106 0 -184.834 32.168 -236.501 96.501s-77.5 151.833 -77.5 262.5c0 108 28.667 195.667 86 263s135.666 101 234.999 101c64.667 0 128.667 -7.33301 192 -22v-211h-2l-100 192c-4 8 -7.5 13.167 -10.5 15.5s-8.5 4.16602 -16.5 5.49902
c-16 2.66699 -32.333 4 -49 4c-142 0 -213 -115.333 -213 -346c0 -230 64.333 -345 193 -345c27.333 0 55 5 83 15c7.33301 2.66699 11 8 11 16v199c0 8 -0.5 13.167 -1.5 15.5s-4.16699 5.16602 -9.5 8.49902l-79 48v2h284v-2l-78 -47
c-5.33301 -3.33301 -8.66602 -6.16602 -9.99902 -8.49902s-2 -7.83301 -2 -16.5v-246l-96 19c-39.333 -12.667 -73.666 -19 -102.999 -19z" />
    <glyph glyph-name="H" unicode="H" horiz-adv-x="742" 
d="M625 634v-565.007c0 -6 0.666992 -10.167 2 -12.5s5 -4.83301 11 -7.5l86 -47v-2h-302v2l86 47c8.66699 4.66699 13 11.334 13 20.001v282h-300v-282c0 -6 0.666992 -10.167 2 -12.5s5 -4.83301 11 -7.5l86 -47v-2h-302v2l86 47c8.66699 4.66699 13 11.334 13 20.001v565
c0 8.66699 -4.33301 15.334 -13 20.001l-86 47v2h302v-2l-86 -47c-6 -3.33301 -9.66699 -6.16602 -11 -8.49902s-2 -6.16602 -2 -11.499v-265h300v265c0 9.33301 -4.33301 16 -13 20l-86 47v2h302v-2l-86 -47c-6 -3.33301 -9.66699 -6.16602 -11 -8.49902
s-2 -6.16602 -2 -11.499z" />
    <glyph glyph-name="I" unicode="I" horiz-adv-x="338" 
d="M221 69c0 -6 0.666992 -10.1709 2 -12.5039s5 -4.83301 11 -7.5l86 -47v-2h-302v2l86 47c8.66699 4.66699 13 11.334 13 20.001v565c0 8.66699 -4.33301 15.334 -13 20.001l-86 47v2h302v-2l-86 -47c-6 -3.33301 -9.66699 -6.16602 -11 -8.49902s-2 -6.16602 -2 -11.499
v-565z" />
    <glyph glyph-name="J" unicode="J" horiz-adv-x="308" 
d="M206 634v-607.004c0 -68 -20.333 -122 -61 -162s-94 -65.333 -160 -76l-1 2c41.333 19.333 71.333 49.833 90 91.5s28 88.834 28 141.501v610c0 8.66699 -4.33301 15.334 -13 20.001l-86 47v2h302v-2l-86 -47c-6 -3.33301 -9.66699 -6.16602 -11 -8.49902
s-2 -6.16602 -2 -11.499z" />
    <glyph glyph-name="K" unicode="K" horiz-adv-x="647" 
d="M221 634v-565.004c0 -6 0.666992 -10.167 2 -12.5s5 -4.83301 11 -7.5l86 -47v-2h-302v2l86 47c8.66699 4.66699 13 11.334 13 20.001v565c0 8.66699 -4.33301 15.334 -13 20.001l-86 47v2h302v-2l-86 -47c-6 -3.33301 -9.66699 -6.16602 -11 -8.49902
s-2 -6.16602 -2 -11.499zM508 610.996l-193.001 -198.999l239 -322c8.66699 -10.667 19.334 -21.334 32.001 -32.001l70 -56v-2h-164l-261 353l257 264c10 10 8.66699 18.667 -4 26l-86 58v2h262v-2l-110 -60c-16.667 -8.66699 -30.667 -18.667 -42 -30z" />
    <glyph glyph-name="L" unicode="L" horiz-adv-x="555" 
d="M117 69v564.996c0 8.66699 -4.33301 15.334 -13 20.001l-86 47v2h302v-2l-86 -47c-6 -3.33301 -9.66699 -6.16602 -11 -8.49902s-2 -6.16602 -2 -11.499v-593c0 -9.33301 1 -15.5 3 -18.5s6.33301 -4.5 13 -4.5h158c18 0 29.333 4.33301 34 13l94 193h2v-224h-507v2
l86 47c8.66699 4.66699 13 11.334 13 20.001z" />
    <glyph glyph-name="M" unicode="M" horiz-adv-x="856" 
d="M738 634v-565.003c0 -6 0.666992 -10.167 2 -12.5s5 -4.83301 11 -7.5l86 -47v-2h-302v2l86 47c8.66699 4.66699 13 11.334 13 20.001v480c0 18 1.33301 41 4 69l-243 -623h-2l-231 555c-5.33301 11.333 -13.333 33.333 -24 66v-515c0 -8 0.833008 -13.667 2.5 -17
s6.16699 -7.66602 13.5 -12.999l94 -69v-2h-240v2l95 69c7.33301 5.33301 11.833 9.66602 13.5 12.999s2.5 9 2.5 17v521c0 12 -4 20.333 -12 25l-85 54v2h190l226 -546l213 546h186v-2l-86 -47c-6 -3.33301 -9.66699 -6.16602 -11 -8.49902s-2 -6.16602 -2 -11.499z" />
    <glyph glyph-name="N" unicode="N" horiz-adv-x="682" 
d="M576 602v-602h-69l-367 600v-499c0 -12.667 5.33301 -22.667 16 -30l95 -69v-2h-241v2l95 69c10.667 7.33301 16 17.333 16 30v507c0 14.667 -4.33301 26 -13 34l-84 59v2h175l358 -587v486c0 12 -5.33301 22 -16 30l-95 69v2h241v-2l-95 -69
c-10.667 -7.33301 -16 -17.333 -16 -30z" />
    <glyph glyph-name="O" unicode="O" horiz-adv-x="689" 
d="M345 6c57.333 0 103.166 27.666 137.499 82.999s51.5 143 51.5 263s-17.167 207.333 -51.5 262s-80.166 82.334 -137.499 83.001c-57.333 0 -103.166 -27.5 -137.499 -82.5s-51.5 -142.5 -51.5 -262.5s17.167 -207.5 51.5 -262.5s80.166 -82.833 137.499 -83.5z
M345 712.999c98 0 173.833 -32 227.5 -96s80.5 -152.333 80.5 -265s-26.833 -201.167 -80.5 -265.5s-129.5 -96.5 -227.5 -96.5s-174 32.167 -228 96.5s-81 152.833 -81 265.5s27 201 81 265s130 96 228 96z" />
    <glyph glyph-name="P" unicode="P" horiz-adv-x="589" 
d="M306 273l-85 -0.00195312v-192c0 -16 3.66699 -25.667 11 -29l124 -50v-2h-338v2l86 47c8.66699 4.66699 13 11.334 13 20.001v565c0 8.66699 -4.33301 15.334 -13 20.001l-86 47v2h302c73.333 0 131.833 -17.5 175.5 -52.5s65.5 -88.5 65.5 -160.5
c0 -66.667 -24.5 -119.5 -73.5 -158.5s-109.5 -58.5 -181.5 -58.5zM221 663.998l-0.000976562 -372.999h68c44.667 0 82.334 15.667 113.001 47s46 82 46 152c0 67.333 -14.5 116.666 -43.5 147.999s-67.167 47 -114.5 47h-50c-7.33301 0 -12.333 -1.5 -15 -4.5
s-4 -8.5 -4 -16.5z" />
    <glyph glyph-name="Q" unicode="Q" horiz-adv-x="690" 
d="M504 -236c-46.667 0 -91.335 8.33301 -134.002 25l-208 79c-19.333 7.33301 -37.333 11 -54 11c-9.33301 0 -19 -1 -29 -3l-1 1l156 129c-64.667 21.333 -114.167 61.833 -148.5 121.5s-51.5 134.5 -51.5 224.5c0 112.667 27 201 81 265s130 96 228 96
s173.833 -32 227.5 -96s80.5 -152.333 80.5 -265s-26.833 -201.167 -80.5 -265.5s-129.5 -96.5 -227.5 -96.5c-31.333 0 -61.666 3.66699 -90.999 11l-64 -56l222 -77c37.333 -13.333 79 -20 125 -20c52.667 0 94.667 14 126 42l35 31l2 -1l-47 -80
c-14 -23.333 -34.167 -41.833 -60.5 -55.5s-55.166 -20.5 -86.499 -20.5zM342.999 6c57.333 0 103.166 27.666 137.499 82.999s51.5 143 51.5 263s-17.167 207.333 -51.5 262s-80.166 82.334 -137.499 83.001c-57.333 0 -103.166 -27.5 -137.499 -82.5
s-51.5 -142.5 -51.5 -262.5s17.167 -207.5 51.5 -262.5s80.166 -82.833 137.499 -83.5z" />
    <glyph glyph-name="R" unicode="R" horiz-adv-x="637" 
d="M256 318l-35 -0.00195312v-251c0 -6 0.666992 -10.167 2 -12.5s5 -4.83301 11 -7.5l89 -45v-2h-305v2l86 47c8.66699 4.66699 13 11.334 13 20.001v565c0 8.66699 -4.33301 15.334 -13 20.001l-86 47v2h303c68 0 123.667 -16.333 167 -49s65 -80 65 -142
c0 -43.333 -14.833 -81.5 -44.5 -114.5s-69.167 -55.833 -118.5 -68.5v-2l28 -40l2 -3l148 -206c10 -14 21 -25.667 33 -35l51 -41v-2h-156l-210 301c-8 11.333 -18 17 -30 17zM221 663.998l0.000976562 -328h49c111.333 0 167 57 167 171c0 66 -13.333 112.167 -40 138.5
s-65.334 39.5 -116.001 39.5h-41c-7.33301 0 -12.333 -1.5 -15 -4.5s-4 -8.5 -4 -16.5z" />
    <glyph glyph-name="S" unicode="S" horiz-adv-x="515" 
d="M245 -10c-67.333 0 -128.998 9 -184.998 27v209h2l91 -196c5.33301 -11.333 12.666 -17.666 21.999 -18.999c21.333 -3.33301 40.666 -5 57.999 -5c47.333 0 86.333 11.167 117 33.5s46 56.5 46 102.5c0 33.333 -10.167 60.666 -30.5 81.999s-52.5 42.333 -96.5 63
l-86 41c-39.333 18.667 -72 44.334 -98 77.001s-39 71.667 -39 117c0 55.333 20.333 101 61 137s92.334 54 155.001 54c51.333 0 108.666 -8 171.999 -24v-204h-2l-94 192c-4.66699 10 -11 15.333 -19 16c-13.333 2.66699 -28 4 -44 4c-44.667 0 -80.5 -12.5 -107.5 -37.5
s-40.5 -58.5 -40.5 -100.5c0 -56 33 -99.667 99 -131l104 -50c50 -23.333 88 -48.833 114 -76.5s39 -62.834 39 -105.501c0 -59.333 -21.667 -108.5 -65 -147.5s-101 -58.5 -173 -58.5z" />
    <glyph glyph-name="T" unicode="T" horiz-adv-x="602" 
d="M582 703v-228.001h-2l-87 191c-3.33301 8 -6.5 13.167 -9.5 15.5s-8.5 3.5 -16.5 3.5h-114v-616c0 -6 0.666992 -10.167 2 -12.5s5 -4.83301 11 -7.5l91 -47v-2h-312v2l91 47c8.66699 4.66699 13 11.334 13 20.001v616h-114c-8 0 -13.333 -1 -16 -3s-6 -7.33301 -10 -16
l-87 -191h-2v228h562z" />
    <glyph glyph-name="U" unicode="U" horiz-adv-x="652" 
d="M554 248c0 -80 -17.334 -142.998 -52.001 -188.998s-90 -69 -166 -69c-159.333 0 -239 71.333 -239 214v427c0 5.33301 -0.666992 9.16602 -2 11.499s-5 5.16602 -11 8.49902l-79 50v2h293v-2l-84 -50c-6 -2.66699 -9.66699 -5.16699 -11 -7.5s-2 -6.5 -2 -12.5v-405
c0 -67.333 14.333 -118.833 43 -154.5s70.334 -53.5 125.001 -53.5c53.333 0 94.333 20 123 60s43 96.333 43 169v355c0 12.667 -5.33301 22.667 -16 30l-95 69v2h242v-2l-96 -69c-10.667 -7.33301 -16 -17.333 -16 -30v-354z" />
    <glyph glyph-name="V" unicode="V" horiz-adv-x="596" 
d="M524 597l-194 -597h-61l-215 621c-5.33301 15.333 -13 28 -23 38l-43 42v2h250v-2l-71 -54c-6.66699 -4.66699 -8 -12.667 -4 -24l180 -522l160 494c4.66699 13.333 0.333984 25.333 -12.999 36l-87 70v2h225v-2l-76 -65c-6.66699 -6 -11.334 -10.333 -14.001 -13
s-5.16699 -6 -7.5 -10s-4.5 -9.33301 -6.5 -16z" />
    <glyph glyph-name="W" unicode="W" horiz-adv-x="960" 
d="M634 0l-153.999 476.001l-155 -476h-61l-210 621c-5.33301 15.333 -13 28 -23 38l-43 42v2h249v-2l-71 -54c-6.66699 -4.66699 -8 -12.667 -4 -24l176 -520l132 404l-37 114c-5.33301 15.333 -13 28 -23 38l-37 42v2h244v-2l-71 -54
c-6.66699 -4.66699 -8.33398 -12.334 -5.00098 -23.001l168 -520l158 491c4.66699 13.333 0.333984 25.333 -12.999 36l-87 70v2h225v-2l-76 -65c-6.66699 -6 -11.334 -10.333 -14.001 -13s-5.16699 -6 -7.5 -10s-4.5 -9.33301 -6.5 -16l-193 -597h-61z" />
    <glyph glyph-name="X" unicode="X" horiz-adv-x="654" 
d="M575 76c7.33301 -12 17.999 -23.002 31.999 -33.002l56 -41v-2h-269v2l58 40c6.66699 4.66699 10.334 8.66699 11.001 12s-1.33301 8.33301 -6 15l-160 251l-153 -229c-5.33301 -7.33301 -8 -12.666 -8 -15.999s2.66699 -6.66602 8 -9.99902l96 -63v-2h-249v2l92 57
c16.667 9.33301 29.334 20.333 38.001 33l165 245l-183 290c-7.33301 12 -18 23 -32 33l-56 41v2h269v-2l-58 -40c-6.66699 -4.66699 -10.167 -8.83398 -10.5 -12.501s1.5 -8.5 5.5 -14.5l136 -215l129 193c5.33301 7.33301 8 12.833 8 16.5s-2.66699 6.83398 -8 9.50098
l-96 63v2h249v-2l-92 -57c-16.667 -9.33301 -29.334 -20.333 -38.001 -33l-141 -209z" />
    <glyph glyph-name="Y" unicode="Y" horiz-adv-x="596" 
d="M355 287l-0.000976562 -218.001c0 -6 0.666992 -10.167 2 -12.5s5 -4.83301 11 -7.5l91 -47v-2h-312v2l91 47c8.66699 4.66699 13 11.334 13 20.001v207c0 10.667 -2.66699 20.667 -8 30l-177 317c-7.33301 13.333 -16.333 24.333 -27 33l-51 45v2h260v-2l-65 -51
c-6 -5.33301 -7.33301 -11.333 -4 -18l167 -299l143 270c5.33301 10 4.33301 18 -3 24l-85 74v2h227v-2l-88 -69c-15.333 -12.667 -26.666 -25.667 -33.999 -39l-143 -270c-5.33301 -9.33301 -8 -21.333 -8 -36z" />
    <glyph glyph-name="Z" unicode="Z" horiz-adv-x="575" 
d="M546 701l-404 -683h244c18 0 29.333 4.33301 34 13l103 198h2v-229h-510v2l402 683h-222c-18 0 -29.333 -4.33301 -34 -13l-99 -201h-2v232h486v-2z" />
    <glyph glyph-name="bracketleft" unicode="[" horiz-adv-x="340" 
d="M160 653v-721.002c0 -6 0.5 -9.66699 1.5 -11s4.5 -2.66602 10.5 -3.99902l158 -43v-2l-250 -15v871l250 -15v-2l-158 -43c-6 -1.33301 -9.5 -2.66602 -10.5 -3.99902s-1.5 -5 -1.5 -11z" />
    <glyph glyph-name="backslash" unicode="\" horiz-adv-x="380" 
d="M330 -153l-297 885l17 6l297 -885z" />
    <glyph glyph-name="bracketright" unicode="]" horiz-adv-x="340" 
d="M180 -68v721.002c0 6 -0.5 9.66699 -1.5 11s-4.5 2.66602 -10.5 3.99902l-158 43v2l250 15v-871l-250 15v2l158 43c6 1.33301 9.5 2.66602 10.5 3.99902s1.5 5 1.5 11z" />
    <glyph glyph-name="asciicircum" unicode="^" 
d="M271 714l179 -390l-16 -8l-164 358l-164 -358l-16 8l179 390h2z" />
    <glyph glyph-name="underscore" unicode="_" horiz-adv-x="500" 
d="M495 -91h-490v17h490v-17z" />
    <glyph glyph-name="grave" unicode="`" horiz-adv-x="310" 
d="M50 703h121l89 -161l-2 -2l-208 161v2z" />
    <glyph glyph-name="a" unicode="a" horiz-adv-x="465" 
d="M299 238l2.00195 105.999v3c0 40 -9 71.833 -27 95.5s-44.667 35.5 -80 35.5c-12.667 0 -20.667 -0.666992 -24 -2s-6.33301 -5.33301 -9 -12l-61 -132h-2l-45 130c53.333 22 109.333 33 168 33c59.333 0 101.666 -13 126.999 -39c30 -31.333 45 -86 45 -164v-14l-4 -163
c-1.33301 -44.667 10.667 -67 36 -67c16.667 0 27.667 9.66699 33 29h2c0 -10.667 -2 -21 -6 -31c-6 -15.333 -15.667 -28.166 -29 -38.499s-29.333 -15.5 -48 -15.5c-23.333 0 -42.5 9 -57.5 27s-22.5 44.333 -22.5 79c-10 -33.333 -26.833 -59.333 -50.5 -78
s-51.5 -28 -83.5 -28c-36 0 -66.667 11.667 -92 35s-38 55.333 -38 96c0 46 16.167 81.833 48.5 107.5s70.166 38.5 113.499 38.5c41.333 0 76 -10.333 104 -31zM241.002 241.999c-34.667 0 -61.668 -10.333 -81.001 -31s-29 -46 -29 -76c0 -26 7.16699 -47 21.5 -63
s32.5 -24 54.5 -24c37.333 0 67.333 19.333 90 58v3l2 123c-19.333 6.66699 -38.666 10 -57.999 10z" />
    <glyph glyph-name="b" unicode="b" horiz-adv-x="512" 
d="M156 723v-338.002c33.333 73.333 83 110 149 110c54 0 96.333 -21.667 127 -65s46 -101.333 46 -174c0 -77.333 -17.333 -140.666 -52 -189.999s-82.667 -74 -144 -74c-32 0 -58.667 6.16699 -80 18.5s-37 27.5 -47 45.5l-92 -64h-2v646
c0 10.667 -3.66699 18.334 -11 23.001l-68 40v2zM263 444.998c-40.667 0 -76.333 -22.999 -107 -68.999v-310c20.667 -24.667 50 -37 88 -37c42 0 74.5 18 97.5 54s34.5 88.667 34.5 158c0 65.333 -10 115.666 -30 150.999s-47.667 53 -83 53z" />
    <glyph glyph-name="c" unicode="c" horiz-adv-x="440" 
d="M233 -8c-56 0 -103.833 20.833 -143.5 62.5s-59.5 103.167 -59.5 184.5c0 44.667 6.66699 84 20 118s31.333 60.667 54 80s47.5 33.833 74.5 43.5s55.5 14.5 85.5 14.5c46 0 94.333 -9.33301 145 -28l-47 -145h-2l-59 144c-3.33301 7.33301 -7.33301 11.333 -12 12
c-6 1.33301 -13 2 -21 2c-46 0 -81 -18.333 -105 -55s-36 -88.667 -36 -156c0 -74 13.5 -129.167 40.5 -165.5s61.833 -54.5 104.5 -54.5c62.667 0 109.667 37.667 141 113h2c-10 -52.667 -30 -94.167 -60 -124.5s-70.667 -45.5 -122 -45.5z" />
    <glyph glyph-name="d" unicode="d" horiz-adv-x="536" 
d="M450 723v-649.003c0 -9.33301 3.66699 -16.666 11 -21.999l68 -50v-2h-174v103c-13.333 -37.333 -32.833 -65.166 -58.5 -83.499s-54.167 -27.5 -85.5 -27.5c-52.667 0 -95.5 23 -128.5 69s-49.5 105.333 -49.5 178c0 77.333 18.5 139.333 55.5 186s82.833 70 137.5 70
c60.667 0 103.667 -30.667 129 -92v235c0 10.667 -3.66699 18.334 -11 23.001l-68 40v2zM256 40.9971c35.333 0 68.333 23 99 69v284c-28 40.667 -60.667 61 -98 61c-35.333 0 -64.5 -17.5 -87.5 -52.5s-34.5 -85.833 -34.5 -152.5c0 -68.667 11.667 -120.667 35 -156
s52 -53 86 -53z" />
    <glyph glyph-name="e" unicode="e" horiz-adv-x="464" 
d="M429 285l-302 0.00195312v-28c0 -65.333 13.5 -116.333 40.5 -153s61.833 -55 104.5 -55c72.667 0 125.667 41 159 123l2 -1c-10.667 -59.333 -32.5 -104 -65.5 -134s-75.833 -45 -128.5 -45c-59.333 0 -108.833 20.833 -148.5 62.5s-59.5 103.167 -59.5 184.5
c0 45.333 6.33301 85.166 19 119.499s29.667 61 51 80s44 33.167 68 42.5s48.667 14 74 14c52 0 96.333 -15.667 133 -47s55 -77 55 -137c0 -6.66699 -0.666992 -15.334 -2 -26.001zM242 480.002c-32.667 0 -58.833 -15.833 -78.5 -47.5s-31.5 -75.167 -35.5 -130.5h206v2
c0 117.333 -30.667 176 -92 176z" />
    <glyph glyph-name="f" unicode="f" horiz-adv-x="322" 
d="M339 469l-146 -0.000976562v-402c0 -6 0.833008 -10 2.5 -12s5.5 -4.66699 11.5 -8l90 -45v-2h-278v2l68 40c7.33301 4 11 11.333 11 22v405h-70v18h70v37c0 66.667 13 114.834 39 144.501s66.333 44.5 121 44.5c42.667 0 85 -8.66699 127 -26l-51 -122h-2l-49 120
c-2.66699 6.66699 -5 10.5 -7 11.5s-7.66699 1.5 -17 1.5c-44 0 -66 -39 -66 -117v-94h146v-18z" />
    <glyph glyph-name="g" unicode="g" horiz-adv-x="480" 
d="M45 333c0 50.667 17.835 90.335 53.502 119.002s79.167 43 130.5 43c42 0 79.667 -10.667 113 -32c8 -5.33301 14 -4.66602 18 2.00098l97 131l2 -1v-150h-92c37.333 -29.333 56 -68 56 -116c0 -48.667 -18.667 -87.167 -56 -115.5s-82.333 -42.5 -135 -42.5
c-22.667 0 -42.334 2.33301 -59.001 7c-38 -10.667 -57 -28.667 -57 -54c0 -14 7.33301 -25.5 22 -34.5s36 -13.5 64 -13.5h81c56.667 0 100.667 -12.333 132 -37s47 -59 47 -103c0 -54 -23.167 -96.167 -69.5 -126.5s-102.166 -45.5 -167.499 -45.5
c-54.667 0 -102.334 10.5 -143.001 31.5s-61 50.167 -61 87.5c0 26 10.167 48.5 30.5 67.5s49.833 32.833 88.5 41.5c-26.667 4.66699 -47.334 15.167 -62.001 31.5s-22 35.166 -22 56.499c0 23.333 9.33301 44.166 28 62.499s44 31.166 76 38.499
c-34.667 10.667 -62.5 29.167 -83.5 55.5s-31.5 58.5 -31.5 96.5zM167.002 -11.999c-3.33301 0 -9 0.666992 -17 2c-40 -18 -60 -48 -60 -90c0 -37.333 15.5 -66.5 46.5 -87.5s67.167 -31.5 108.5 -31.5c42 0 77.5 9.66699 106.5 29s43.5 47.333 43.5 84
c0 56 -41.333 86 -124 90zM146.002 333.001c0 -98 29.333 -147 88 -147s88 49 88 147s-29.333 147 -88 147s-88 -49 -88 -147z" />
    <glyph glyph-name="h" unicode="h" horiz-adv-x="547" 
d="M465 64c0 -10 4.00098 -17.335 12.001 -22.002l68 -40v-2h-253v2l64 40c8.66699 5.33301 13 12 13 20c0 1.33301 0.166992 16 0.5 44s0.833008 58.167 1.5 90.5s1 54.5 1 66.5c0 60.667 -7 104.834 -21 132.501s-35.667 41.5 -65 41.5c-44 0 -79 -24.667 -105 -74v-299
c0 -9.33301 4 -16.333 12 -21l67 -41v-2h-253v2l68 40c7.33301 4 11 11.333 11 22v574c0 10.667 -3.66699 18.334 -11 23.001l-68 40v2l174 20v-354c23.333 84 72.666 126 147.999 126c92 0 138 -66.667 138 -200c0 -47.333 -0.666992 -124.333 -2 -231z" />
    <glyph glyph-name="i" unicode="i" horiz-adv-x="285" 
d="M142 562c-16.667 0 -30.667 5.83301 -42 17.5s-17 25.5 -17 41.5c0 17.333 5.66699 31.833 17 43.5s25.333 17.5 42 17.5s30.834 -5.83301 42.501 -17.5s17.5 -26.167 17.5 -43.5c0 -16 -5.83301 -29.833 -17.5 -41.5s-25.834 -17.5 -42.501 -17.5zM23 487h174v-423
c0 -9.33301 4 -16.333 12 -21l67 -41v-2h-253v2l68 40c7.33301 4 11 11.333 11 22v348c0 10 -3.66699 17.667 -11 23l-68 50v2z" />
    <glyph glyph-name="j" unicode="j" horiz-adv-x="259" 
d="M14 487h174.001v-467c0 -67.333 -15.833 -123 -47.5 -167s-78.834 -66 -141.501 -66c-8 0 -20.667 1.33301 -38 4v2c44 4 77 21.333 99 52s33 80.667 33 150v417c0 10 -3.66699 17.667 -11 23l-68 50v2zM74.001 621c0 17.333 5.66699 31.833 17 43.5s25.333 17.5 42 17.5
s30.834 -5.83301 42.501 -17.5s17.5 -26.167 17.5 -43.5c0 -16 -5.83301 -29.833 -17.5 -41.5s-25.834 -17.5 -42.501 -17.5s-30.667 5.83301 -42 17.5s-17 25.5 -17 41.5z" />
    <glyph glyph-name="k" unicode="k" horiz-adv-x="505" 
d="M205 265c-7.33301 0 -15.332 -3.33496 -23.999 -10.002v-191c0 -9.33301 4 -16.333 12 -21l67 -41v-2h-253v2l68 40c7.33301 4 11 11.333 11 22v574c0 10.667 -3.66699 18.334 -11 23.001l-68 40v2l174 20v-459l194 147c5.33301 4.66699 5.33301 9.33398 0 14.001l-74 60
v2h200v-2l-196 -148c-6.66699 -4.66699 -8.33398 -10 -5.00098 -16l136 -252c5.33301 -11.333 13 -20.333 23 -27l58 -40v-2h-156l-129 247c-6.66699 12 -15.667 18 -27 18z" />
    <glyph glyph-name="l" unicode="l" horiz-adv-x="267" 
d="M181 723v-659.001c0 -9.33301 4 -16.333 12 -21l67 -41v-2h-253v2l68 40c7.33301 4 11 11.333 11 22v574c0 10.667 -3.66699 18.334 -11 23.001l-68 40v2z" />
    <glyph glyph-name="m" unicode="m" horiz-adv-x="849" 
d="M483 295c0 -47.333 -0.664062 -124.334 -1.99707 -231.001c0 -10 4 -17.333 12 -22l68 -40v-2h-253v2l64 40c8.66699 5.33301 13 12 13 20c0 1.33301 0.166992 16 0.5 44s0.833008 58.167 1.5 90.5s1 54.5 1 66.5c0 60.667 -7 104.834 -21 132.501s-35.667 41.5 -65 41.5
c-44 0 -79 -24.667 -105 -74v-299c0 -9.33301 4 -16.333 12 -21l67 -41v-2h-253v2l68 40c7.33301 4 11 11.333 11 22v348c0 10 -3.66699 17.667 -11 23l-68 50v2h174v-118c23.333 84 72.666 126 147.999 126c72 0 115.667 -41.333 131 -124
c11.333 40 30.666 70.667 57.999 92s60 32 98 32c90.667 0 136 -66.667 136 -200c0 -47.333 -0.666992 -124.333 -2 -231c0 -10 4 -17.333 12 -22l68 -40v-2h-253v2l64 40c8.66699 5.33301 13 12 13 20l2 88c0.666992 58 1 95 1 111c0 61.333 -6.83301 106 -20.5 134
s-35.834 42 -66.501 42c-44 0 -80.333 -23.667 -109 -71c4 -21.333 6 -45 6 -71z" />
    <glyph glyph-name="n" unicode="n" horiz-adv-x="564" 
d="M483 295c0 -47.333 -0.666016 -124.334 -1.99902 -231.001c0 -10 4 -17.333 12 -22l68 -40v-2h-253v2l64 40c8.66699 5.33301 13 12 13 20c0 1.33301 0.166992 16 0.5 44s0.833008 58.167 1.5 90.5s1 54.5 1 66.5c0 60.667 -7 104.834 -21 132.501s-35.667 41.5 -65 41.5
c-44 0 -79 -24.667 -105 -74v-299c0 -9.33301 4 -16.333 12 -21l67 -41v-2h-253v2l68 40c7.33301 4 11 11.333 11 22v348c0 10 -3.66699 17.667 -11 23l-68 50v2h174v-118c23.333 84 72.666 126 147.999 126c92 0 138 -66.667 138 -200z" />
    <glyph glyph-name="o" unicode="o" horiz-adv-x="508" 
d="M254 480c-75.333 0 -113 -78.667 -113 -236c0 -158 37.667 -237 113 -237s113 79 113 237c0 157.333 -37.667 236 -113 236zM254 -8c-68.667 0 -122.834 22.167 -162.501 66.5s-59.5 106.166 -59.5 185.499s19.833 141 59.5 185s93.834 66 162.501 66
s122.834 -22 162.501 -66s59.5 -105.667 59.5 -185s-19.833 -141.166 -59.5 -185.499s-93.834 -66.5 -162.501 -66.5z" />
    <glyph glyph-name="p" unicode="p" horiz-adv-x="538" 
d="M87 -164l0.00195312 576c0 10 -3.66699 17.667 -11 23l-68 50v2h174v-110c17.333 41.333 38 71.333 62 90s53.333 28 88 28c53.333 0 95.166 -21.833 125.499 -65.5s45.5 -101.167 45.5 -172.5c0 -80.667 -17.333 -145 -52 -193s-80.334 -72 -137.001 -72
c-62.667 0 -106.667 26 -132 78v-230c0 -9.33301 4.66699 -16.333 14 -21l90 -45v-2h-278v2l68 40c7.33301 4 11 11.333 11 22zM289.002 445c-42.667 0 -78.333 -26.334 -107 -79.001v-287c24 -31.333 56.333 -47 97 -47c39.333 0 69.5 18.833 90.5 56.5
s31.5 91.834 31.5 162.501c0 57.333 -10.167 104 -30.5 140s-47.5 54 -81.5 54z" />
    <glyph glyph-name="q" unicode="q" horiz-adv-x="510" 
d="M356 -160l-0.000976562 262.999c-29.333 -74 -78.333 -111 -147 -111c-47.333 0 -88.333 22.333 -123 67s-52 103 -52 175c0 80 18.333 143.5 55 190.5s84.334 70.5 143.001 70.5c54.667 0 96 -22.333 124 -67l95 67v-659c0 -9.33301 3.66699 -16.666 11 -21.999l58 -40
v-2h-268v2l90 45c9.33301 4.66699 14 11.667 14 21zM255.999 41.999c38 0 71.334 22.667 100.001 68v309c-32 26.667 -62.667 40 -92 40c-37.333 0 -68 -18.333 -92 -55s-36 -89 -36 -157c0 -60.667 11.167 -110 33.5 -148s51.166 -57 86.499 -57z" />
    <glyph glyph-name="r" unicode="r" horiz-adv-x="398" 
d="M197 324l0.000976562 -257c0 -10.667 4.33301 -17.667 13 -21l106 -44v-2h-293v2l68 40c7.33301 4 11 11.333 11 22v348c0 10 -3.66699 17.667 -11 23l-68 50v2h174v-153c8 40.667 25.667 77.667 53 111s62 50 104 50c20 0 36.333 -4 49 -12l-50 -148h-2l-50 111
c-2 4 -6 4.33301 -12 1c-14.667 -8.66699 -28.334 -20.667 -41.001 -36s-21.667 -28.333 -27 -39z" />
    <glyph glyph-name="s" unicode="s" horiz-adv-x="416" 
d="M299 100c0 13.333 -2.16602 24.833 -6.49902 34.5s-11.833 18.5 -22.5 26.5s-19.834 14 -27.501 18s-19.834 9.66699 -36.501 17l-62 28c-62.667 28.667 -94 72.334 -94 131.001c0 42.667 16.667 76.667 50 102s72 38 116 38c55.333 0 105.666 -8.33301 150.999 -25
l-38 -127h-2l-64 122c-3.33301 5.33301 -6 8.83301 -8 10.5s-6.66699 2.83398 -14 3.50098c-6 0.666992 -14.667 1 -26 1c-24.667 0 -45.667 -7.83301 -63 -23.5s-26 -37.167 -26 -64.5c0 -22 6.5 -39.333 19.5 -52s32.167 -24.334 57.5 -35.001l67 -29
c36 -15.333 64 -32.833 84 -52.5s30 -46.5 30 -80.5c0 -48 -18.5 -85.167 -55.5 -111.5s-81.5 -39.5 -133.5 -39.5c-51.333 0 -103.666 10 -156.999 30l42 139h2l56 -138c2.66699 -6.66699 9 -11 19 -13c12 -2 25.333 -3 40 -3c32.667 0 57.834 9.16699 75.501 27.5
s26.5 40.166 26.5 65.499z" />
    <glyph glyph-name="t" unicode="t" horiz-adv-x="309" 
d="M170 469v-354c0 -22 5 -39.333 15 -52s24 -19 42 -19c17.333 0 33 5.66699 47 17s24 25.333 30 42h2c-4.66699 -32 -17.5 -58.5 -38.5 -79.5s-49.5 -31.5 -85.5 -31.5c-71.333 0 -107 37.667 -107 113v364h-70v18h55c10.667 0 18.667 4.66699 24 14l84 148h2v-162h142
v-18h-142z" />
    <glyph glyph-name="u" unicode="u" 
d="M259 50c39.333 0 72.333 24.666 99 73.999v288c0 10 -3.66699 17.667 -11 23l-68 50v2h174v-412c0 -10 3.66699 -17.667 11 -23l68 -50v-2h-174v116c-26.667 -82.667 -75 -124 -145 -124c-90 0 -135 66.667 -135 200c0 40 0.666992 113.333 2 220
c0 10 -3.66699 17.667 -11 23l-68 50v2h175l-2 -119c-0.666992 -79.333 -1 -126.666 -1 -141.999c0 -60.667 6.83301 -105.167 20.5 -133.5s35.5 -42.5 65.5 -42.5z" />
    <glyph glyph-name="v" unicode="v" horiz-adv-x="437" 
d="M239 0l-46 -0.000976562l-159 418c-4 11.333 -9 20.666 -15 27.999l-31 39v2h201v-2l-48 -46c-6.66699 -6 -8 -14 -4 -24l120 -316l103 288c2.66699 8.66699 3.66699 14.334 3 17.001s-3.66699 7.33398 -9 14.001l-57 67v2h155v-2l-57 -69
c-8 -9.33301 -13.667 -19.333 -17 -30z" />
    <glyph glyph-name="w" unicode="w" horiz-adv-x="702" 
d="M717 485l-57 -69c-8 -9.33301 -13.667 -19.333 -17 -30l-139 -386h-46l-112 303l-113 -303h-46l-154 418c-4 11.333 -9 20.666 -15 27.999l-31 39v2h200v-2l-48 -46c-6.66699 -6 -8 -14 -4 -24l115 -318l87 231l-33 90c-4 11.333 -9 20.666 -15 27.999l-31 39v2h199v-2
l-48 -46c-6.66699 -6 -8 -14 -4 -24l116 -318l104 290c2.66699 8.66699 3.66699 14.334 3 17.001s-3.66699 7.33398 -9 14.001l-57 67v2h155v-2z" />
    <glyph glyph-name="x" unicode="x" horiz-adv-x="476" 
d="M201 215l-137 199.999c-12 16.667 -23 29 -33 37l-41 33v2h240v-2l-61 -38c-4.66699 -3.33301 -7 -6.16602 -7 -8.49902s2.33301 -6.83301 7 -13.5l94 -137l85 115c4.66699 6.66699 7 11.167 7 13.5s-2.66699 6.5 -8 12.5l-55 56v2h183v-2l-82 -61
c-10.667 -7.33301 -20.667 -17.333 -30 -30l-90 -120l139 -202c12 -16.667 23 -29 33 -37l41 -33v-2h-240v2l61 38c7.33301 4.66699 7.33301 12 0 22l-96 139l-87 -117c-4.66699 -6.66699 -7 -11.167 -7 -13.5s2.66699 -6.5 8 -12.5l55 -56v-2h-183v2l82 61
c10.667 7.33301 20.667 17.333 30 30z" />
    <glyph glyph-name="y" unicode="y" horiz-adv-x="435" 
d="M56 -236c-16 0 -30 3.33203 -42 9.99902l35 151h2l58 -100c4.66699 -8 8.66699 -12 12 -12s7.33301 3 12 9c22 26.667 42.333 65.667 61 117l13 36l-173 443c-6 14 -12.333 25.333 -19 34l-25 33v2h198v-2l-48 -46c-6.66699 -6 -8 -14 -4 -24l120 -310l107 279
c4.66699 12 3.66699 22 -3 30l-60 71v2h155v-2l-56 -69c-6.66699 -7.33301 -13 -18.666 -19 -33.999l-170 -446c-17.333 -44.667 -34 -79.667 -50 -105c-28 -44.667 -62.667 -67 -104 -67z" />
    <glyph glyph-name="z" unicode="z" horiz-adv-x="433" 
d="M299 32l100 154h2l-16 -186h-370v2l288 468h-147c-8.66699 0 -14.167 -0.666992 -16.5 -2s-5.83301 -5.66602 -10.5 -12.999l-89 -144h-3v176h380v-2l-286 -468h141c8.66699 0 14.167 0.666992 16.5 2s5.83301 5.66602 10.5 12.999z" />
    <glyph glyph-name="braceleft" unicode="{" horiz-adv-x="351" 
d="M276 -142c-47.333 0 -89.666 17.0039 -126.999 51.0039s-52.666 77.333 -45.999 130l20 170c2.66699 22 -4 40.667 -20 56s-38.667 24.333 -68 27v2c29.333 2.66699 52 11.667 68 27s22.667 34 20 56l-20 170c-6.66699 52.667 8.66602 96 45.999 130
s79.666 51 126.999 51c20.667 0 42.334 -2.66699 65.001 -8v-2c-54 4 -93.833 -10.333 -119.5 -43s-36.5 -67.667 -32.5 -105l19 -173c2.66699 -24.667 -3.5 -46.334 -18.5 -65.001s-33.5 -31.334 -55.5 -38.001v-2c22 -6.66699 40.5 -19.334 55.5 -38.001
s21.167 -40.334 18.5 -65.001l-19 -173c-4 -37.333 6.83301 -72.333 32.5 -105s65.5 -47 119.5 -43v-2c-22.667 -5.33301 -44.334 -8 -65.001 -8z" />
    <glyph glyph-name="bar" unicode="|" horiz-adv-x="218" 
d="M118 -250h-18v1000h18v-1000z" />
    <glyph glyph-name="braceright" unicode="}" horiz-adv-x="351" 
d="M75 -142c-20.667 0 -42.334 2.66309 -65.001 7.99609v2c54 -4 93.833 10.333 119.5 43s36.5 67.667 32.5 105l-19 173c-2.66699 24.667 3.5 46.334 18.5 65.001s33.5 31.334 55.5 38.001v2c-22 6.66699 -40.5 19.334 -55.5 38.001s-21.167 40.334 -18.5 65.001l19 173
c4 37.333 -6.83301 72.333 -32.5 105s-65.5 47 -119.5 43v2c22.667 5.33301 44.334 8 65.001 8c47.333 0 89.666 -17 126.999 -51s52.666 -77.333 45.999 -130l-20 -170c-2.66699 -22 4 -40.667 20 -56s38.667 -24.333 68 -27v-2c-29.333 -2.66699 -52 -11.667 -68 -27
s-22.667 -34 -20 -56l20 -170c6.66699 -52.667 -8.66602 -96 -45.999 -130s-79.666 -51 -126.999 -51z" />
    <glyph glyph-name="asciitilde" unicode="~" horiz-adv-x="502" 
d="M364 277c-30.667 0 -69.499 11 -116.499 33s-83.833 33 -110.5 33c-40.667 0 -73 -19.667 -97 -59l-15 9c26.667 44.667 64 67 112 67c30.667 0 69.5 -11 116.5 -33s83.833 -33 110.5 -33c41.333 0 74 19.667 98 59l15 -9c-26.667 -44.667 -64.334 -67 -113.001 -67z" />
    <glyph glyph-name="uni00A0" unicode="&#xa0;" horiz-adv-x="0" 
 />
    <glyph glyph-name="exclamdown" unicode="&#xa1;" horiz-adv-x="240" 
d="M124 272l61 -489h-130l67 489h2zM183 432c0 -18 -6 -33.167 -18 -45.5s-26.667 -18.5 -44 -18.5c-18 0 -33 6.16699 -45 18.5s-18 27.5 -18 45.5c0 17.333 6 32 18 44s27 18 45 18c17.333 0 32 -6 44 -18s18 -26.667 18 -44z" />
    <glyph glyph-name="cent" unicode="&#xa2;" horiz-adv-x="438" 
d="M257 -105l-16.999 -0.00195312v97h-7c-60 0 -108.667 20.833 -146 62.5s-56 103.5 -56 185.5c0 82.667 19.667 144.834 59 186.501s89.333 64.167 150 67.5v111h17v-110c52.667 0 104 -8 154 -24v-2l-56 -149h-2l-54 147c-2 4.66699 -5.33301 7.83398 -10 9.50098
s-15.334 2.5 -32.001 2.5v-429c3.33301 -0.666992 9 -1 17 -1c30 0 56.167 7.83301 78.5 23.5s41.833 45.5 58.5 89.5h2c-16.667 -104 -68.667 -160.333 -156 -169v-98zM128.001 266.998c0 -62.667 10.167 -111.666 30.5 -146.999s47.5 -57.666 81.5 -66.999v425
c-35.333 -4.66699 -62.833 -25.334 -82.5 -62.001s-29.5 -86.334 -29.5 -149.001z" />
    <glyph glyph-name="sterling" unicode="&#xa3;" horiz-adv-x="517" 
d="M398 297l-180.003 -0.000976562c9.33301 -32.667 14 -61.667 14 -87c0 -35.333 -11 -63.5 -33 -84.5s-49.333 -35.167 -82 -42.5v-2h240c14.667 0 24.334 1 29.001 3s10.334 7.33301 17.001 16l71 92h2l-18 -192h-436v2l71 76c32 34 48 73.667 48 119
c0 23.333 -7.66699 56.666 -23 99.999h-100v17h94c-30 82.667 -45 143 -45 181c0 66.667 18.833 119.667 56.5 159s92.834 59 165.501 59c59.333 0 119 -10 179 -30l-50 -152h-2l-67 149c-4 8.66699 -11 13.334 -21 14.001c-14.667 1.33301 -29 2 -43 2
c-44 0 -76 -15.833 -96 -47.5s-30 -72.5 -30 -122.5c0 -25.333 2.5 -49.166 7.5 -71.499s13.5 -49.5 25.5 -81.5s19 -51.667 21 -59h185v-17z" />
    <glyph glyph-name="currency" unicode="&#xa4;" horiz-adv-x="664" 
d="M332 120c-64 0 -118.001 18.999 -162.001 56.999l-112 -112l-11 12l111 111c-42 43.333 -63 98 -63 164c0 66.667 21.333 121.334 64 164.001l-112 113l11 12l113 -113c44.667 38 98.334 57 161.001 57c63.333 0 117 -19.333 161 -58l114 114l11 -12l-113 -113
c43.333 -43.333 65 -98 65 -164c0 -64.667 -21.333 -119 -64 -163l112 -112l-11 -12l-113 112c-43.333 -38 -97.333 -57 -162 -57zM331.999 136.999c62.667 0 115 19.667 157 59s63 91.333 63 156s-21 116.834 -63 156.501s-94.333 59.5 -157 59.5
s-114.834 -19.833 -156.501 -59.5s-62.5 -91.834 -62.5 -156.501s20.833 -116.667 62.5 -156s93.834 -59 156.501 -59z" />
    <glyph glyph-name="yen" unicode="&#xa5;" horiz-adv-x="601" 
d="M357 166v-97c0 -6 0.666992 -10.167 2 -12.5s5 -4.83301 11 -7.5l91 -47v-2h-312v2l91 47c8.66699 4.66699 13 11.334 13 20.001v97h-155v17h155v91h-155v17h154l-3.5 7c-1.66699 3.33301 -2.83398 6 -3.50098 8l-177 317c-7.33301 13.333 -16.333 24.333 -27 33l-51 45
v2h260v-2l-65 -51c-6 -5.33301 -7.33301 -11.333 -4 -18l167 -299l143 270c5.33301 10 4.33301 18 -3 24l-85 74v2h227v-2l-88 -69c-15.333 -12.667 -26.666 -25.667 -33.999 -39l-143 -270c-5.33301 -8.66699 -8 -19.334 -8 -32.001h154v-17h-154v-91h154v-17h-154z" />
    <glyph glyph-name="brokenbar" unicode="&#xa6;" horiz-adv-x="218" 
d="M118 -250h-18v438h18v-438zM118 322h-18v428h18v-428z" />
    <glyph glyph-name="section" unicode="&#xa7;" horiz-adv-x="484" 
d="M429 257c0 -56.667 -34.667 -101 -104 -133c46.667 -41.333 70 -87 70 -137c0 -45.333 -17.5 -80.833 -52.5 -106.5s-75.167 -38.5 -120.5 -38.5c-43.333 0 -89.333 5.33301 -138 16l23 197h2l73 -180c4 -9.33301 8.33301 -14.666 13 -15.999
c7.33301 -2 16.666 -3 27.999 -3c30.667 0 54.667 10.167 72 30.5s26 44.166 26 71.499c0 50.667 -31.667 96.667 -95 138l-50 34c-42.667 28 -73.5 54.833 -92.5 80.5s-28.5 54.834 -28.5 87.501c0 56.667 34.667 100.667 104 132c-46.667 41.333 -70 87.333 -70 138
c0 45.333 17.5 80.833 52.5 106.5s75.167 38.5 120.5 38.5c43.333 0 89.333 -5.33301 138 -16l-23 -197h-2l-73 180c-4 9.33301 -8.33301 14.666 -13 15.999c-7.33301 2 -16.666 3 -27.999 3c-30.667 0 -54.667 -10.167 -72 -30.5s-26 -44.166 -26 -71.499
c0 -50.667 31.667 -96.667 95 -138l50 -34c42.667 -28 73.5 -54.833 92.5 -80.5s28.5 -54.834 28.5 -87.501zM169 422l-4.00098 3c-11.333 -6 -21.166 -18 -29.499 -36s-12.5 -34.333 -12.5 -49c0 -46 23.333 -85.333 70 -118c50 -34.667 90.667 -64.334 122 -89.001l3 -3
c11.333 6 21.333 18 30 36s13 34.333 13 49c0 46 -23.333 85.333 -70 118c-50 34.667 -90.667 64.334 -122 89.001z" />
    <glyph glyph-name="dieresis" unicode="&#xa8;" horiz-adv-x="368" 
d="M50 623c0 14.667 5 27.167 15 37.5s22.333 15.5 37 15.5s27 -5.16699 37 -15.5s15 -22.833 15 -37.5c0 -14 -5.16699 -26.167 -15.5 -36.5s-22.5 -15.5 -36.5 -15.5s-26.167 5.16699 -36.5 15.5s-15.5 22.5 -15.5 36.5zM214 623c0 14.667 5 27.167 15 37.5
s22 15.5 36 15.5c14.667 0 27.167 -5.16699 37.5 -15.5s15.5 -22.833 15.5 -37.5c0 -14 -5.33301 -26.167 -16 -36.5s-23 -15.5 -37 -15.5s-26 5.16699 -36 15.5s-15 22.5 -15 36.5z" />
    <glyph glyph-name="copyright" unicode="&#xa9;" horiz-adv-x="813" 
d="M317 353c0 -61.333 10.333 -109.002 31 -143.002s48 -51 82 -51c6 0 10.667 0.333008 14 1c4 0.666992 9 4.33398 15 11.001l76 108h1v-124c-31.333 -7.33301 -66.333 -11 -105 -11c-66 0 -117.333 19.167 -154 57.5s-55 88.5 -55 150.5
c0 60.667 18.833 110.5 56.5 149.5s85.5 58.5 143.5 58.5c44.667 0 82.667 -4.33301 114 -13v-118h-1l-79 105c-4.66699 6.66699 -10.667 10.334 -18 11.001c-6 0.666992 -11.667 1 -17 1c-31.333 0 -56.5 -18.167 -75.5 -54.5s-28.5 -82.5 -28.5 -138.5zM48 350.998
c0 107.333 34.5 194.5 103.5 261.5s153.833 100.5 254.5 100.5c101.333 0 186.5 -33.5 255.5 -100.5s103.5 -154.167 103.5 -261.5c0 -108 -34.5 -195.167 -103.5 -261.5s-154.167 -99.5 -255.5 -99.5s-186.333 33.167 -255 99.5s-103 153.5 -103 261.5zM66 350.998
c0 -103.333 32.5 -186.5 97.5 -249.5s145.833 -94.5 242.5 -94.5s177.667 31.5 243 94.5s98 146.167 98 249.5c0 102.667 -32.667 185.834 -98 249.501s-146.333 95.5 -243 95.5c-96 0 -176.667 -31.833 -242 -95.5s-98 -146.834 -98 -249.501z" />
    <glyph glyph-name="ordfeminine" unicode="&#xaa;" horiz-adv-x="402" 
d="M169 558c28 0 51.665 -7.66504 70.998 -22.998l2 74c2 58.667 -24.333 88 -79 88c-8.66699 0 -14.667 -3 -18 -9l-42 -93h-1l-31 95c37.333 15.333 76.333 23 117 23s69.667 -9 87 -27c22.667 -23.333 33 -64.333 31 -123l-3 -113c-1.33301 -30.667 7 -46 25 -46
c10 0 17.333 6.66699 22 20h2c0 -9.33301 -1.33301 -17 -4 -23c-9.33301 -24 -27 -36 -53 -36c-15.333 0 -28.333 5.5 -39 16.5s-16.334 27.5 -17.001 49.5c-7.33301 -20.667 -19.166 -36.834 -35.499 -48.501s-35.166 -17.5 -56.499 -17.5
c-25.333 0 -46.666 8.16699 -63.999 24.5s-26 38.5 -26 66.5c0 31.333 11.167 56.166 33.5 74.499s48.5 27.5 78.5 27.5zM238.998 446.002l1 83c-11.333 5.33301 -24.333 8 -39 8c-24 0 -42.667 -7 -56 -21s-20 -31.333 -20 -52c0 -18 4.83301 -32.333 14.5 -43
s22.167 -16 37.5 -16c23.333 0 44 12.333 62 37v4z" />
    <glyph glyph-name="guillemotleft" unicode="&#xab;" horiz-adv-x="433" 
d="M30 251l202 199l1 -1l-98 -199l98 -199l-1 -1l-202 199v2zM200 251l202 199l1 -1l-98 -199l98 -199l-1 -1l-202 199v2z" />
    <glyph glyph-name="logicalnot" unicode="&#xac;" 
d="M501 109h-18v208h-443v17h461v-225z" />
    <glyph glyph-name="uni00AD" unicode="&#xad;" horiz-adv-x="351" 
d="M46 234v18h260v-18h-260z" />
    <glyph glyph-name="registered" unicode="&#xae;" horiz-adv-x="813" 
d="M48 351c0 107.333 34.5 194.5 103.5 261.5s153.833 100.5 254.5 100.5c101.333 0 186.5 -33.5 255.5 -100.5s103.5 -154.167 103.5 -261.5c0 -108 -34.5 -195.167 -103.5 -261.5s-154.167 -99.5 -255.5 -99.5s-186.333 33.167 -255 99.5s-103 153.5 -103 261.5zM66 351
c0 -103.333 32.5 -186.5 97.5 -249.5s145.833 -94.5 242.5 -94.5s177.667 31.5 243 94.5s98 146.167 98 249.5c0 102.667 -32.667 185.834 -98 249.501s-146.333 95.5 -243 95.5c-96 0 -176.667 -31.833 -242 -95.5s-98 -146.834 -98 -249.501zM233 163l49.001 24.002
c4.66699 2 7 5.66699 7 11v310c0 5.33301 -2.33301 9 -7 11l-49 24v2h197c37.333 0 67.833 -8.83301 91.5 -26.5s35.5 -43.5 35.5 -77.5c0 -23.333 -8.16699 -44.333 -24.5 -63s-38.5 -31.334 -66.5 -38.001v-2l16 -21l83 -113c6 -8 12 -14.667 18 -20l28 -21v-2h-103
l-109 161c-4.66699 6.66699 -10.334 10 -17.001 10h-16v-134c0 -4.66699 2.33301 -8.33398 7 -11.001l48 -24v-2h-188v2zM366.001 517.002l-0.000976562 -167.999h25c55.333 0 83 29.667 83 89c0 35.333 -6.66699 59.166 -20 71.499s-31.666 18.5 -54.999 18.5h-23
c-6.66699 0 -10 -3.66699 -10 -11z" />
    <glyph glyph-name="macron" unicode="&#xaf;" horiz-adv-x="346" 
d="M296 591h-246v18h246v-18z" />
    <glyph glyph-name="degree" unicode="&#xb0;" horiz-adv-x="324" 
d="M35 589c0 36 12.333 65.333 37 88s54.667 34 90 34s65.333 -11.333 90 -34s37 -52 37 -88c0 -35.333 -12.333 -64 -37 -86s-54.667 -33 -90 -33s-65.333 11 -90 33s-37 50.667 -37 86zM53 589c0 -29.333 11 -53.666 33 -72.999s47.333 -29 76 -29
c29.333 0 54.833 9.66699 76.5 29s32.5 43.666 32.5 72.999c0 30 -10.833 55 -32.5 75s-47.167 30 -76.5 30c-28.667 0 -54 -10 -76 -30s-33 -45 -33 -75z" />
    <glyph glyph-name="plusminus" unicode="&#xb1;" 
d="M50 366v17h211v161h18v-161h211v-17h-211v-163h-18v163h-211zM50 106v17h440v-17h-440z" />
    <glyph glyph-name="twosuperior" unicode="&#xb2;" horiz-adv-x="280" 
d="M247 631c0 -28.667 -12.001 -53.667 -36.001 -75s-66.333 -48.333 -127 -81v-2h101c11.333 0 19.666 2.33301 24.999 7l39 38h2l-10 -97h-231v3c54.667 48 89.667 79.333 105 94c42.667 40 64 78.333 64 115c0 44 -21 66 -63 66c-7.33301 0 -12.666 -0.333008 -15.999 -1
c-5.33301 -1.33301 -9 -4.33301 -11 -9l-37 -86h-2l-32 91c36.667 12.667 71.334 19 104.001 19c39.333 0 70 -7 92 -21s33 -34.333 33 -61z" />
    <glyph glyph-name="threesuperior" unicode="&#xb3;" horiz-adv-x="280" 
d="M258 502c0 -25.333 -11.332 -45.834 -33.999 -61.501s-55 -23.5 -97 -23.5c-38.667 0 -75.334 6 -110.001 18l46 94h2l21 -88c1.33301 -4 4 -6.33301 8 -7c9.33301 -2 19.666 -3 30.999 -3c20 0 36.5 6.5 49.5 19.5s19.5 30.167 19.5 51.5c0 44 -29.667 66.333 -89 67v2
c53.333 8.66699 80 33.334 80 74.001c0 36 -17.667 54 -53 54c-10 0 -17.333 -0.333008 -22 -1c-5.33301 -0.666992 -9.33301 -3.66699 -12 -9l-37 -86h-2l-33 91c36.667 12.667 73.334 19 110.001 19c73.333 0 110 -23 110 -69c0 -34 -24 -57 -72 -69v-2
c56 -3.33301 84 -27 84 -71z" />
    <glyph glyph-name="acute" unicode="&#xb4;" horiz-adv-x="310" 
d="M139 703h121v-2l-208 -161l-2 2z" />
    <glyph glyph-name="mu" unicode="&#xb5;" horiz-adv-x="545" 
d="M178 4l-0.00195312 -159.001c0 -10.667 4.66699 -18.334 14 -23.001l90 -48v-2h-278v2l69 40c7.33301 4 11 11.333 11 22v581c0 8.66699 -3.66699 16.334 -11 23.001l-67 45v2h175v-279c0 -61.333 6.33301 -102.833 19 -124.5s34 -32.5 64 -32.5
c40.667 0 73.667 24.667 99 74v292c0 10 -3.66699 17.667 -11 23l-68 45v2h174v-417c0 -10 3.66699 -17.667 11 -23l68 -45v-2h-174v118c-11.333 -39.333 -29.166 -70.166 -53.499 -92.499s-52.166 -33.5 -83.499 -33.5c-20 0 -36 4 -48 12z" />
    <glyph glyph-name="paragraph" unicode="&#xb6;" horiz-adv-x="602" 
d="M431 -250l-17.999 0.000976562v250h-75c-177.333 0 -266 114 -266 342c0 66 7.33301 123.333 22 172s35 86.167 61 112.5s54.167 45.666 84.5 57.999s63.166 18.5 98.499 18.5h190v-17h-97v-672h97v-14h-97v-250zM335.001 14.001h78v672h-78v-672z" />
    <glyph glyph-name="periodcentered" unicode="&#xb7;" horiz-adv-x="225" 
d="M50 425c0 18 6 33.167 18 45.5s26.667 18.5 44 18.5c18 0 33 -6.16699 45 -18.5s18 -27.5 18 -45.5c0 -17.333 -6 -32 -18 -44s-27 -18 -45 -18c-17.333 0 -32 6 -44 18s-18 26.667 -18 44z" />
    <glyph glyph-name="cedilla" unicode="&#xb8;" horiz-adv-x="365" 
d="M280 -143c0 -26.667 -9.6709 -48.835 -29.0039 -66.502s-46 -26.5 -80 -26.5c-30.667 0 -55.667 8.33301 -75 25s-30.666 36.667 -33.999 60l2 1c5.33301 -16.667 15.333 -30.167 30 -40.5s30.334 -15.5 47.001 -15.5c18.667 0 34.334 5.33301 47.001 16s19 24.667 19 42
c0 18.667 -6 33.5 -18 44.5s-28 16.5 -48 16.5c-11.333 0 -23.666 -2 -36.999 -6l-1 2l67 91h2l-10 -63c31.333 6.66699 58.833 1.83398 82.5 -14.499s35.5 -38.166 35.5 -65.499z" />
    <glyph glyph-name="onesuperior" unicode="&#xb9;" horiz-adv-x="240" 
d="M156 715v-252c0 -3.33301 2.66699 -6 8 -8l66 -32v-2h-208v2l67 32c4.66699 2 7 4.66699 7 8v192c0 4.66699 -2.33301 7.66699 -7 9l-73 24v2z" />
    <glyph glyph-name="ordmasculine" unicode="&#xba;" horiz-adv-x="399" 
d="M199 698c-52 0 -78 -52.667 -78 -158c0 -106.667 26 -160 78 -160c52.667 0 79 53.333 79 160c0 105.333 -26.333 158 -79 158zM199 365c-47.333 0 -84.666 15.333 -111.999 46s-41 73.667 -41 129c0 54.667 13.667 97.167 41 127.5s64.666 45.5 111.999 45.5
s84.833 -15.167 112.5 -45.5s41.5 -72.833 41.5 -127.5c0 -55.333 -13.833 -98.333 -41.5 -129s-65.167 -46 -112.5 -46z" />
    <glyph glyph-name="guillemotright" unicode="&#xbb;" horiz-adv-x="433" 
d="M233 249l-202 -199l-1 1l98 199l-98 199l1 1l202 -199v-2zM403 249l-202 -199l-1 1l98 199l-98 199l1 1l202 -199v-2z" />
    <glyph glyph-name="onequarter" unicode="&#xbc;" horiz-adv-x="456" 
d="M60 343v17h336v-17h-336zM335 423v-2h-208v2l67 32c4.66699 2 7 4.66699 7 8v192c0 4.66699 -2.33301 7.66699 -7 9l-73 24v2l140 25v-252c0 -3.33301 2.66699 -6 8 -8zM359 72l-70 -0.000976562v-33c0 -3.33301 2.33301 -6.66602 7 -9.99902l45 -28v-2h-167v2l48 28
c4.66699 2.66699 7 6 7 10v33h-143v2l155 213h48v-201h13c8 0 13.333 2.66699 16 8l46 84h2zM229 85.999v158l-114 -158h114z" />
    <glyph glyph-name="onehalf" unicode="&#xbd;" horiz-adv-x="456" 
d="M60 343v17h336v-17h-336zM261 715v-252c0 -3.33301 2.66699 -6 8 -8l66 -32v-2h-208v2l67 32c4.66699 2 7 4.66699 7 8v192c0 4.66699 -2.33301 7.66699 -7 9l-73 24v2zM342 209c0 -28.667 -12.001 -53.667 -36.001 -75s-66.333 -48.333 -127 -81v-2h101
c11.333 0 19.666 2.33301 24.999 7l39 38h2l-10 -97h-231v3c54.667 48 89.667 79.333 105 94c42.667 40 64 78.333 64 115c0 44 -21 66 -63 66c-7.33301 0 -12.666 -0.333008 -15.999 -1c-5.33301 -1.33301 -9 -4.33301 -11 -9l-37 -86h-2l-32 91
c36.667 12.667 71.334 19 104.001 19c39.333 0 70 -7 92 -21s33 -34.333 33 -61z" />
    <glyph glyph-name="threequarters" unicode="&#xbe;" horiz-adv-x="456" 
d="M60 343v17h336v-17h-336zM349 502c0 -25.333 -11.333 -45.834 -34 -61.501s-55 -23.5 -97 -23.5c-38.667 0 -75.334 6 -110.001 18l46 94h2l21 -88c1.33301 -4 4 -6.33301 8 -7c8.66699 -2 19 -3 31 -3c20 0 36.5 6.5 49.5 19.5s19.5 30.167 19.5 51.5
c0 44 -29.667 66.333 -89 67v2c53.333 8.66699 80 33.334 80 74.001c0 36 -17.667 54 -53 54c-10 0 -17.333 -0.333008 -22 -1c-5.33301 -0.666992 -9.33301 -3.66699 -12 -9l-37 -86h-2l-33 91c36.667 12.667 73.334 19 110.001 19c73.333 0 110 -23 110 -69
c0 -34 -24 -57 -72 -69v-2c56 -3.33301 84 -27 84 -71zM174 -1.00098v1.99902l48 28c4.66699 2.66699 7 6 7 10v33h-143v2l155 213h48v-201h13c8 0 13.333 2.66699 16 8l46 84h2l-7 -106h-70v-33c0 -3.33301 2.33301 -6.66602 7 -9.99902l45 -28v-2h-167zM115 85.998h114
v158z" />
    <glyph glyph-name="questiondown" unicode="&#xbf;" horiz-adv-x="393" 
d="M228 275c38 -20.667 57.001 -48.9971 57.001 -84.9971c0 -13.333 -3.83301 -27.333 -11.5 -42s-15.167 -26.167 -22.5 -34.5l-34 -38.5l-56 -61c-34 -36.667 -51 -75.334 -51 -116.001c0 -32.667 10.667 -59 32 -79s49 -30 83 -30c15.333 0 28.666 1.33301 39.999 4
c9.33301 2 15 3.83301 17 5.5s4.33301 5.5 7 11.5l66 157h2l53 -149c-62 -30 -128.333 -45 -199 -45c-56.667 0 -103.5 13 -140.5 39s-55.5 62 -55.5 108c0 44 24 89.333 72 136l83 83c25.333 25.333 42.333 47.166 51 65.499s10.667 41.166 6 68.499zM299.001 432.003
c0 -18 -6 -33.167 -18 -45.5s-26.667 -18.5 -44 -18.5c-18 0 -33 6.16699 -45 18.5s-18 27.5 -18 45.5c0 17.333 6 32 18 44s27 18 45 18c17.333 0 32 -6 44 -18s18 -26.667 18 -44z" />
    <glyph glyph-name="Agrave" unicode="&#xc0;" horiz-adv-x="621" 
d="M157 246l-47.998 -142.999c-2 -9.33301 -2.5 -15.166 -1.5 -17.499s6.5 -7.5 16.5 -15.5l85 -68v-2h-225v2l80 68c13.333 12 22 24 26 36l168 498c2.66699 10.667 3.66699 17.667 3 21s-4.33398 8.66602 -11.001 15.999l-55 60v2h153l210 -621
c5.33301 -15.333 13 -28 23 -38l43 -42v-2h-249v2l71 54c7.33301 5.33301 8.66602 13.666 3.99902 24.999l-56 165h-237zM276.002 599.001l-113 -335h225zM148.002 919.001h121l89 -161l-2 -2l-208 161v2z" />
    <glyph glyph-name="Aacute" unicode="&#xc1;" horiz-adv-x="621" 
d="M157 246l-47.998 -142.999c-2 -9.33301 -2.5 -15.166 -1.5 -17.499s6.5 -7.5 16.5 -15.5l85 -68v-2h-225v2l80 68c13.333 12 22 24 26 36l168 498c2.66699 10.667 3.66699 17.667 3 21s-4.33398 8.66602 -11.001 15.999l-55 60v2h153l210 -621
c5.33301 -15.333 13 -28 23 -38l43 -42v-2h-249v2l71 54c7.33301 5.33301 8.66602 13.666 3.99902 24.999l-56 165h-237zM276.002 599.001l-113 -335h225zM324.002 919.001h121v-2l-208 -161l-2 2z" />
    <glyph glyph-name="Acircumflex" unicode="&#xc2;" horiz-adv-x="621" 
d="M157 246l-47.998 -142.999c-2 -9.33301 -2.5 -15.166 -1.5 -17.499s6.5 -7.5 16.5 -15.5l85 -68v-2h-225v2l80 68c13.333 12 22 24 26 36l168 498c2.66699 10.667 3.66699 17.667 3 21s-4.33398 8.66602 -11.001 15.999l-55 60v2h153l210 -621
c5.33301 -15.333 13 -28 23 -38l43 -42v-2h-249v2l71 54c7.33301 5.33301 8.66602 13.666 3.99902 24.999l-56 165h-237zM276.002 599.001l-113 -335h225zM296.002 829.001l-141 -76l-1 2l141 173h2l141 -173l-1 -2z" />
    <glyph glyph-name="Atilde" unicode="&#xc3;" horiz-adv-x="621" 
d="M157 246l-47.998 -142.999c-2 -9.33301 -2.5 -15.166 -1.5 -17.499s6.5 -7.5 16.5 -15.5l85 -68v-2h-225v2l80 68c13.333 12 22 24 26 36l168 498c2.66699 10.667 3.66699 17.667 3 21s-4.33398 8.66602 -11.001 15.999l-55 60v2h153l210 -621
c5.33301 -15.333 13 -28 23 -38l43 -42v-2h-249v2l71 54c7.33301 5.33301 8.66602 13.666 3.99902 24.999l-56 165h-237zM276.002 599.001l-113 -335h225zM428.002 888.001l2.00195 -1c0 -13.333 -1 -25.666 -3 -36.999c-9.33301 -48.667 -32.666 -73 -69.999 -73
c-14.667 0 -36.834 7.83301 -66.501 23.5s-51.5 23.5 -65.5 23.5c-26.667 0 -46.667 -16 -60 -48l-2 1c0 11.333 1 22.666 3 33.999c9.33301 50.667 32.666 76 69.999 76c14.667 0 36.667 -7.83301 66 -23.5s51 -23.5 65 -23.5c27.333 0 47.666 16 60.999 48z" />
    <glyph glyph-name="Adieresis" unicode="&#xc4;" horiz-adv-x="621" 
d="M157 246l-47.998 -142.999c-2 -9.33301 -2.5 -15.166 -1.5 -17.499s6.5 -7.5 16.5 -15.5l85 -68v-2h-225v2l80 68c13.333 12 22 24 26 36l168 498c2.66699 10.667 3.66699 17.667 3 21s-4.33398 8.66602 -11.001 15.999l-55 60v2h153l210 -621
c5.33301 -15.333 13 -28 23 -38l43 -42v-2h-249v2l71 54c7.33301 5.33301 8.66602 13.666 3.99902 24.999l-56 165h-237zM276.002 599.001l-113 -335h225zM162.002 839.001c0 14.667 5 27.167 15 37.5s22.333 15.5 37 15.5s27 -5.16699 37 -15.5s15 -22.833 15 -37.5
c0 -14 -5.16699 -26.167 -15.5 -36.5s-22.5 -15.5 -36.5 -15.5s-26.167 5.16699 -36.5 15.5s-15.5 22.5 -15.5 36.5zM326.002 839.001c0 14.667 5 27.167 15 37.5s22 15.5 36 15.5c14.667 0 27.167 -5.16699 37.5 -15.5s15.5 -22.833 15.5 -37.5
c0 -14 -5.33301 -26.167 -16 -36.5s-23 -15.5 -37 -15.5s-26 5.16699 -36 15.5s-15 22.5 -15 36.5z" />
    <glyph glyph-name="Aring" unicode="&#xc5;" horiz-adv-x="621" 
d="M157 246l-47.998 -142.999c-2 -9.33301 -2.5 -15.166 -1.5 -17.499s6.5 -7.5 16.5 -15.5l85 -68v-2h-225v2l80 68c13.333 12 22 24 26 36l168 498c2.66699 10.667 3.66699 17.667 3 21s-4.33398 8.66602 -11.001 15.999l-55 60v2h153l210 -621
c5.33301 -15.333 13 -28 23 -38l43 -42v-2h-249v2l71 54c7.33301 5.33301 8.66602 13.666 3.99902 24.999l-56 165h-237zM276.002 599.001l-113 -335h225zM378.002 838.001c0 -22.667 -7.83301 -41.834 -23.5 -57.501s-34.834 -23.5 -57.501 -23.5
s-41.834 7.83301 -57.501 23.5s-23.5 34.834 -23.5 57.501s7.83301 41.834 23.5 57.501s34.834 23.5 57.501 23.5s41.834 -7.83301 57.501 -23.5s23.5 -34.834 23.5 -57.501zM359.002 838.001c0 17.333 -6 32.166 -18 44.499s-26.667 18.5 -44 18.5s-32 -6.16699 -44 -18.5
s-18 -27.166 -18 -44.499s6 -32.166 18 -44.499s26.667 -18.5 44 -18.5s32 6.16699 44 18.5s18 27.166 18 44.499z" />
    <glyph glyph-name="AE" unicode="&#xc6;" horiz-adv-x="911" 
d="M858 0l-521.998 -0.00390625v2l86 47c8.66699 4.66699 13 11.334 13 20.001v176h-237l-82 -136c-6.66699 -11.333 -10.167 -19.166 -10.5 -23.499s3.5 -9.83301 11.5 -16.5l84 -67v-2h-226v2l74 58c18.667 14.667 31.667 27.667 39 39l306 505
c6.66699 10.667 10 17.834 10 21.501s-3.33301 8.83398 -10 15.501l-63 60v2h517v-216h-2l-84 180c-6 12 -15.667 18 -29 18h-178c-6.66699 0 -11 -1.5 -13 -4.5s-3 -9.16699 -3 -18.5v-294h123c10.667 0.666992 20 7 28 19l64 89h2v-234h-2l-64 90
c-8.66699 12 -18.334 18 -29.001 18h-122v-309c0 -9.33301 1 -15.5 3 -18.5s6.33301 -4.5 13 -4.5h178c17.333 0 28.666 4.33301 33.999 13l89 182h2v-213zM435.002 262.996v374l-226 -374h226z" />
    <glyph glyph-name="Ccedilla" unicode="&#xc7;" horiz-adv-x="595" 
d="M455 -143c0 -26.667 -9.66992 -48.832 -29.0029 -66.499s-46 -26.5 -80 -26.5c-30.667 0 -55.667 8.33301 -75 25s-30.666 36.667 -33.999 60l2 1c5.33301 -16.667 15.333 -30.167 30 -40.5s30.334 -15.5 47.001 -15.5c18.667 0 34.334 5.33301 47.001 16
s19 24.667 19 42c0 18.667 -6 33.667 -18 45s-28 16.666 -48 15.999c-12 0 -24.333 -2 -37 -6l-1 2l60 82c-102 6 -178 41 -228 105s-75 148.333 -75 253c0 109.333 28.667 197.333 86 264s136.666 100 237.999 100c58 0 118.333 -7.33301 181 -22v-211h-2l-101 194
c-4 7.33301 -7.83301 12.166 -11.5 14.499s-10.5 4.16602 -20.5 5.49902c-14 2 -27.667 3 -41 3c-139.333 0 -209 -115.333 -209 -346c0 -230 72 -345 216 -345c8.66699 0 20.334 0.666992 35.001 2c14 1.33301 24 7.33301 30 18l102 201h2v-220
c-53.333 -11.333 -109.333 -17 -168 -17c-2.66699 0 -7 0.166992 -13 0.5s-10.667 0.5 -14 0.5l-8 -54c31.333 6.66699 58.833 1.83398 82.5 -14.499s35.5 -38.166 35.5 -65.499z" />
    <glyph glyph-name="Egrave" unicode="&#xc8;" horiz-adv-x="593" 
d="M540 0l-521.998 -0.00195312v2l86 47c8.66699 4.66699 13 11.334 13 20.001v565c0 8.66699 -4.33301 15.334 -13 20.001l-86 47v2h512v-216h-2l-84 180c-6 12 -15.667 18 -29 18h-178c-6.66699 0 -11 -1.5 -13 -4.5s-3 -9.16699 -3 -18.5v-294h123
c10.667 0.666992 20 7 28 19l64 89h2v-234h-2l-64 90c-8.66699 12 -18.334 18 -29.001 18h-122v-309c0 -9.33301 1 -15.5 3 -18.5s6.33301 -4.5 13 -4.5h178c17.333 0 28.666 4.33301 33.999 13l89 182h2v-213zM164.002 918.998h121l89 -161l-2 -2l-208 161v2z" />
    <glyph glyph-name="Eacute" unicode="&#xc9;" horiz-adv-x="593" 
d="M540 0l-521.998 -0.00195312v2l86 47c8.66699 4.66699 13 11.334 13 20.001v565c0 8.66699 -4.33301 15.334 -13 20.001l-86 47v2h512v-216h-2l-84 180c-6 12 -15.667 18 -29 18h-178c-6.66699 0 -11 -1.5 -13 -4.5s-3 -9.16699 -3 -18.5v-294h123
c10.667 0.666992 20 7 28 19l64 89h2v-234h-2l-64 90c-8.66699 12 -18.334 18 -29.001 18h-122v-309c0 -9.33301 1 -15.5 3 -18.5s6.33301 -4.5 13 -4.5h178c17.333 0 28.666 4.33301 33.999 13l89 182h2v-213zM340.002 918.998h121v-2l-208 -161l-2 2z" />
    <glyph glyph-name="Ecircumflex" unicode="&#xca;" horiz-adv-x="593" 
d="M540 0l-521.998 -0.00195312v2l86 47c8.66699 4.66699 13 11.334 13 20.001v565c0 8.66699 -4.33301 15.334 -13 20.001l-86 47v2h512v-216h-2l-84 180c-6 12 -15.667 18 -29 18h-178c-6.66699 0 -11 -1.5 -13 -4.5s-3 -9.16699 -3 -18.5v-294h123
c10.667 0.666992 20 7 28 19l64 89h2v-234h-2l-64 90c-8.66699 12 -18.334 18 -29.001 18h-122v-309c0 -9.33301 1 -15.5 3 -18.5s6.33301 -4.5 13 -4.5h178c17.333 0 28.666 4.33301 33.999 13l89 182h2v-213zM312.002 828.998l-141 -76l-1 2l141 173h2l141 -173l-1 -2z
" />
    <glyph glyph-name="Edieresis" unicode="&#xcb;" horiz-adv-x="593" 
d="M540 0l-521.998 -0.00195312v2l86 47c8.66699 4.66699 13 11.334 13 20.001v565c0 8.66699 -4.33301 15.334 -13 20.001l-86 47v2h512v-216h-2l-84 180c-6 12 -15.667 18 -29 18h-178c-6.66699 0 -11 -1.5 -13 -4.5s-3 -9.16699 -3 -18.5v-294h123
c10.667 0.666992 20 7 28 19l64 89h2v-234h-2l-64 90c-8.66699 12 -18.334 18 -29.001 18h-122v-309c0 -9.33301 1 -15.5 3 -18.5s6.33301 -4.5 13 -4.5h178c17.333 0 28.666 4.33301 33.999 13l89 182h2v-213zM178.002 838.998c0 14.667 5 27.167 15 37.5
s22.333 15.5 37 15.5s27 -5.16699 37 -15.5s15 -22.833 15 -37.5c0 -14 -5.16699 -26.167 -15.5 -36.5s-22.5 -15.5 -36.5 -15.5s-26.167 5.16699 -36.5 15.5s-15.5 22.5 -15.5 36.5zM342.002 838.998c0 14.667 5 27.167 15 37.5s22 15.5 36 15.5
c14.667 0 27.167 -5.16699 37.5 -15.5s15.5 -22.833 15.5 -37.5c0 -14 -5.33301 -26.167 -16 -36.5s-23 -15.5 -37 -15.5s-26 5.16699 -36 15.5s-15 22.5 -15 36.5z" />
    <glyph glyph-name="Igrave" unicode="&#xcc;" horiz-adv-x="338" 
d="M221 69c0 -6 0.666992 -10.1709 2 -12.5039s5 -4.83301 11 -7.5l86 -47v-2h-302v2l86 47c8.66699 4.66699 13 11.334 13 20.001v565c0 8.66699 -4.33301 15.334 -13 20.001l-86 47v2h302v-2l-86 -47c-6 -3.33301 -9.66699 -6.16602 -11 -8.49902s-2 -6.16602 -2 -11.499
v-565zM20 918.996h121l89 -161l-2 -2l-208 161v2z" />
    <glyph glyph-name="Iacute" unicode="&#xcd;" horiz-adv-x="338" 
d="M221 69c0 -6 0.666992 -10.1709 2 -12.5039s5 -4.83301 11 -7.5l86 -47v-2h-302v2l86 47c8.66699 4.66699 13 11.334 13 20.001v565c0 8.66699 -4.33301 15.334 -13 20.001l-86 47v2h302v-2l-86 -47c-6 -3.33301 -9.66699 -6.16602 -11 -8.49902s-2 -6.16602 -2 -11.499
v-565zM196 918.996h121v-2l-208 -161l-2 2z" />
    <glyph glyph-name="Icircumflex" unicode="&#xce;" horiz-adv-x="338" 
d="M221 69c0 -6 0.666992 -10.1709 2 -12.5039s5 -4.83301 11 -7.5l86 -47v-2h-302v2l86 47c8.66699 4.66699 13 11.334 13 20.001v565c0 8.66699 -4.33301 15.334 -13 20.001l-86 47v2h302v-2l-86 -47c-6 -3.33301 -9.66699 -6.16602 -11 -8.49902s-2 -6.16602 -2 -11.499
v-565zM168 828.996l-141 -76l-1 2l141 173h2l141 -173l-1 -2z" />
    <glyph glyph-name="Idieresis" unicode="&#xcf;" horiz-adv-x="338" 
d="M221 69c0 -6 0.666992 -10.1709 2 -12.5039s5 -4.83301 11 -7.5l86 -47v-2h-302v2l86 47c8.66699 4.66699 13 11.334 13 20.001v565c0 8.66699 -4.33301 15.334 -13 20.001l-86 47v2h302v-2l-86 -47c-6 -3.33301 -9.66699 -6.16602 -11 -8.49902s-2 -6.16602 -2 -11.499
v-565zM34 838.996c0 14.667 5 27.167 15 37.5s22.333 15.5 37 15.5s27 -5.16699 37 -15.5s15 -22.833 15 -37.5c0 -14 -5.16699 -26.167 -15.5 -36.5s-22.5 -15.5 -36.5 -15.5s-26.167 5.16699 -36.5 15.5s-15.5 22.5 -15.5 36.5zM198 838.996c0 14.667 5 27.167 15 37.5
s22 15.5 36 15.5c14.667 0 27.167 -5.16699 37.5 -15.5s15.5 -22.833 15.5 -37.5c0 -14 -5.33301 -26.167 -16 -36.5s-23 -15.5 -37 -15.5s-26 5.16699 -36 15.5s-15 22.5 -15 36.5z" />
    <glyph glyph-name="Eth" unicode="&#xd0;" horiz-adv-x="674" 
d="M30 347l0.000976562 17h89v266c0 8.66699 -0.666992 14.5 -2 17.5s-5 5.83301 -11 8.5l-89 45v2h294c108 0 189.833 -30 245.5 -90s83.5 -144 83.5 -252c0 -110 -28.333 -197.667 -85 -263s-138.334 -98 -245.001 -98h-293v2l89 45c6 2.66699 9.66699 5.66699 11 9
s2 9.33301 2 18v273h-89zM291.001 685l-52 0.000976562c-6 0 -10.167 -1.33301 -12.5 -4s-3.5 -8 -3.5 -16v-301h125v-17h-125v-305c0 -10.667 1.5 -17.334 4.5 -20.001s10.5 -4 22.5 -4h21c166.667 0 250 112.667 250 338c0 116.667 -20.833 200.667 -62.5 252
s-97.5 77 -167.5 77z" />
    <glyph glyph-name="Ntilde" unicode="&#xd1;" horiz-adv-x="682" 
d="M576 602v-602h-69l-367 600v-499c0 -12.667 5.33301 -22.667 16 -30l95 -69v-2h-241v2l95 69c10.667 7.33301 16 17.333 16 30v507c0 14.667 -4.33301 26 -13 34l-84 59v2h175l358 -587v486c0 12 -5.33301 22 -16 30l-95 69v2h241v-2l-95 -69
c-10.667 -7.33301 -16 -17.333 -16 -30zM479 888l2.00195 -1c0 -13.333 -1 -25.666 -3 -36.999c-9.33301 -48.667 -32.666 -73 -69.999 -73c-14.667 0 -36.834 7.83301 -66.501 23.5s-51.5 23.5 -65.5 23.5c-26.667 0 -46.667 -16 -60 -48l-2 1c0 11.333 1 22.666 3 33.999
c9.33301 50.667 32.666 76 69.999 76c14.667 0 36.667 -7.83301 66 -23.5s51 -23.5 65 -23.5c27.333 0 47.666 16 60.999 48z" />
    <glyph glyph-name="Ograve" unicode="&#xd2;" horiz-adv-x="689" 
d="M345 6c57.333 0 103.166 27.666 137.499 82.999s51.5 143 51.5 263s-17.167 207.333 -51.5 262s-80.166 82.334 -137.499 83.001c-57.333 0 -103.166 -27.5 -137.499 -82.5s-51.5 -142.5 -51.5 -262.5s17.167 -207.5 51.5 -262.5s80.166 -82.833 137.499 -83.5z
M345 712.999c98 0 173.833 -32 227.5 -96s80.5 -152.333 80.5 -265s-26.833 -201.167 -80.5 -265.5s-129.5 -96.5 -227.5 -96.5s-174 32.167 -228 96.5s-81 152.833 -81 265.5s27 201 81 265s130 96 228 96zM196 918.999h121l89 -161l-2 -2l-208 161v2z" />
    <glyph glyph-name="Oacute" unicode="&#xd3;" horiz-adv-x="689" 
d="M345 6c57.333 0 103.166 27.666 137.499 82.999s51.5 143 51.5 263s-17.167 207.333 -51.5 262s-80.166 82.334 -137.499 83.001c-57.333 0 -103.166 -27.5 -137.499 -82.5s-51.5 -142.5 -51.5 -262.5s17.167 -207.5 51.5 -262.5s80.166 -82.833 137.499 -83.5z
M345 712.999c98 0 173.833 -32 227.5 -96s80.5 -152.333 80.5 -265s-26.833 -201.167 -80.5 -265.5s-129.5 -96.5 -227.5 -96.5s-174 32.167 -228 96.5s-81 152.833 -81 265.5s27 201 81 265s130 96 228 96zM372 918.999h121v-2l-208 -161l-2 2z" />
    <glyph glyph-name="Ocircumflex" unicode="&#xd4;" horiz-adv-x="689" 
d="M345 6c57.333 0 103.166 27.666 137.499 82.999s51.5 143 51.5 263s-17.167 207.333 -51.5 262s-80.166 82.334 -137.499 83.001c-57.333 0 -103.166 -27.5 -137.499 -82.5s-51.5 -142.5 -51.5 -262.5s17.167 -207.5 51.5 -262.5s80.166 -82.833 137.499 -83.5z
M345 712.999c98 0 173.833 -32 227.5 -96s80.5 -152.333 80.5 -265s-26.833 -201.167 -80.5 -265.5s-129.5 -96.5 -227.5 -96.5s-174 32.167 -228 96.5s-81 152.833 -81 265.5s27 201 81 265s130 96 228 96zM344 828.999l-141 -76l-1 2l141 173h2l141 -173l-1 -2z" />
    <glyph glyph-name="Otilde" unicode="&#xd5;" horiz-adv-x="689" 
d="M345 6c57.333 0 103.166 27.666 137.499 82.999s51.5 143 51.5 263s-17.167 207.333 -51.5 262s-80.166 82.334 -137.499 83.001c-57.333 0 -103.166 -27.5 -137.499 -82.5s-51.5 -142.5 -51.5 -262.5s17.167 -207.5 51.5 -262.5s80.166 -82.833 137.499 -83.5z
M345 712.999c98 0 173.833 -32 227.5 -96s80.5 -152.333 80.5 -265s-26.833 -201.167 -80.5 -265.5s-129.5 -96.5 -227.5 -96.5s-174 32.167 -228 96.5s-81 152.833 -81 265.5s27 201 81 265s130 96 228 96zM476 887.999l2.00195 -1c0 -13.333 -1 -25.666 -3 -36.999
c-9.33301 -48.667 -32.666 -73 -69.999 -73c-14.667 0 -36.834 7.83301 -66.501 23.5s-51.5 23.5 -65.5 23.5c-26.667 0 -46.667 -16 -60 -48l-2 1c0 11.333 1 22.666 3 33.999c9.33301 50.667 32.666 76 69.999 76c14.667 0 36.667 -7.83301 66 -23.5s51 -23.5 65 -23.5
c27.333 0 47.666 16 60.999 48z" />
    <glyph glyph-name="Odieresis" unicode="&#xd6;" horiz-adv-x="689" 
d="M345 6c57.333 0 103.166 27.666 137.499 82.999s51.5 143 51.5 263s-17.167 207.333 -51.5 262s-80.166 82.334 -137.499 83.001c-57.333 0 -103.166 -27.5 -137.499 -82.5s-51.5 -142.5 -51.5 -262.5s17.167 -207.5 51.5 -262.5s80.166 -82.833 137.499 -83.5z
M345 712.999c98 0 173.833 -32 227.5 -96s80.5 -152.333 80.5 -265s-26.833 -201.167 -80.5 -265.5s-129.5 -96.5 -227.5 -96.5s-174 32.167 -228 96.5s-81 152.833 -81 265.5s27 201 81 265s130 96 228 96zM210 838.999c0 14.667 5 27.167 15 37.5s22.333 15.5 37 15.5
s27 -5.16699 37 -15.5s15 -22.833 15 -37.5c0 -14 -5.16699 -26.167 -15.5 -36.5s-22.5 -15.5 -36.5 -15.5s-26.167 5.16699 -36.5 15.5s-15.5 22.5 -15.5 36.5zM374 838.999c0 14.667 5 27.167 15 37.5s22 15.5 36 15.5c14.667 0 27.167 -5.16699 37.5 -15.5
s15.5 -22.833 15.5 -37.5c0 -14 -5.33301 -26.167 -16 -36.5s-23 -15.5 -37 -15.5s-26 5.16699 -36 15.5s-15 22.5 -15 36.5z" />
    <glyph glyph-name="multiply" unicode="&#xd7;" 
d="M121 161l-12 12l149 149l-150 150l12 12l150 -150l150 150l12 -12l-150 -150l149 -149l-12 -12l-149 149z" />
    <glyph glyph-name="Oslash" unicode="&#xd8;" horiz-adv-x="689" 
d="M345 713c52.667 0 100 -10.001 142 -30.001l43 96l17 -7l-43 -98c48 -27.333 84.833 -68.666 110.5 -123.999s38.5 -121.333 38.5 -198c0 -112.667 -26.833 -201.167 -80.5 -265.5s-129.5 -96.5 -227.5 -96.5c-48.667 0 -92.667 8.33301 -132 25l-43 -97l-17 7l43 98
c-52 27.333 -91.667 69 -119 125s-41 124 -41 204c0 112.667 27 201 81 265s130 96 228 96zM156 351.999c0 -128.667 20.666 -221.667 61.999 -279l249 563c-32 40.667 -72.667 61 -122 61c-57.333 0 -103.166 -27.5 -137.499 -82.5s-51.5 -142.5 -51.5 -262.5z
M344.999 5.99902c57.333 0 103.167 27.667 137.5 83s51.5 143 51.5 263s-18.333 209 -55 267l-248 -563c29.333 -33.333 67.333 -50 114 -50z" />
    <glyph glyph-name="Ugrave" unicode="&#xd9;" horiz-adv-x="652" 
d="M554 248c0 -80 -17.334 -142.998 -52.001 -188.998s-90 -69 -166 -69c-159.333 0 -239 71.333 -239 214v427c0 5.33301 -0.666992 9.16602 -2 11.499s-5 5.16602 -11 8.49902l-79 50v2h293v-2l-84 -50c-6 -2.66699 -9.66699 -5.16699 -11 -7.5s-2 -6.5 -2 -12.5v-405
c0 -67.333 14.333 -118.833 43 -154.5s70.334 -53.5 125.001 -53.5c53.333 0 94.333 20 123 60s43 96.333 43 169v355c0 12.667 -5.33301 22.667 -16 30l-95 69v2h242v-2l-96 -69c-10.667 -7.33301 -16 -17.333 -16 -30v-354zM212.999 919.002h121l89 -161l-2 -2l-208 161v2
z" />
    <glyph glyph-name="Uacute" unicode="&#xda;" horiz-adv-x="652" 
d="M554 248c0 -80 -17.334 -142.998 -52.001 -188.998s-90 -69 -166 -69c-159.333 0 -239 71.333 -239 214v427c0 5.33301 -0.666992 9.16602 -2 11.499s-5 5.16602 -11 8.49902l-79 50v2h293v-2l-84 -50c-6 -2.66699 -9.66699 -5.16699 -11 -7.5s-2 -6.5 -2 -12.5v-405
c0 -67.333 14.333 -118.833 43 -154.5s70.334 -53.5 125.001 -53.5c53.333 0 94.333 20 123 60s43 96.333 43 169v355c0 12.667 -5.33301 22.667 -16 30l-95 69v2h242v-2l-96 -69c-10.667 -7.33301 -16 -17.333 -16 -30v-354zM388.999 919.002h121v-2l-208 -161l-2 2z" />
    <glyph glyph-name="Ucircumflex" unicode="&#xdb;" horiz-adv-x="652" 
d="M554 248c0 -80 -17.334 -142.998 -52.001 -188.998s-90 -69 -166 -69c-159.333 0 -239 71.333 -239 214v427c0 5.33301 -0.666992 9.16602 -2 11.499s-5 5.16602 -11 8.49902l-79 50v2h293v-2l-84 -50c-6 -2.66699 -9.66699 -5.16699 -11 -7.5s-2 -6.5 -2 -12.5v-405
c0 -67.333 14.333 -118.833 43 -154.5s70.334 -53.5 125.001 -53.5c53.333 0 94.333 20 123 60s43 96.333 43 169v355c0 12.667 -5.33301 22.667 -16 30l-95 69v2h242v-2l-96 -69c-10.667 -7.33301 -16 -17.333 -16 -30v-354zM360.999 829.002l-141 -76l-1 2l141 173h2
l141 -173l-1 -2z" />
    <glyph glyph-name="Udieresis" unicode="&#xdc;" horiz-adv-x="652" 
d="M554 248c0 -80 -17.334 -142.998 -52.001 -188.998s-90 -69 -166 -69c-159.333 0 -239 71.333 -239 214v427c0 5.33301 -0.666992 9.16602 -2 11.499s-5 5.16602 -11 8.49902l-79 50v2h293v-2l-84 -50c-6 -2.66699 -9.66699 -5.16699 -11 -7.5s-2 -6.5 -2 -12.5v-405
c0 -67.333 14.333 -118.833 43 -154.5s70.334 -53.5 125.001 -53.5c53.333 0 94.333 20 123 60s43 96.333 43 169v355c0 12.667 -5.33301 22.667 -16 30l-95 69v2h242v-2l-96 -69c-10.667 -7.33301 -16 -17.333 -16 -30v-354zM226.999 839.002c0 14.667 5 27.167 15 37.5
s22.333 15.5 37 15.5s27 -5.16699 37 -15.5s15 -22.833 15 -37.5c0 -14 -5.16699 -26.167 -15.5 -36.5s-22.5 -15.5 -36.5 -15.5s-26.167 5.16699 -36.5 15.5s-15.5 22.5 -15.5 36.5zM390.999 839.002c0 14.667 5 27.167 15 37.5s22 15.5 36 15.5
c14.667 0 27.167 -5.16699 37.5 -15.5s15.5 -22.833 15.5 -37.5c0 -14 -5.16699 -26.167 -15.5 -36.5s-22.833 -15.5 -37.5 -15.5c-14 0 -26 5.16699 -36 15.5s-15 22.5 -15 36.5z" />
    <glyph glyph-name="Yacute" unicode="&#xdd;" horiz-adv-x="596" 
d="M355 287l-0.000976562 -218.001c0 -6 0.666992 -10.167 2 -12.5s5 -4.83301 11 -7.5l91 -47v-2h-312v2l91 47c8.66699 4.66699 13 11.334 13 20.001v207c0 10.667 -2.66699 20.667 -8 30l-177 317c-7.33301 13.333 -16.333 24.333 -27 33l-51 45v2h260v-2l-65 -51
c-6 -5.33301 -7.33301 -11.333 -4 -18l167 -299l143 270c5.33301 10 4.33301 18 -3 24l-85 74v2h227v-2l-88 -69c-15.333 -12.667 -26.666 -25.667 -33.999 -39l-143 -270c-5.33301 -9.33301 -8 -21.333 -8 -36zM352.999 918.999h121v-2l-208 -161l-2 2z" />
    <glyph glyph-name="Thorn" unicode="&#xde;" horiz-adv-x="586" 
d="M221 153v-82c0 -6 0.666992 -10.167 2 -12.5s5 -4.83301 11 -7.5l112 -49v-2h-328v2l86 47c6 2.66699 9.66699 5.16699 11 7.5s2 6.5 2 12.5v565c0 9.33301 -4.33301 16 -13 20l-86 47v2h203v-120h99c73.333 0 131.833 -17.5 175.5 -52.5s65.5 -88.5 65.5 -160.5
c0 -66.667 -24.5 -119.5 -73.5 -158.5s-109.5 -58.5 -181.5 -58.5h-85zM221 171l67.999 0.000976562c44.667 0 82.334 15.667 113.001 47s46 82 46 152c0 67.333 -14.5 116.666 -43.5 147.999s-67.167 47 -114.5 47h-69v-394z" />
    <glyph glyph-name="germandbls" unicode="&#xdf;" horiz-adv-x="571" 
d="M471 589c0 -36.667 -23.668 -71.9971 -71.001 -105.997l-54 -38c-24.667 -18 -37 -37.667 -37 -59c0 -30.667 25.333 -57.667 76 -81l71 -32c66.667 -29.333 100 -72.666 100 -129.999c0 -47.333 -17.5 -84.333 -52.5 -111s-76.5 -40 -124.5 -40
c-57.333 0 -110.333 11.667 -159 35l51 135h2l48 -138c2 -6.66699 8.66699 -11.334 20 -14.001c12 -2 25.333 -3 40 -3c28.667 0 50.834 9.33301 66.501 28s23.5 41 23.5 67c0 21.333 -7 39.166 -21 53.499s-34 27.5 -60 39.5l-63 30c-59.333 28 -89 63 -89 105
c0 20 4.83301 36.833 14.5 50.5s25.834 29.5 48.501 47.5l42 35c32 27.333 48 70.666 48 129.999c0 29.333 -8.83301 54.166 -26.5 74.499s-42.834 30.5 -75.501 30.5c-64 0 -96 -50.667 -96 -152v-546h-174v2l68 41c7.33301 4 11 11 11 21v406h-70v17h70v8
c0 80.667 16 137.167 48 169.5s81 48.5 147 48.5c47.333 0 88.833 -10.667 124.5 -32s53.5 -52 53.5 -92z" />
    <glyph glyph-name="agrave" unicode="&#xe0;" horiz-adv-x="465" 
d="M301 344l-2.00195 -105.999c-28 20.667 -62.667 31 -104 31c-43.333 0 -81.166 -12.833 -113.499 -38.5s-48.5 -61.5 -48.5 -107.5c0 -40.667 12.667 -72.667 38 -96s56 -35 92 -35c32 0 59.833 9.33301 83.5 28s40.5 44.667 50.5 78c0 -34.667 7.5 -61 22.5 -79
s34.167 -27 57.5 -27c18.667 0 34.667 5.16699 48 15.5s23 23.166 29 38.499c4 10 6 20.333 6 31h-2c-5.33301 -19.333 -16.333 -29 -33 -29c-25.333 0 -37.333 22.333 -36 67l4 163v14c0 78 -15 132.667 -45 164c-25.333 26 -67.666 39 -126.999 39
c-58.667 0 -114.667 -11 -168 -33l45 -130h2l61 132c2.66699 6.66699 5.66699 10.667 9 12s11.333 2 24 2c35.333 0 62 -11.833 80 -35.5s27 -55.5 27 -95.5v-3zM240.998 242.001c19.333 0 38.667 -3.33301 58 -10l-2 -123v-3c-22.667 -38.667 -52.667 -58 -90 -58
c-22 0 -40.167 8 -54.5 24s-21.5 37 -21.5 63c0 30 9.66699 55.333 29 76s46.333 31 81 31zM76.999 703.001h121l89 -161l-2 -2l-208 161v2z" />
    <glyph glyph-name="aacute" unicode="&#xe1;" horiz-adv-x="465" 
d="M301 344l-2.00195 -105.999c-28 20.667 -62.667 31 -104 31c-43.333 0 -81.166 -12.833 -113.499 -38.5s-48.5 -61.5 -48.5 -107.5c0 -40.667 12.667 -72.667 38 -96s56 -35 92 -35c32 0 59.833 9.33301 83.5 28s40.5 44.667 50.5 78c0 -34.667 7.5 -61 22.5 -79
s34.167 -27 57.5 -27c18.667 0 34.667 5.16699 48 15.5s23 23.166 29 38.499c4 10 6 20.333 6 31h-2c-5.33301 -19.333 -16.333 -29 -33 -29c-25.333 0 -37.333 22.333 -36 67l4 163v14c0 78 -15 132.667 -45 164c-25.333 26 -67.666 39 -126.999 39
c-58.667 0 -114.667 -11 -168 -33l45 -130h2l61 132c2.66699 6.66699 5.66699 10.667 9 12s11.333 2 24 2c35.333 0 62 -11.833 80 -35.5s27 -55.5 27 -95.5v-3zM240.998 242.001c19.333 0 38.667 -3.33301 58 -10l-2 -123v-3c-22.667 -38.667 -52.667 -58 -90 -58
c-22 0 -40.167 8 -54.5 24s-21.5 37 -21.5 63c0 30 9.66699 55.333 29 76s46.333 31 81 31zM252.999 703.001h121v-2l-208 -161l-2 2z" />
    <glyph glyph-name="acircumflex" unicode="&#xe2;" horiz-adv-x="465" 
d="M301 344l-2.00195 -105.999c-28 20.667 -62.667 31 -104 31c-43.333 0 -81.166 -12.833 -113.499 -38.5s-48.5 -61.5 -48.5 -107.5c0 -40.667 12.667 -72.667 38 -96s56 -35 92 -35c32 0 59.833 9.33301 83.5 28s40.5 44.667 50.5 78c0 -34.667 7.5 -61 22.5 -79
s34.167 -27 57.5 -27c18.667 0 34.667 5.16699 48 15.5s23 23.166 29 38.499c4 10 6 20.333 6 31h-2c-5.33301 -19.333 -16.333 -29 -33 -29c-25.333 0 -37.333 22.333 -36 67l4 163v14c0 78 -15 132.667 -45 164c-25.333 26 -67.666 39 -126.999 39
c-58.667 0 -114.667 -11 -168 -33l45 -130h2l61 132c2.66699 6.66699 5.66699 10.667 9 12s11.333 2 24 2c35.333 0 62 -11.833 80 -35.5s27 -55.5 27 -95.5v-3zM240.998 242.001c19.333 0 38.667 -3.33301 58 -10l-2 -123v-3c-22.667 -38.667 -52.667 -58 -90 -58
c-22 0 -40.167 8 -54.5 24s-21.5 37 -21.5 63c0 30 9.66699 55.333 29 76s46.333 31 81 31zM224.999 613.001l-141 -76l-1 2l141 173h2l141 -173l-1 -2z" />
    <glyph glyph-name="atilde" unicode="&#xe3;" horiz-adv-x="465" 
d="M301 344l-2.00195 -105.999c-28 20.667 -62.667 31 -104 31c-43.333 0 -81.166 -12.833 -113.499 -38.5s-48.5 -61.5 -48.5 -107.5c0 -40.667 12.667 -72.667 38 -96s56 -35 92 -35c32 0 59.833 9.33301 83.5 28s40.5 44.667 50.5 78c0 -34.667 7.5 -61 22.5 -79
s34.167 -27 57.5 -27c18.667 0 34.667 5.16699 48 15.5s23 23.166 29 38.499c4 10 6 20.333 6 31h-2c-5.33301 -19.333 -16.333 -29 -33 -29c-25.333 0 -37.333 22.333 -36 67l4 163v14c0 78 -15 132.667 -45 164c-25.333 26 -67.666 39 -126.999 39
c-58.667 0 -114.667 -11 -168 -33l45 -130h2l61 132c2.66699 6.66699 5.66699 10.667 9 12s11.333 2 24 2c35.333 0 62 -11.833 80 -35.5s27 -55.5 27 -95.5v-3zM240.998 242.001c19.333 0 38.667 -3.33301 58 -10l-2 -123v-3c-22.667 -38.667 -52.667 -58 -90 -58
c-22 0 -40.167 8 -54.5 24s-21.5 37 -21.5 63c0 30 9.66699 55.333 29 76s46.333 31 81 31zM356.999 672.001l2.00195 -0.999023c0 -14 -1 -26.333 -3 -37c-9.33301 -48.667 -32.666 -73 -69.999 -73c-14.667 0 -36.834 7.83301 -66.501 23.5s-51.5 23.5 -65.5 23.5
c-26.667 0 -46.667 -16 -60 -48l-2 1c0 11.333 1 22.666 3 33.999c9.33301 50.667 32.666 76 69.999 76c14.667 0 36.667 -7.83301 66 -23.5s51 -23.5 65 -23.5c27.333 0 47.666 16 60.999 48z" />
    <glyph glyph-name="adieresis" unicode="&#xe4;" horiz-adv-x="465" 
d="M301 344l-2.00195 -105.999c-28 20.667 -62.667 31 -104 31c-43.333 0 -81.166 -12.833 -113.499 -38.5s-48.5 -61.5 -48.5 -107.5c0 -40.667 12.667 -72.667 38 -96s56 -35 92 -35c32 0 59.833 9.33301 83.5 28s40.5 44.667 50.5 78c0 -34.667 7.5 -61 22.5 -79
s34.167 -27 57.5 -27c18.667 0 34.667 5.16699 48 15.5s23 23.166 29 38.499c4 10 6 20.333 6 31h-2c-5.33301 -19.333 -16.333 -29 -33 -29c-25.333 0 -37.333 22.333 -36 67l4 163v14c0 78 -15 132.667 -45 164c-25.333 26 -67.666 39 -126.999 39
c-58.667 0 -114.667 -11 -168 -33l45 -130h2l61 132c2.66699 6.66699 5.66699 10.667 9 12s11.333 2 24 2c35.333 0 62 -11.833 80 -35.5s27 -55.5 27 -95.5v-3zM240.998 242.001c19.333 0 38.667 -3.33301 58 -10l-2 -123v-3c-22.667 -38.667 -52.667 -58 -90 -58
c-22 0 -40.167 8 -54.5 24s-21.5 37 -21.5 63c0 30 9.66699 55.333 29 76s46.333 31 81 31zM90.999 623.001c0 14.667 5 27.167 15 37.5s22.333 15.5 37 15.5s27 -5.16699 37 -15.5s15 -22.833 15 -37.5c0 -14 -5.16699 -26.167 -15.5 -36.5s-22.5 -15.5 -36.5 -15.5
s-26.167 5.16699 -36.5 15.5s-15.5 22.5 -15.5 36.5zM254.999 623.001c0 14.667 5 27.167 15 37.5s22 15.5 36 15.5c14.667 0 27.167 -5.16699 37.5 -15.5s15.5 -22.833 15.5 -37.5c0 -14 -5.16699 -26.167 -15.5 -36.5s-22.833 -15.5 -37.5 -15.5
c-14 0 -26 5.16699 -36 15.5s-15 22.5 -15 36.5z" />
    <glyph glyph-name="aring" unicode="&#xe5;" horiz-adv-x="465" 
d="M301 344l-2.00195 -105.999c-28 20.667 -62.667 31 -104 31c-43.333 0 -81.166 -12.833 -113.499 -38.5s-48.5 -61.5 -48.5 -107.5c0 -40.667 12.667 -72.667 38 -96s56 -35 92 -35c32 0 59.833 9.33301 83.5 28s40.5 44.667 50.5 78c0 -34.667 7.5 -61 22.5 -79
s34.167 -27 57.5 -27c18.667 0 34.667 5.16699 48 15.5s23 23.166 29 38.499c4 10 6 20.333 6 31h-2c-5.33301 -19.333 -16.333 -29 -33 -29c-25.333 0 -37.333 22.333 -36 67l4 163v14c0 78 -15 132.667 -45 164c-25.333 26 -67.666 39 -126.999 39
c-58.667 0 -114.667 -11 -168 -33l45 -130h2l61 132c2.66699 6.66699 5.66699 10.667 9 12s11.333 2 24 2c35.333 0 62 -11.833 80 -35.5s27 -55.5 27 -95.5v-3zM240.998 242.001c19.333 0 38.667 -3.33301 58 -10l-2 -123v-3c-22.667 -38.667 -52.667 -58 -90 -58
c-22 0 -40.167 8 -54.5 24s-21.5 37 -21.5 63c0 30 9.66699 55.333 29 76s46.333 31 81 31zM306.999 622.001c0 -22.667 -7.83301 -41.834 -23.5 -57.501s-34.834 -23.5 -57.501 -23.5s-41.834 7.83301 -57.501 23.5s-23.5 34.834 -23.5 57.501s7.83301 41.834 23.5 57.501
s34.834 23.5 57.501 23.5s41.834 -7.83301 57.501 -23.5s23.5 -34.834 23.5 -57.501zM287.999 622.001c0 17.333 -6 32.166 -18 44.499s-26.667 18.5 -44 18.5s-32 -6.16699 -44 -18.5s-18 -27.166 -18 -44.499s6 -32.166 18 -44.499s26.667 -18.5 44 -18.5
s32 6.16699 44 18.5s18 27.166 18 44.499z" />
    <glyph glyph-name="ae" unicode="&#xe6;" horiz-adv-x="732" 
d="M190 269c44 0 80.3359 -10.333 109.003 -31v26l2 80c1.33301 40.667 -7.33398 73 -26.001 97s-46.334 36 -83.001 36c-11.333 0 -18.666 -0.666992 -21.999 -2s-6.33301 -5 -9 -11l-61 -131h-2l-49 135c56 18 114.667 27 176 27c55.333 0 95.666 -13 120.999 -39
c8 -9.33301 13.667 -17 17 -23c39.333 41.333 88.666 62 147.999 62c52 0 96.333 -15.667 133 -47s55 -77 55 -137c0 -6.66699 -0.666992 -15.334 -2 -26.001h-303v-28c0 -65.333 13.667 -116.333 41 -153s62.333 -55 105 -55c73.333 0 126.333 40.667 159 122h2
c-10.667 -59.333 -32.5 -104 -65.5 -134s-75.833 -45 -128.5 -45c-38 0 -72.833 9 -104.5 27s-56.5 45 -74.5 81c-10.667 -33.333 -30 -59.666 -58 -78.999s-61 -29 -99 -29c-40 0 -73 12.167 -99 36.5s-39 57.5 -39 99.5c0 44 16.167 78.5 48.5 103.5s68.5 37.5 108.5 37.5
zM510.003 480c-32.667 0 -59.168 -16 -79.501 -48s-32.166 -75.333 -35.499 -130h207c0 118.667 -30.667 178 -92 178zM217.002 48c45.333 0 81.668 18.667 109.001 56c-18 37.333 -27 80.333 -27 129c-24 6 -43 9 -57 9c-34.667 0 -61.834 -9.83301 -81.501 -29.5
s-29.5 -44.167 -29.5 -73.5c0 -27.333 7.66699 -49.333 23 -66s36.333 -25 63 -25z" />
    <glyph glyph-name="ccedilla" unicode="&#xe7;" horiz-adv-x="440" 
d="M345 -143c0 -26.667 -9.66895 -48.833 -29.002 -66.5s-46 -26.5 -80 -26.5c-30.667 0 -55.667 8.33301 -75 25s-30.666 36.667 -33.999 60l2 1c5.33301 -16.667 15.333 -30.167 30 -40.5s30.334 -15.5 47.001 -15.5c18.667 0 34.334 5.33301 47.001 16s19 24.667 19 42
c0 18.667 -6 33.667 -18 45s-28 16.666 -48 15.999c-12 0 -24.333 -2 -37 -6l-1 2l61 83c-55.333 1.33301 -102.333 22.666 -141 63.999s-58 102.333 -58 183c0 44.667 6.66699 84 20 118s31.333 60.667 54 80s47.5 33.833 74.5 43.5s55.5 14.5 85.5 14.5
c46 0 94.333 -9.33301 145 -28l-47 -145h-2l-59 144c-3.33301 7.33301 -7.33301 11.333 -12 12c-6 1.33301 -13 2 -21 2c-46 0 -81 -18.333 -105 -55s-36 -88.667 -36 -156c0 -74 13.5 -129.167 40.5 -165.5s61.833 -54.5 104.5 -54.5c62.667 0 109.667 37.667 141 113h2
c-10 -52 -29.833 -93.167 -59.5 -123.5s-69.834 -45.833 -120.501 -46.5l-8 -55c31.333 6.66699 58.833 1.83398 82.5 -14.499s35.5 -38.166 35.5 -65.499z" />
    <glyph glyph-name="egrave" unicode="&#xe8;" horiz-adv-x="464" 
d="M429 285l-302 0.00195312v-28c0 -65.333 13.5 -116.333 40.5 -153s61.833 -55 104.5 -55c72.667 0 125.667 41 159 123l2 -1c-10.667 -59.333 -32.5 -104 -65.5 -134s-75.833 -45 -128.5 -45c-59.333 0 -108.833 20.833 -148.5 62.5s-59.5 103.167 -59.5 184.5
c0 45.333 6.33301 85.166 19 119.499s29.667 61 51 80s44 33.167 68 42.5s48.667 14 74 14c52 0 96.333 -15.667 133 -47s55 -77 55 -137c0 -6.66699 -0.666992 -15.334 -2 -26.001zM242 480.002c-32.667 0 -58.833 -15.833 -78.5 -47.5s-31.5 -75.167 -35.5 -130.5h206v2
c0 117.333 -30.667 176 -92 176zM97.001 703.002h121l89 -161l-2 -2l-208 161v2z" />
    <glyph glyph-name="eacute" unicode="&#xe9;" horiz-adv-x="464" 
d="M429 285l-302 0.00195312v-28c0 -65.333 13.5 -116.333 40.5 -153s61.833 -55 104.5 -55c72.667 0 125.667 41 159 123l2 -1c-10.667 -59.333 -32.5 -104 -65.5 -134s-75.833 -45 -128.5 -45c-59.333 0 -108.833 20.833 -148.5 62.5s-59.5 103.167 -59.5 184.5
c0 45.333 6.33301 85.166 19 119.499s29.667 61 51 80s44 33.167 68 42.5s48.667 14 74 14c52 0 96.333 -15.667 133 -47s55 -77 55 -137c0 -6.66699 -0.666992 -15.334 -2 -26.001zM242 480.002c-32.667 0 -58.833 -15.833 -78.5 -47.5s-31.5 -75.167 -35.5 -130.5h206v2
c0 117.333 -30.667 176 -92 176zM273.001 703.002h121v-2l-208 -161l-2 2z" />
    <glyph glyph-name="ecircumflex" unicode="&#xea;" horiz-adv-x="464" 
d="M429 285l-302 0.00195312v-28c0 -65.333 13.5 -116.333 40.5 -153s61.833 -55 104.5 -55c72.667 0 125.667 41 159 123l2 -1c-10.667 -59.333 -32.5 -104 -65.5 -134s-75.833 -45 -128.5 -45c-59.333 0 -108.833 20.833 -148.5 62.5s-59.5 103.167 -59.5 184.5
c0 45.333 6.33301 85.166 19 119.499s29.667 61 51 80s44 33.167 68 42.5s48.667 14 74 14c52 0 96.333 -15.667 133 -47s55 -77 55 -137c0 -6.66699 -0.666992 -15.334 -2 -26.001zM242 480.002c-32.667 0 -58.833 -15.833 -78.5 -47.5s-31.5 -75.167 -35.5 -130.5h206v2
c0 117.333 -30.667 176 -92 176zM245.001 613.002l-141 -76l-1 2l141 173h2l141 -173l-1 -2z" />
    <glyph glyph-name="edieresis" unicode="&#xeb;" horiz-adv-x="464" 
d="M429 285l-302 0.00195312v-28c0 -65.333 13.5 -116.333 40.5 -153s61.833 -55 104.5 -55c72.667 0 125.667 41 159 123l2 -1c-10.667 -59.333 -32.5 -104 -65.5 -134s-75.833 -45 -128.5 -45c-59.333 0 -108.833 20.833 -148.5 62.5s-59.5 103.167 -59.5 184.5
c0 45.333 6.33301 85.166 19 119.499s29.667 61 51 80s44 33.167 68 42.5s48.667 14 74 14c52 0 96.333 -15.667 133 -47s55 -77 55 -137c0 -6.66699 -0.666992 -15.334 -2 -26.001zM242 480.002c-32.667 0 -58.833 -15.833 -78.5 -47.5s-31.5 -75.167 -35.5 -130.5h206v2
c0 117.333 -30.667 176 -92 176zM111.001 623.002c0 14.667 5 27.167 15 37.5s22.333 15.5 37 15.5s27 -5.16699 37 -15.5s15 -22.833 15 -37.5c0 -14 -5.16699 -26.167 -15.5 -36.5s-22.5 -15.5 -36.5 -15.5s-26.167 5.16699 -36.5 15.5s-15.5 22.5 -15.5 36.5z
M275.001 623.002c0 14.667 5 27.167 15 37.5s22 15.5 36 15.5c14.667 0 27.167 -5.16699 37.5 -15.5s15.5 -22.833 15.5 -37.5c0 -14 -5.16699 -26.167 -15.5 -36.5s-22.833 -15.5 -37.5 -15.5c-14 0 -26 5.16699 -36 15.5s-15 22.5 -15 36.5z" />
    <glyph glyph-name="igrave" unicode="&#xec;" horiz-adv-x="286" 
d="M198 487v-423c0 -9.33301 4 -16.333 12 -21l67 -41v-2h-253v2l68 40c7.33301 4 11 11.333 11 22v348c0 10 -3.66699 17.667 -11 23l-68 50v2h174zM-2 703h121l89 -161l-2 -2l-208 161v2z" />
    <glyph glyph-name="iacute" unicode="&#xed;" horiz-adv-x="286" 
d="M198 487v-423c0 -9.33301 4 -16.333 12 -21l67 -41v-2h-253v2l68 40c7.33301 4 11 11.333 11 22v348c0 10 -3.66699 17.667 -11 23l-68 50v2h174zM174 703h121v-2l-208 -161l-2 2z" />
    <glyph glyph-name="icircumflex" unicode="&#xee;" horiz-adv-x="286" 
d="M198 487v-423c0 -9.33301 4 -16.333 12 -21l67 -41v-2h-253v2l68 40c7.33301 4 11 11.333 11 22v348c0 10 -3.66699 17.667 -11 23l-68 50v2h174zM132 613l-141 -76l-1 2l141 173h2l141 -173l-1 -2z" />
    <glyph glyph-name="idieresis" unicode="&#xef;" horiz-adv-x="286" 
d="M198 487v-423c0 -9.33301 4 -16.333 12 -21l67 -41v-2h-253v2l68 40c7.33301 4 11 11.333 11 22v348c0 10 -3.66699 17.667 -11 23l-68 50v2h174zM-2 623c0 14.667 5 27.167 15 37.5s22.333 15.5 37 15.5s27 -5.16699 37 -15.5s15 -22.833 15 -37.5
c0 -14 -5.16699 -26.167 -15.5 -36.5s-22.5 -15.5 -36.5 -15.5s-26.167 5.16699 -36.5 15.5s-15.5 22.5 -15.5 36.5zM162 623c0 14.667 5 27.167 15 37.5s22 15.5 36 15.5c14.667 0 27.167 -5.16699 37.5 -15.5s15.5 -22.833 15.5 -37.5c0 -14 -5.33301 -26.167 -16 -36.5
s-23 -15.5 -37 -15.5s-26 5.16699 -36 15.5s-15 22.5 -15 36.5z" />
    <glyph glyph-name="eth" unicode="&#xf0;" horiz-adv-x="499" 
d="M132 711l0.999023 1.99902l14 -3c58.667 -12 109.334 -33.667 152.001 -65l113 68l8 -15l-107 -63c51.333 -40.667 89.833 -92.167 115.5 -154.5s38.5 -129.833 38.5 -202.5c0 -190.667 -74.333 -286 -223 -286c-59.333 0 -109.5 22 -150.5 66s-61.5 102.333 -61.5 175
c0 78.667 19 140.834 57 186.501s85.333 68.5 142 68.5c52.667 0 92 -21 118 -63c-16 71.333 -43.333 132 -82 182l-121 -72l-7 15l117 70c-32 36.667 -73.333 67 -124 91zM364.999 257.999c0 55.333 -4.33398 105.003 -13.001 149.003c-26.667 34.667 -59 52 -97 52
c-26 0 -48.167 -11.833 -66.5 -35.5s-31.333 -51.834 -39 -84.501s-11.5 -67.334 -11.5 -104.001c0 -64.667 9.33301 -118.834 28 -162.501s44.334 -65.5 77.001 -65.5c81.333 0 122 83.667 122 251z" />
    <glyph glyph-name="ntilde" unicode="&#xf1;" horiz-adv-x="564" 
d="M483 295c0 -47.333 -0.666016 -124.334 -1.99902 -231.001c0 -10 4 -17.333 12 -22l68 -40v-2h-253v2l64 40c8.66699 5.33301 13 12 13 20c0 1.33301 0.166992 16 0.5 44s0.833008 58.167 1.5 90.5s1 54.5 1 66.5c0 60.667 -7 104.834 -21 132.501s-35.667 41.5 -65 41.5
c-44 0 -79 -24.667 -105 -74v-299c0 -9.33301 4 -16.333 12 -21l67 -41v-2h-253v2l68 40c7.33301 4 11 11.333 11 22v348c0 10 -3.66699 17.667 -11 23l-68 50v2h174v-118c23.333 84 72.666 126 147.999 126c92 0 138 -66.667 138 -200zM416.001 671.999l2.00195 -0.999023
c0 -14 -1 -26.333 -3 -37c-9.33301 -48.667 -32.666 -73 -69.999 -73c-14.667 0 -36.834 7.83301 -66.501 23.5s-51.5 23.5 -65.5 23.5c-26.667 0 -46.667 -16 -60 -48l-2 1c0 11.333 1 22.666 3 33.999c9.33301 50.667 32.666 76 69.999 76
c14.667 0 36.667 -7.83301 66 -23.5s51 -23.5 65 -23.5c27.333 0 47.666 16 60.999 48z" />
    <glyph glyph-name="ograve" unicode="&#xf2;" horiz-adv-x="508" 
d="M254 480c-75.333 0 -113 -78.667 -113 -236c0 -158 37.667 -237 113 -237s113 79 113 237c0 157.333 -37.667 236 -113 236zM254 -8c-68.667 0 -122.834 22.167 -162.501 66.5s-59.5 106.166 -59.5 185.499s19.833 141 59.5 185s93.834 66 162.501 66
s122.834 -22 162.501 -66s59.5 -105.667 59.5 -185s-19.833 -141.166 -59.5 -185.499s-93.834 -66.5 -162.501 -66.5zM105 703h121l89 -161l-2 -2l-208 161v2z" />
    <glyph glyph-name="oacute" unicode="&#xf3;" horiz-adv-x="508" 
d="M254 480c-75.333 0 -113 -78.667 -113 -236c0 -158 37.667 -237 113 -237s113 79 113 237c0 157.333 -37.667 236 -113 236zM254 -8c-68.667 0 -122.834 22.167 -162.501 66.5s-59.5 106.166 -59.5 185.499s19.833 141 59.5 185s93.834 66 162.501 66
s122.834 -22 162.501 -66s59.5 -105.667 59.5 -185s-19.833 -141.166 -59.5 -185.499s-93.834 -66.5 -162.501 -66.5zM281 703h121v-2l-208 -161l-2 2z" />
    <glyph glyph-name="ocircumflex" unicode="&#xf4;" horiz-adv-x="508" 
d="M254 480c-75.333 0 -113 -78.667 -113 -236c0 -158 37.667 -237 113 -237s113 79 113 237c0 157.333 -37.667 236 -113 236zM254 -8c-68.667 0 -122.834 22.167 -162.501 66.5s-59.5 106.166 -59.5 185.499s19.833 141 59.5 185s93.834 66 162.501 66
s122.834 -22 162.501 -66s59.5 -105.667 59.5 -185s-19.833 -141.166 -59.5 -185.499s-93.834 -66.5 -162.501 -66.5zM253 613l-141 -76l-1 2l141 173h2l141 -173l-1 -2z" />
    <glyph glyph-name="otilde" unicode="&#xf5;" horiz-adv-x="508" 
d="M254 480c-75.333 0 -113 -78.667 -113 -236c0 -158 37.667 -237 113 -237s113 79 113 237c0 157.333 -37.667 236 -113 236zM254 -8c-68.667 0 -122.834 22.167 -162.501 66.5s-59.5 106.166 -59.5 185.499s19.833 141 59.5 185s93.834 66 162.501 66
s122.834 -22 162.501 -66s59.5 -105.667 59.5 -185s-19.833 -141.166 -59.5 -185.499s-93.834 -66.5 -162.501 -66.5zM385 672l2.00195 -0.999023c0 -14 -1 -26.333 -3 -37c-9.33301 -48.667 -32.666 -73 -69.999 -73c-14.667 0 -36.834 7.83301 -66.501 23.5
s-51.5 23.5 -65.5 23.5c-26.667 0 -46.667 -16 -60 -48l-2 1c0 11.333 1 22.666 3 33.999c9.33301 50.667 32.666 76 69.999 76c14.667 0 36.667 -7.83301 66 -23.5s51 -23.5 65 -23.5c27.333 0 47.666 16 60.999 48z" />
    <glyph glyph-name="odieresis" unicode="&#xf6;" horiz-adv-x="508" 
d="M254 480c-75.333 0 -113 -78.667 -113 -236c0 -158 37.667 -237 113 -237s113 79 113 237c0 157.333 -37.667 236 -113 236zM254 -8c-68.667 0 -122.834 22.167 -162.501 66.5s-59.5 106.166 -59.5 185.499s19.833 141 59.5 185s93.834 66 162.501 66
s122.834 -22 162.501 -66s59.5 -105.667 59.5 -185s-19.833 -141.166 -59.5 -185.499s-93.834 -66.5 -162.501 -66.5zM119 623c0 14.667 5 27.167 15 37.5s22.333 15.5 37 15.5s27 -5.16699 37 -15.5s15 -22.833 15 -37.5c0 -14 -5.16699 -26.167 -15.5 -36.5
s-22.5 -15.5 -36.5 -15.5s-26.167 5.16699 -36.5 15.5s-15.5 22.5 -15.5 36.5zM283 623c0 14.667 5 27.167 15 37.5s22 15.5 36 15.5c14.667 0 27.167 -5.16699 37.5 -15.5s15.5 -22.833 15.5 -37.5c0 -14 -5.16699 -26.167 -15.5 -36.5s-22.833 -15.5 -37.5 -15.5
c-14 0 -26 5.16699 -36 15.5s-15 22.5 -15 36.5z" />
    <glyph glyph-name="divide" unicode="&#xf7;" 
d="M211 468c0 17.333 5.66699 31.833 17 43.5s25.333 17.5 42 17.5s30.834 -5.83301 42.501 -17.5s17.5 -26.167 17.5 -43.5c0 -16 -5.83301 -29.833 -17.5 -41.5s-25.834 -17.5 -42.501 -17.5s-30.667 5.83301 -42 17.5s-17 25.5 -17 41.5zM211 148
c0 17.333 5.66699 31.833 17 43.5s25.333 17.5 42 17.5s30.834 -5.83301 42.501 -17.5s17.5 -26.167 17.5 -43.5c0 -16 -5.83301 -29.833 -17.5 -41.5s-25.834 -17.5 -42.501 -17.5s-30.667 5.83301 -42 17.5s-17 25.5 -17 41.5zM50 304v17h440v-17h-440z" />
    <glyph glyph-name="oslash" unicode="&#xf8;" horiz-adv-x="508" 
d="M398 545l-32.999 -74c74.667 -37.333 112 -113 112 -227c0 -83.333 -19.833 -146.166 -59.5 -188.499s-94.167 -63.5 -163.5 -63.5c-36.667 0 -68 5.33301 -94 16l-40 -90l-16 8l39 89c-74.667 37.333 -112 113.666 -112 228.999c0 83.333 19.833 146 59.5 188
s94.167 63 163.5 63c35.333 0 66.666 -5.33301 93.999 -16l33 73zM254.001 480c-37.333 0 -65.333 -18.333 -84 -55s-28 -97 -28 -181c0 -80.667 8.33301 -139 25 -175l163 369c-18.667 28 -44 42 -76 42zM366.001 244c0 76 -8.33301 133.667 -25 173l-163 -369
c16.667 -27.333 42 -41 76 -41c36.667 0 64.5 18.5 83.5 55.5s28.5 97.5 28.5 181.5z" />
    <glyph glyph-name="ugrave" unicode="&#xf9;" 
d="M259 50c39.333 0 72.333 24.666 99 73.999v288c0 10 -3.66699 17.667 -11 23l-68 50v2h174v-412c0 -10 3.66699 -17.667 11 -23l68 -50v-2h-174v116c-26.667 -82.667 -75 -124 -145 -124c-90 0 -135 66.667 -135 200c0 40 0.666992 113.333 2 220
c0 10 -3.66699 17.667 -11 23l-68 50v2h175l-2 -119c-0.666992 -79.333 -1 -126.666 -1 -141.999c0 -60.667 6.83301 -105.167 20.5 -133.5s35.5 -42.5 65.5 -42.5zM106 702.999h121l89 -161l-2 -2l-208 161v2z" />
    <glyph glyph-name="uacute" unicode="&#xfa;" 
d="M259 50c39.333 0 72.333 24.666 99 73.999v288c0 10 -3.66699 17.667 -11 23l-68 50v2h174v-412c0 -10 3.66699 -17.667 11 -23l68 -50v-2h-174v116c-26.667 -82.667 -75 -124 -145 -124c-90 0 -135 66.667 -135 200c0 40 0.666992 113.333 2 220
c0 10 -3.66699 17.667 -11 23l-68 50v2h175l-2 -119c-0.666992 -79.333 -1 -126.666 -1 -141.999c0 -60.667 6.83301 -105.167 20.5 -133.5s35.5 -42.5 65.5 -42.5zM282 702.999h121v-2l-208 -161l-2 2z" />
    <glyph glyph-name="ucircumflex" unicode="&#xfb;" 
d="M259 50c39.333 0 72.333 24.666 99 73.999v288c0 10 -3.66699 17.667 -11 23l-68 50v2h174v-412c0 -10 3.66699 -17.667 11 -23l68 -50v-2h-174v116c-26.667 -82.667 -75 -124 -145 -124c-90 0 -135 66.667 -135 200c0 40 0.666992 113.333 2 220
c0 10 -3.66699 17.667 -11 23l-68 50v2h175l-2 -119c-0.666992 -79.333 -1 -126.666 -1 -141.999c0 -60.667 6.83301 -105.167 20.5 -133.5s35.5 -42.5 65.5 -42.5zM254 612.999l-141 -76l-1 2l141 173h2l141 -173l-1 -2z" />
    <glyph glyph-name="udieresis" unicode="&#xfc;" 
d="M259 50c39.333 0 72.333 24.666 99 73.999v288c0 10 -3.66699 17.667 -11 23l-68 50v2h174v-412c0 -10 3.66699 -17.667 11 -23l68 -50v-2h-174v116c-26.667 -82.667 -75 -124 -145 -124c-90 0 -135 66.667 -135 200c0 40 0.666992 113.333 2 220
c0 10 -3.66699 17.667 -11 23l-68 50v2h175l-2 -119c-0.666992 -79.333 -1 -126.666 -1 -141.999c0 -60.667 6.83301 -105.167 20.5 -133.5s35.5 -42.5 65.5 -42.5zM120 622.999c0 14.667 5 27.167 15 37.5s22.333 15.5 37 15.5s27 -5.16699 37 -15.5s15 -22.833 15 -37.5
c0 -14 -5.16699 -26.167 -15.5 -36.5s-22.5 -15.5 -36.5 -15.5s-26.167 5.16699 -36.5 15.5s-15.5 22.5 -15.5 36.5zM284 622.999c0 14.667 5 27.167 15 37.5s22 15.5 36 15.5c14.667 0 27.167 -5.16699 37.5 -15.5s15.5 -22.833 15.5 -37.5
c0 -14 -5.33301 -26.167 -16 -36.5s-23 -15.5 -37 -15.5s-26 5.16699 -36 15.5s-15 22.5 -15 36.5z" />
    <glyph glyph-name="yacute" unicode="&#xfd;" horiz-adv-x="435" 
d="M56 -236c-16 0 -30 3.33203 -42 9.99902l35 151h2l58 -100c4.66699 -8 8.66699 -12 12 -12s7.33301 3 12 9c22 26.667 42.333 65.667 61 117l13 36l-173 443c-6 14 -12.333 25.333 -19 34l-25 33v2h198v-2l-48 -46c-6.66699 -6 -8 -14 -4 -24l120 -310l107 279
c4.66699 12 3.66699 22 -3 30l-60 71v2h155v-2l-56 -69c-6.66699 -7.33301 -13 -18.666 -19 -33.999l-170 -446c-17.333 -44.667 -34 -79.667 -50 -105c-28 -44.667 -62.667 -67 -104 -67zM270 702.999h121v-2l-208 -161l-2 2z" />
    <glyph glyph-name="thorn" unicode="&#xfe;" horiz-adv-x="523" 
d="M317 495c54.667 0 97 -20.998 127 -62.998s45 -100.333 45 -175c0 -80.667 -16.333 -145 -49 -193s-78.667 -72 -138 -72c-65.333 0 -110.333 30.667 -135 92v-239c0 -10.667 4.66699 -18.334 14 -23.001l90 -48v-2h-278v2l68 40c7.33301 4 11 11.333 11 22v793
c0 9.33301 -3.66699 16.666 -11 21.999l-68 50v2h174v-333c30 83.333 80 125 150 125zM274 437.002c-44 0 -79.667 -24.333 -107 -73v-271c23.333 -40 55.666 -60 96.999 -60c40 0 70.167 18.833 90.5 56.5s30.5 91.5 30.5 161.5c0 66 -9.16699 113.5 -27.5 142.5
s-46.166 43.5 -83.499 43.5z" />
    <glyph glyph-name="ydieresis" unicode="&#xff;" horiz-adv-x="435" 
d="M56 -236c-16 0 -30 3.33203 -42 9.99902l35 151h2l58 -100c4.66699 -8 8.66699 -12 12 -12s7.33301 3 12 9c22 26.667 42.333 65.667 61 117l13 36l-173 443c-6 14 -12.333 25.333 -19 34l-25 33v2h198v-2l-48 -46c-6.66699 -6 -8 -14 -4 -24l120 -310l107 279
c4.66699 12 3.66699 22 -3 30l-60 71v2h155v-2l-56 -69c-6.66699 -7.33301 -13 -18.666 -19 -33.999l-170 -446c-17.333 -44.667 -34 -79.667 -50 -105c-28 -44.667 -62.667 -67 -104 -67zM108 622.999c0 14.667 5 27.167 15 37.5s22.333 15.5 37 15.5s27 -5.16699 37 -15.5
s15 -22.833 15 -37.5c0 -14 -5.16699 -26.167 -15.5 -36.5s-22.5 -15.5 -36.5 -15.5s-26.167 5.16699 -36.5 15.5s-15.5 22.5 -15.5 36.5zM272 622.999c0 14.667 5 27.167 15 37.5s22 15.5 36 15.5c14.667 0 27.167 -5.16699 37.5 -15.5s15.5 -22.833 15.5 -37.5
c0 -14 -5.33301 -26.167 -16 -36.5s-23 -15.5 -37 -15.5s-26 5.16699 -36 15.5s-15 22.5 -15 36.5z" />
    <glyph glyph-name="Amacron" unicode="&#x100;" horiz-adv-x="621" 
d="M157 246l-47.998 -142.999c-2 -9.33301 -2.5 -15.166 -1.5 -17.499s6.5 -7.5 16.5 -15.5l85 -68v-2h-225v2l80 68c13.333 12 22 24 26 36l168 498c2.66699 10.667 3.66699 17.667 3 21s-4.33398 8.66602 -11.001 15.999l-55 60v2h153l210 -621
c5.33301 -15.333 13 -28 23 -38l43 -42v-2h-249v2l71 54c7.33301 5.33301 8.66602 13.666 3.99902 24.999l-56 165h-237zM276.002 599.001l-113 -335h225zM416.002 807.001h-246v18h246v-18z" />
    <glyph glyph-name="amacron" unicode="&#x101;" horiz-adv-x="465" 
d="M301 344l-2.00195 -105.999c-28 20.667 -62.667 31 -104 31c-43.333 0 -81.166 -12.833 -113.499 -38.5s-48.5 -61.5 -48.5 -107.5c0 -40.667 12.667 -72.667 38 -96s56 -35 92 -35c32 0 59.833 9.33301 83.5 28s40.5 44.667 50.5 78c0 -34.667 7.5 -61 22.5 -79
s34.167 -27 57.5 -27c18.667 0 34.667 5.16699 48 15.5s23 23.166 29 38.499c4 10 6 20.333 6 31h-2c-5.33301 -19.333 -16.333 -29 -33 -29c-25.333 0 -37.333 22.333 -36 67l4 163v14c0 78 -15 132.667 -45 164c-25.333 26 -67.666 39 -126.999 39
c-58.667 0 -114.667 -11 -168 -33l45 -130h2l61 132c2.66699 6.66699 5.66699 10.667 9 12s11.333 2 24 2c35.333 0 62 -11.833 80 -35.5s27 -55.5 27 -95.5v-3zM240.998 242.001c19.333 0 38.667 -3.33301 58 -10l-2 -123v-3c-22.667 -38.667 -52.667 -58 -90 -58
c-22 0 -40.167 8 -54.5 24s-21.5 37 -21.5 63c0 30 9.66699 55.333 29 76s46.333 31 81 31zM344.999 591.001h-246v18h246v-18z" />
    <glyph glyph-name="Abreve" unicode="&#x102;" horiz-adv-x="621" 
d="M157 246l-47.998 -142.999c-2 -9.33301 -2.5 -15.166 -1.5 -17.499s6.5 -7.5 16.5 -15.5l85 -68v-2h-225v2l80 68c13.333 12 22 24 26 36l168 498c2.66699 10.667 3.66699 17.667 3 21s-4.33398 8.66602 -11.001 15.999l-55 60v2h153l210 -621
c5.33301 -15.333 13 -28 23 -38l43 -42v-2h-249v2l71 54c7.33301 5.33301 8.66602 13.666 3.99902 24.999l-56 165h-237zM276.002 599.001l-113 -335h225zM291.002 818.001c32 0 58.668 8.83301 80.001 26.5s32.333 41.5 33 71.5h2c2.66699 -12.667 4 -25.334 4 -38.001
c0 -40 -11.667 -70 -35 -90s-51.333 -30 -84 -30s-60.5 10 -83.5 30s-34.5 50 -34.5 90c0 12.667 1.33301 25.334 4 38.001h2c0.666992 -30 11.667 -53.833 33 -71.5s47.666 -26.5 78.999 -26.5z" />
    <glyph glyph-name="abreve" unicode="&#x103;" horiz-adv-x="465" 
d="M301 344l-2.00195 -105.999c-28 20.667 -62.667 31 -104 31c-43.333 0 -81.166 -12.833 -113.499 -38.5s-48.5 -61.5 -48.5 -107.5c0 -40.667 12.667 -72.667 38 -96s56 -35 92 -35c32 0 59.833 9.33301 83.5 28s40.5 44.667 50.5 78c0 -34.667 7.5 -61 22.5 -79
s34.167 -27 57.5 -27c18.667 0 34.667 5.16699 48 15.5s23 23.166 29 38.499c4 10 6 20.333 6 31h-2c-5.33301 -19.333 -16.333 -29 -33 -29c-25.333 0 -37.333 22.333 -36 67l4 163v14c0 78 -15 132.667 -45 164c-25.333 26 -67.666 39 -126.999 39
c-58.667 0 -114.667 -11 -168 -33l45 -130h2l61 132c2.66699 6.66699 5.66699 10.667 9 12s11.333 2 24 2c35.333 0 62 -11.833 80 -35.5s27 -55.5 27 -95.5v-3zM240.998 242.001c19.333 0 38.667 -3.33301 58 -10l-2 -123v-3c-22.667 -38.667 -52.667 -58 -90 -58
c-22 0 -40.167 8 -54.5 24s-21.5 37 -21.5 63c0 30 9.66699 55.333 29 76s46.333 31 81 31zM219.999 602.001c32 0 58.668 8.83301 80.001 26.5s32.333 41.5 33 71.5h2c2.66699 -12.667 4 -25.334 4 -38.001c0 -40 -11.667 -70 -35 -90s-51.333 -30 -84 -30
s-60.5 10 -83.5 30s-34.5 50 -34.5 90c0 12.667 1.33301 25.334 4 38.001h2c0.666992 -30 11.667 -53.833 33 -71.5s47.666 -26.5 78.999 -26.5z" />
    <glyph glyph-name="Aogonek" unicode="&#x104;" horiz-adv-x="621" 
d="M358 -236c-25.333 0 -48.3311 9.16797 -68.998 27.501s-31 42.833 -31 73.5c0 28 10.5 54.667 31.5 80s49.833 44.333 86.5 57l70 54c7.33301 5.33301 8.66602 13.666 3.99902 24.999l-56 165h-237l-48 -143c-2 -9.33301 -2.5 -15.166 -1.5 -17.499s6.5 -7.5 16.5 -15.5
l85 -68v-2h-225v2l80 68c13.333 12 22 24 26 36l168 498c2.66699 10.667 3.66699 17.667 3 21s-4.33398 8.66602 -11.001 15.999l-55 60v2h153l210 -621c5.33301 -15.333 13 -28 23 -38l43 -42v-2h-238c-44.667 -26.667 -67 -63 -67 -109c0 -24 7.16699 -42.667 21.5 -56
s31.833 -20 52.5 -20c31.333 0 55.333 11.667 72 35l2 -1c-24 -56.667 -60.333 -85 -109 -85zM276.002 599.001l-113 -335h225z" />
    <glyph glyph-name="aogonek" unicode="&#x105;" horiz-adv-x="465" 
d="M241 242c-34.667 0 -61.668 -10.333 -81.001 -31s-29 -46 -29 -76c0 -26 7.16699 -47 21.5 -63s32.5 -24 54.5 -24c37.333 0 67.333 19.333 90 58v3l2 123c-19.333 6.66699 -38.666 10 -57.999 10zM357.999 -236c-25.333 0 -48.3311 9.16699 -68.998 27.5
s-31 42.833 -31 73.5c0 26.667 11 51.167 33 73.5s52 40.166 90 53.499h-4c-23.333 0 -42.5 9 -57.5 27s-22.5 44.333 -22.5 79c-10 -33.333 -26.833 -59.333 -50.5 -78s-51.5 -28 -83.5 -28c-36 0 -66.667 11.667 -92 35s-38 55.333 -38 96c0 46 16.167 81.833 48.5 107.5
s70.166 38.5 113.499 38.5c41.333 0 76 -10.333 104 -31l2 106v3c0 40 -9 71.833 -27 95.5s-44.667 35.5 -80 35.5c-12.667 0 -20.667 -0.666992 -24 -2s-6.33301 -5.33301 -9 -12l-61 -132h-2l-45 130c53.333 22 109.333 33 168 33c59.333 0 101.666 -13 126.999 -39
c30 -31.333 45 -86 45 -164v-14l-4 -163c-1.33301 -44.667 10.667 -67 36 -67c16.667 0 27.667 9.66699 33 29h2c0 -10.667 -2 -21 -6 -31c-11.333 -28.667 -31.333 -46 -60 -52c-50 -23.333 -75 -57.666 -75 -102.999c0 -24 7.16699 -42.667 21.5 -56s31.833 -20 52.5 -20
c31.333 0 55.333 11.667 72 35l2 -1c-24 -56.667 -60.333 -85 -109 -85z" />
    <glyph glyph-name="Cacute" unicode="&#x106;" horiz-adv-x="595" 
d="M372 -10c-113.333 0 -197.833 32.335 -253.5 97.002s-83.5 152 -83.5 262c0 109.333 28.667 197.333 86 264s136.666 100 237.999 100c58 0 118.333 -7.33301 181 -22v-211h-2l-101 194c-4 7.33301 -7.83301 12.166 -11.5 14.499s-10.5 4.16602 -20.5 5.49902
c-14 2 -27.667 3 -41 3c-139.333 0 -209 -115.333 -209 -346c0 -230 72 -345 216 -345c8.66699 0 20.334 0.666992 35.001 2c14 1.33301 24 7.33301 30 18l102 201h2v-220c-53.333 -11.333 -109.333 -17 -168 -17zM384 919.002h121v-2l-208 -161l-2 2z" />
    <glyph glyph-name="cacute" unicode="&#x107;" horiz-adv-x="440" 
d="M233 -8c-56 0 -103.833 20.833 -143.5 62.5s-59.5 103.167 -59.5 184.5c0 44.667 6.66699 84 20 118s31.333 60.667 54 80s47.5 33.833 74.5 43.5s55.5 14.5 85.5 14.5c46 0 94.333 -9.33301 145 -28l-47 -145h-2l-59 144c-3.33301 7.33301 -7.33301 11.333 -12 12
c-6 1.33301 -13 2 -21 2c-46 0 -81 -18.333 -105 -55s-36 -88.667 -36 -156c0 -74 13.5 -129.167 40.5 -165.5s61.833 -54.5 104.5 -54.5c62.667 0 109.667 37.667 141 113h2c-10 -52.667 -30 -94.167 -60 -124.5s-70.667 -45.5 -122 -45.5zM283 703h121v-2l-208 -161l-2 2z
" />
    <glyph glyph-name="Ccircumflex" unicode="&#x108;" horiz-adv-x="595" 
d="M372 -10c-113.333 0 -197.833 32.335 -253.5 97.002s-83.5 152 -83.5 262c0 109.333 28.667 197.333 86 264s136.666 100 237.999 100c58 0 118.333 -7.33301 181 -22v-211h-2l-101 194c-4 7.33301 -7.83301 12.166 -11.5 14.499s-10.5 4.16602 -20.5 5.49902
c-14 2 -27.667 3 -41 3c-139.333 0 -209 -115.333 -209 -346c0 -230 72 -345 216 -345c8.66699 0 20.334 0.666992 35.001 2c14 1.33301 24 7.33301 30 18l102 201h2v-220c-53.333 -11.333 -109.333 -17 -168 -17zM356 829.002l-141 -76l-1 2l141 173h2l141 -173l-1 -2z" />
    <glyph glyph-name="ccircumflex" unicode="&#x109;" horiz-adv-x="440" 
d="M233 -8c-56 0 -103.833 20.833 -143.5 62.5s-59.5 103.167 -59.5 184.5c0 44.667 6.66699 84 20 118s31.333 60.667 54 80s47.5 33.833 74.5 43.5s55.5 14.5 85.5 14.5c46 0 94.333 -9.33301 145 -28l-47 -145h-2l-59 144c-3.33301 7.33301 -7.33301 11.333 -12 12
c-6 1.33301 -13 2 -21 2c-46 0 -81 -18.333 -105 -55s-36 -88.667 -36 -156c0 -74 13.5 -129.167 40.5 -165.5s61.833 -54.5 104.5 -54.5c62.667 0 109.667 37.667 141 113h2c-10 -52.667 -30 -94.167 -60 -124.5s-70.667 -45.5 -122 -45.5zM255 613l-141 -76l-1 2l141 173
h2l141 -173l-1 -2z" />
    <glyph glyph-name="Cdotaccent" unicode="&#x10a;" horiz-adv-x="595" 
d="M372 -10c-113.333 0 -197.833 32.335 -253.5 97.002s-83.5 152 -83.5 262c0 109.333 28.667 197.333 86 264s136.666 100 237.999 100c58 0 118.333 -7.33301 181 -22v-211h-2l-101 194c-4 7.33301 -7.83301 12.166 -11.5 14.499s-10.5 4.16602 -20.5 5.49902
c-14 2 -27.667 3 -41 3c-139.333 0 -209 -115.333 -209 -346c0 -230 72 -345 216 -345c8.66699 0 20.334 0.666992 35.001 2c14 1.33301 24 7.33301 30 18l102 201h2v-220c-53.333 -11.333 -109.333 -17 -168 -17zM297 830.002c0 17.333 5.66699 31.833 17 43.5
s25.333 17.5 42 17.5s30.834 -5.83301 42.501 -17.5s17.5 -26.167 17.5 -43.5c0 -16 -5.83301 -29.833 -17.5 -41.5s-25.834 -17.5 -42.501 -17.5s-30.667 5.83301 -42 17.5s-17 25.5 -17 41.5z" />
    <glyph glyph-name="cdotaccent" unicode="&#x10b;" horiz-adv-x="440" 
d="M233 -8c-56 0 -103.833 20.833 -143.5 62.5s-59.5 103.167 -59.5 184.5c0 44.667 6.66699 84 20 118s31.333 60.667 54 80s47.5 33.833 74.5 43.5s55.5 14.5 85.5 14.5c46 0 94.333 -9.33301 145 -28l-47 -145h-2l-59 144c-3.33301 7.33301 -7.33301 11.333 -12 12
c-6 1.33301 -13 2 -21 2c-46 0 -81 -18.333 -105 -55s-36 -88.667 -36 -156c0 -74 13.5 -129.167 40.5 -165.5s61.833 -54.5 104.5 -54.5c62.667 0 109.667 37.667 141 113h2c-10 -52.667 -30 -94.167 -60 -124.5s-70.667 -45.5 -122 -45.5zM196 614
c0 17.333 5.66699 31.833 17 43.5s25.333 17.5 42 17.5s30.834 -5.83301 42.501 -17.5s17.5 -26.167 17.5 -43.5c0 -16 -5.83301 -29.833 -17.5 -41.5s-25.834 -17.5 -42.501 -17.5s-30.667 5.83301 -42 17.5s-17 25.5 -17 41.5z" />
    <glyph glyph-name="Ccaron" unicode="&#x10c;" horiz-adv-x="595" 
d="M372 -10c-113.333 0 -197.833 32.335 -253.5 97.002s-83.5 152 -83.5 262c0 109.333 28.667 197.333 86 264s136.666 100 237.999 100c58 0 118.333 -7.33301 181 -22v-211h-2l-101 194c-4 7.33301 -7.83301 12.166 -11.5 14.499s-10.5 4.16602 -20.5 5.49902
c-14 2 -27.667 3 -41 3c-139.333 0 -209 -115.333 -209 -346c0 -230 72 -345 216 -345c8.66699 0 20.334 0.666992 35.001 2c14 1.33301 24 7.33301 30 18l102 201h2v-220c-53.333 -11.333 -109.333 -17 -168 -17zM356 844.002l141 76l1 -2l-141 -173h-2l-141 173l1 2z" />
    <glyph glyph-name="ccaron" unicode="&#x10d;" horiz-adv-x="440" 
d="M233 -8c-56 0 -103.833 20.833 -143.5 62.5s-59.5 103.167 -59.5 184.5c0 44.667 6.66699 84 20 118s31.333 60.667 54 80s47.5 33.833 74.5 43.5s55.5 14.5 85.5 14.5c46 0 94.333 -9.33301 145 -28l-47 -145h-2l-59 144c-3.33301 7.33301 -7.33301 11.333 -12 12
c-6 1.33301 -13 2 -21 2c-46 0 -81 -18.333 -105 -55s-36 -88.667 -36 -156c0 -74 13.5 -129.167 40.5 -165.5s61.833 -54.5 104.5 -54.5c62.667 0 109.667 37.667 141 113h2c-10 -52.667 -30 -94.167 -60 -124.5s-70.667 -45.5 -122 -45.5zM255 628l141 76l1 -2l-141 -173
h-2l-141 173l1 2z" />
    <glyph glyph-name="Dcaron" unicode="&#x10e;" horiz-adv-x="672" 
d="M18 0l0.000976562 1.99805l86 47c8.66699 4.66699 13 11.334 13 20.001v565c0 8.66699 -4.33301 15.334 -13 20.001l-86 47v2h291c108 0 189.833 -30 245.5 -90s83.5 -144 83.5 -252c0 -110 -28.333 -197.667 -85 -263s-138.334 -98 -245.001 -98h-290zM248.001 17.998
l21 0.000976562c80 0 141.667 26 185 78s65 138.667 65 260c0 116.667 -20.833 200.667 -62.5 252s-97.5 77 -167.5 77h-52c-6 0 -10.167 -1.33301 -12.5 -4s-3.5 -8 -3.5 -16v-623c0 -10.667 1.5 -17.334 4.5 -20.001s10.5 -4 22.5 -4zM330.001 843.999l141 76l1 -2
l-141 -173h-2l-141 173l1 2z" />
    <glyph glyph-name="dcaron" unicode="&#x10f;" horiz-adv-x="553" 
d="M450 723v-649.003c0 -9.33301 3.66699 -16.666 11 -21.999l68 -50v-2h-174v103c-13.333 -37.333 -32.833 -65.166 -58.5 -83.499s-54.167 -27.5 -85.5 -27.5c-52.667 0 -95.5 23 -128.5 69s-49.5 105.333 -49.5 178c0 77.333 18.5 139.333 55.5 186s82.833 70 137.5 70
c60.667 0 103.667 -30.667 129 -92v235c0 10.667 -3.66699 18.334 -11 23.001l-68 40v2zM256 40.9971c35.333 0 68.333 23 99 69v284c-28 40.667 -60.667 61 -98 61c-35.333 0 -64.5 -17.5 -87.5 -52.5s-34.5 -85.833 -34.5 -152.5c0 -68.667 11.667 -120.667 35 -156
s52 -53 86 -53zM503 511.997h-1l9 191h92z" />
    <glyph glyph-name="Dcroat" unicode="&#x110;" horiz-adv-x="672" 
d="M28 347l0.000976562 17h89v266c0 8.66699 -0.666992 14.5 -2 17.5s-5 5.83301 -11 8.5l-89 45v2h294c108 0 189.833 -30 245.5 -90s83.5 -144 83.5 -252c0 -110 -28.333 -197.667 -85 -263s-138.334 -98 -245.001 -98h-293v2l89 45c6 2.66699 9.66699 5.66699 11 9
s2 9.33301 2 18v273h-89zM289.001 685l-52 0.000976562c-6 0 -10.167 -1.33301 -12.5 -4s-3.5 -8 -3.5 -16v-301h125v-17h-125v-305c0 -10.667 1.5 -17.334 4.5 -20.001s10.5 -4 22.5 -4h21c166.667 0 250 112.667 250 338c0 116.667 -20.833 200.667 -62.5 252
s-97.5 77 -167.5 77z" />
    <glyph glyph-name="dcroat" unicode="&#x111;" horiz-adv-x="536" 
d="M450 723v-145.003h79v-17h-79v-487c0 -9.33301 3.66699 -16.666 11 -21.999l68 -50v-2h-174v103c-13.333 -37.333 -32.833 -65.166 -58.5 -83.499s-54.167 -27.5 -85.5 -27.5c-52.667 0 -95.5 23 -128.5 69s-49.5 105.333 -49.5 178c0 77.333 18.5 139.333 55.5 186
s82.833 70 137.5 70c60.667 0 103.667 -30.667 129 -92v158h-141v17h141v60c0 10.667 -3.66699 18.334 -11 23.001l-68 40v2zM256 40.9971c35.333 0 68.333 23 99 69v284c-28 40.667 -60.667 61 -98 61c-35.333 0 -64.5 -17.5 -87.5 -52.5s-34.5 -85.833 -34.5 -152.5
c0 -68.667 11.667 -120.667 35 -156s52 -53 86 -53z" />
    <glyph glyph-name="Emacron" unicode="&#x112;" horiz-adv-x="593" 
d="M540 0l-521.998 -0.00195312v2l86 47c8.66699 4.66699 13 11.334 13 20.001v565c0 8.66699 -4.33301 15.334 -13 20.001l-86 47v2h512v-216h-2l-84 180c-6 12 -15.667 18 -29 18h-178c-6.66699 0 -11 -1.5 -13 -4.5s-3 -9.16699 -3 -18.5v-294h123
c10.667 0.666992 20 7 28 19l64 89h2v-234h-2l-64 90c-8.66699 12 -18.334 18 -29.001 18h-122v-309c0 -9.33301 1 -15.5 3 -18.5s6.33301 -4.5 13 -4.5h178c17.333 0 28.666 4.33301 33.999 13l89 182h2v-213zM432.002 806.998h-246v18h246v-18z" />
    <glyph glyph-name="emacron" unicode="&#x113;" horiz-adv-x="464" 
d="M429 285l-302 0.00195312v-28c0 -65.333 13.5 -116.333 40.5 -153s61.833 -55 104.5 -55c72.667 0 125.667 41 159 123l2 -1c-10.667 -59.333 -32.5 -104 -65.5 -134s-75.833 -45 -128.5 -45c-59.333 0 -108.833 20.833 -148.5 62.5s-59.5 103.167 -59.5 184.5
c0 45.333 6.33301 85.166 19 119.499s29.667 61 51 80s44 33.167 68 42.5s48.667 14 74 14c52 0 96.333 -15.667 133 -47s55 -77 55 -137c0 -6.66699 -0.666992 -15.334 -2 -26.001zM242 480.002c-32.667 0 -58.833 -15.833 -78.5 -47.5s-31.5 -75.167 -35.5 -130.5h206v2
c0 117.333 -30.667 176 -92 176zM365.001 591.002h-246v18h246v-18z" />
    <glyph glyph-name="Ebreve" unicode="&#x114;" horiz-adv-x="593" 
d="M540 0l-521.998 -0.00195312v2l86 47c8.66699 4.66699 13 11.334 13 20.001v565c0 8.66699 -4.33301 15.334 -13 20.001l-86 47v2h512v-216h-2l-84 180c-6 12 -15.667 18 -29 18h-178c-6.66699 0 -11 -1.5 -13 -4.5s-3 -9.16699 -3 -18.5v-294h123
c10.667 0.666992 20 7 28 19l64 89h2v-234h-2l-64 90c-8.66699 12 -18.334 18 -29.001 18h-122v-309c0 -9.33301 1 -15.5 3 -18.5s6.33301 -4.5 13 -4.5h178c17.333 0 28.666 4.33301 33.999 13l89 182h2v-213zM307.002 817.998c32 0 58.668 8.83301 80.001 26.5
s32.333 41.5 33 71.5h2c2.66699 -12.667 4 -25.334 4 -38.001c0 -40 -11.667 -70 -35 -90s-51.333 -30 -84 -30s-60.5 10 -83.5 30s-34.5 50 -34.5 90c0 12.667 1.33301 25.334 4 38.001h2c0.666992 -30 11.667 -53.833 33 -71.5s47.666 -26.5 78.999 -26.5z" />
    <glyph glyph-name="ebreve" unicode="&#x115;" horiz-adv-x="464" 
d="M429 285l-302 0.00195312v-28c0 -65.333 13.5 -116.333 40.5 -153s61.833 -55 104.5 -55c72.667 0 125.667 41 159 123l2 -1c-10.667 -59.333 -32.5 -104 -65.5 -134s-75.833 -45 -128.5 -45c-59.333 0 -108.833 20.833 -148.5 62.5s-59.5 103.167 -59.5 184.5
c0 45.333 6.33301 85.166 19 119.499s29.667 61 51 80s44 33.167 68 42.5s48.667 14 74 14c52 0 96.333 -15.667 133 -47s55 -77 55 -137c0 -6.66699 -0.666992 -15.334 -2 -26.001zM242 480.002c-32.667 0 -58.833 -15.833 -78.5 -47.5s-31.5 -75.167 -35.5 -130.5h206v2
c0 117.333 -30.667 176 -92 176zM240.001 602.002c32 0 58.668 8.83301 80.001 26.5s32.333 41.5 33 71.5h2c2.66699 -12.667 4 -25.334 4 -38.001c0 -40 -11.667 -70 -35 -90s-51.333 -30 -84 -30s-60.5 10 -83.5 30s-34.5 50 -34.5 90c0 12.667 1.33301 25.334 4 38.001h2
c0.666992 -30 11.667 -53.833 33 -71.5s47.666 -26.5 78.999 -26.5z" />
    <glyph glyph-name="Edotaccent" unicode="&#x116;" horiz-adv-x="593" 
d="M540 0l-521.998 -0.00195312v2l86 47c8.66699 4.66699 13 11.334 13 20.001v565c0 8.66699 -4.33301 15.334 -13 20.001l-86 47v2h512v-216h-2l-84 180c-6 12 -15.667 18 -29 18h-178c-6.66699 0 -11 -1.5 -13 -4.5s-3 -9.16699 -3 -18.5v-294h123
c10.667 0.666992 20 7 28 19l64 89h2v-234h-2l-64 90c-8.66699 12 -18.334 18 -29.001 18h-122v-309c0 -9.33301 1 -15.5 3 -18.5s6.33301 -4.5 13 -4.5h178c17.333 0 28.666 4.33301 33.999 13l89 182h2v-213zM253.002 829.998c0 17.333 5.66699 31.833 17 43.5
s25.333 17.5 42 17.5s30.834 -5.83301 42.501 -17.5s17.5 -26.167 17.5 -43.5c0 -16 -5.83301 -29.833 -17.5 -41.5s-25.834 -17.5 -42.501 -17.5s-30.667 5.83301 -42 17.5s-17 25.5 -17 41.5z" />
    <glyph glyph-name="edotaccent" unicode="&#x117;" horiz-adv-x="464" 
d="M429 285l-302 0.00195312v-28c0 -65.333 13.5 -116.333 40.5 -153s61.833 -55 104.5 -55c72.667 0 125.667 41 159 123l2 -1c-10.667 -59.333 -32.5 -104 -65.5 -134s-75.833 -45 -128.5 -45c-59.333 0 -108.833 20.833 -148.5 62.5s-59.5 103.167 -59.5 184.5
c0 45.333 6.33301 85.166 19 119.499s29.667 61 51 80s44 33.167 68 42.5s48.667 14 74 14c52 0 96.333 -15.667 133 -47s55 -77 55 -137c0 -6.66699 -0.666992 -15.334 -2 -26.001zM242 480.002c-32.667 0 -58.833 -15.833 -78.5 -47.5s-31.5 -75.167 -35.5 -130.5h206v2
c0 117.333 -30.667 176 -92 176zM186.001 614.002c0 17.333 5.66699 31.833 17 43.5s25.333 17.5 42 17.5s30.834 -5.83301 42.501 -17.5s17.5 -26.167 17.5 -43.5c0 -16 -5.83301 -29.833 -17.5 -41.5s-25.834 -17.5 -42.501 -17.5s-30.667 5.83301 -42 17.5
s-17 25.5 -17 41.5z" />
    <glyph glyph-name="Eogonek" unicode="&#x118;" horiz-adv-x="593" 
d="M395 -236c-25.333 0 -48.3301 9.16504 -68.9971 27.498s-31 42.833 -31 73.5c0 28.667 11.667 55.167 35 79.5s55.666 42.833 96.999 55.5h-409v2l86 47c8.66699 4.66699 13 11.334 13 20.001v565c0 8.66699 -4.33301 15.334 -13 20.001l-86 47v2h512v-216h-2l-84 180
c-6 12 -15.667 18 -29 18h-178c-6.66699 0 -11 -1.5 -13 -4.5s-3 -9.16699 -3 -18.5v-294h123c10.667 0.666992 20 7 28 19l64 89h2v-234h-2l-64 90c-8.66699 12 -18.334 18 -29.001 18h-122v-309c0 -9.33301 1 -15.5 3 -18.5s6.33301 -4.5 13 -4.5h178
c17.333 0 28.666 4.33301 33.999 13l89 182h2v-213h-111c-48.667 -26.667 -73 -63 -73 -109c0 -24 7.16699 -42.667 21.5 -56s31.833 -20 52.5 -20c31.333 0 55.333 11.667 72 35l2 -1c-24 -56.667 -60.333 -85 -109 -85z" />
    <glyph glyph-name="eogonek" unicode="&#x119;" horiz-adv-x="464" 
d="M429 285l-302 0.00195312v-28c0 -65.333 13.5 -116.333 40.5 -153s61.833 -55 104.5 -55c72.667 0 125.667 41 159 123l2 -1c-18 -99.333 -66 -157.333 -144 -174c-22.667 -8.66699 -40.667 -22.667 -54 -42s-20 -40.666 -20 -63.999c0 -24 7.16699 -42.667 21.5 -56
s31.833 -20 52.5 -20c31.333 0 55.333 11.667 72 35l2 -1c-24 -56.667 -60.333 -85 -109 -85c-25.333 0 -48.333 9.16699 -69 27.5s-31 42.833 -31 73.5c0 27.333 10.333 52.666 31 75.999s49.667 41.333 87 54c-10.667 -2 -21.667 -3 -33 -3
c-59.333 0 -108.833 20.833 -148.5 62.5s-59.5 103.167 -59.5 184.5c0 45.333 6.33301 85.166 19 119.499s29.667 61 51 80s44 33.167 68 42.5s48.667 14 74 14c52 0 96.333 -15.667 133 -47s55 -77 55 -137c0 -6.66699 -0.666992 -15.334 -2 -26.001zM242 480.002
c-32.667 0 -58.833 -15.833 -78.5 -47.5s-31.5 -75.167 -35.5 -130.5h206v2c0 117.333 -30.667 176 -92 176z" />
    <glyph glyph-name="Ecaron" unicode="&#x11a;" horiz-adv-x="593" 
d="M540 0l-521.998 -0.00195312v2l86 47c8.66699 4.66699 13 11.334 13 20.001v565c0 8.66699 -4.33301 15.334 -13 20.001l-86 47v2h512v-216h-2l-84 180c-6 12 -15.667 18 -29 18h-178c-6.66699 0 -11 -1.5 -13 -4.5s-3 -9.16699 -3 -18.5v-294h123
c10.667 0.666992 20 7 28 19l64 89h2v-234h-2l-64 90c-8.66699 12 -18.334 18 -29.001 18h-122v-309c0 -9.33301 1 -15.5 3 -18.5s6.33301 -4.5 13 -4.5h178c17.333 0 28.666 4.33301 33.999 13l89 182h2v-213zM312.002 843.998l141 76l1 -2l-141 -173h-2l-141 173l1 2z" />
    <glyph glyph-name="ecaron" unicode="&#x11b;" horiz-adv-x="464" 
d="M429 285l-302 0.00195312v-28c0 -65.333 13.5 -116.333 40.5 -153s61.833 -55 104.5 -55c72.667 0 125.667 41 159 123l2 -1c-10.667 -59.333 -32.5 -104 -65.5 -134s-75.833 -45 -128.5 -45c-59.333 0 -108.833 20.833 -148.5 62.5s-59.5 103.167 -59.5 184.5
c0 45.333 6.33301 85.166 19 119.499s29.667 61 51 80s44 33.167 68 42.5s48.667 14 74 14c52 0 96.333 -15.667 133 -47s55 -77 55 -137c0 -6.66699 -0.666992 -15.334 -2 -26.001zM242 480.002c-32.667 0 -58.833 -15.833 -78.5 -47.5s-31.5 -75.167 -35.5 -130.5h206v2
c0 117.333 -30.667 176 -92 176zM245.001 628.002l141 76l1 -2l-141 -173h-2l-141 173l1 2z" />
    <glyph glyph-name="Gcircumflex" unicode="&#x11c;" horiz-adv-x="644" 
d="M348 -10c-106 0 -184.834 32.168 -236.501 96.501s-77.5 151.833 -77.5 262.5c0 108 28.667 195.667 86 263s135.666 101 234.999 101c64.667 0 128.667 -7.33301 192 -22v-211h-2l-100 192c-4 8 -7.5 13.167 -10.5 15.5s-8.5 4.16602 -16.5 5.49902
c-16 2.66699 -32.333 4 -49 4c-142 0 -213 -115.333 -213 -346c0 -230 64.333 -345 193 -345c27.333 0 55 5 83 15c7.33301 2.66699 11 8 11 16v199c0 8 -0.5 13.167 -1.5 15.5s-4.16699 5.16602 -9.5 8.49902l-79 48v2h284v-2l-78 -47
c-5.33301 -3.33301 -8.66602 -6.16602 -9.99902 -8.49902s-2 -7.83301 -2 -16.5v-246l-96 19c-39.333 -12.667 -73.666 -19 -102.999 -19zM353.999 829.001l-141 -76l-1 2l141 173h2l141 -173l-1 -2z" />
    <glyph glyph-name="gcircumflex" unicode="&#x11d;" horiz-adv-x="480" 
d="M45 333c0 50.667 17.835 90.335 53.502 119.002s79.167 43 130.5 43c42 0 79.667 -10.667 113 -32c8 -5.33301 14 -4.66602 18 2.00098l97 131l2 -1v-150h-92c37.333 -29.333 56 -68 56 -116c0 -48.667 -18.667 -87.167 -56 -115.5s-82.333 -42.5 -135 -42.5
c-22.667 0 -42.334 2.33301 -59.001 7c-38 -10.667 -57 -28.667 -57 -54c0 -14 7.33301 -25.5 22 -34.5s36 -13.5 64 -13.5h81c56.667 0 100.667 -12.333 132 -37s47 -59 47 -103c0 -54 -23.167 -96.167 -69.5 -126.5s-102.166 -45.5 -167.499 -45.5
c-54.667 0 -102.334 10.5 -143.001 31.5s-61 50.167 -61 87.5c0 26 10.167 48.5 30.5 67.5s49.833 32.833 88.5 41.5c-26.667 4.66699 -47.334 15.167 -62.001 31.5s-22 35.166 -22 56.499c0 23.333 9.33301 44.166 28 62.499s44 31.166 76 38.499
c-34.667 10.667 -62.5 29.167 -83.5 55.5s-31.5 58.5 -31.5 96.5zM167.002 -11.999c-3.33301 0 -9 0.666992 -17 2c-40 -18 -60 -48 -60 -90c0 -37.333 15.5 -66.5 46.5 -87.5s67.167 -31.5 108.5 -31.5c42 0 77.5 9.66699 106.5 29s43.5 47.333 43.5 84
c0 56 -41.333 86 -124 90zM146.002 333.001c0 -98 29.333 -147 88 -147s88 49 88 147s-29.333 147 -88 147s-88 -49 -88 -147zM236.002 613.001l-141 -76l-1 2l141 173h2l141 -173l-1 -2z" />
    <glyph glyph-name="Gbreve" unicode="&#x11e;" horiz-adv-x="644" 
d="M348 -10c-106 0 -184.834 32.168 -236.501 96.501s-77.5 151.833 -77.5 262.5c0 108 28.667 195.667 86 263s135.666 101 234.999 101c64.667 0 128.667 -7.33301 192 -22v-211h-2l-100 192c-4 8 -7.5 13.167 -10.5 15.5s-8.5 4.16602 -16.5 5.49902
c-16 2.66699 -32.333 4 -49 4c-142 0 -213 -115.333 -213 -346c0 -230 64.333 -345 193 -345c27.333 0 55 5 83 15c7.33301 2.66699 11 8 11 16v199c0 8 -0.5 13.167 -1.5 15.5s-4.16699 5.16602 -9.5 8.49902l-79 48v2h284v-2l-78 -47
c-5.33301 -3.33301 -8.66602 -6.16602 -9.99902 -8.49902s-2 -7.83301 -2 -16.5v-246l-96 19c-39.333 -12.667 -73.666 -19 -102.999 -19zM348.999 818.001c32 0 58.668 8.83301 80.001 26.5s32.333 41.5 33 71.5h2c2.66699 -12.667 4 -25.334 4 -38.001
c0 -40 -11.667 -70 -35 -90s-51.333 -30 -84 -30s-60.5 10 -83.5 30s-34.5 50 -34.5 90c0 12.667 1.33301 25.334 4 38.001h2c0.666992 -30 11.667 -53.833 33 -71.5s47.666 -26.5 78.999 -26.5z" />
    <glyph glyph-name="gbreve" unicode="&#x11f;" horiz-adv-x="480" 
d="M45 333c0 50.667 17.835 90.335 53.502 119.002s79.167 43 130.5 43c42 0 79.667 -10.667 113 -32c8 -5.33301 14 -4.66602 18 2.00098l97 131l2 -1v-150h-92c37.333 -29.333 56 -68 56 -116c0 -48.667 -18.667 -87.167 -56 -115.5s-82.333 -42.5 -135 -42.5
c-22.667 0 -42.334 2.33301 -59.001 7c-38 -10.667 -57 -28.667 -57 -54c0 -14 7.33301 -25.5 22 -34.5s36 -13.5 64 -13.5h81c56.667 0 100.667 -12.333 132 -37s47 -59 47 -103c0 -54 -23.167 -96.167 -69.5 -126.5s-102.166 -45.5 -167.499 -45.5
c-54.667 0 -102.334 10.5 -143.001 31.5s-61 50.167 -61 87.5c0 26 10.167 48.5 30.5 67.5s49.833 32.833 88.5 41.5c-26.667 4.66699 -47.334 15.167 -62.001 31.5s-22 35.166 -22 56.499c0 23.333 9.33301 44.166 28 62.499s44 31.166 76 38.499
c-34.667 10.667 -62.5 29.167 -83.5 55.5s-31.5 58.5 -31.5 96.5zM167.002 -11.999c-3.33301 0 -9 0.666992 -17 2c-40 -18 -60 -48 -60 -90c0 -37.333 15.5 -66.5 46.5 -87.5s67.167 -31.5 108.5 -31.5c42 0 77.5 9.66699 106.5 29s43.5 47.333 43.5 84
c0 56 -41.333 86 -124 90zM146.002 333.001c0 -98 29.333 -147 88 -147s88 49 88 147s-29.333 147 -88 147s-88 -49 -88 -147zM231.002 602.001c32 0 58.668 8.83301 80.001 26.5s32.333 41.5 33 71.5h2c2.66699 -12.667 4 -25.334 4 -38.001c0 -40 -11.667 -70 -35 -90
s-51.333 -30 -84 -30s-60.5 10 -83.5 30s-34.5 50 -34.5 90c0 12.667 1.33301 25.334 4 38.001h2c0.666992 -30 11.667 -53.833 33 -71.5s47.666 -26.5 78.999 -26.5z" />
    <glyph glyph-name="Gdotaccent" unicode="&#x120;" horiz-adv-x="644" 
d="M348 -10c-106 0 -184.834 32.168 -236.501 96.501s-77.5 151.833 -77.5 262.5c0 108 28.667 195.667 86 263s135.666 101 234.999 101c64.667 0 128.667 -7.33301 192 -22v-211h-2l-100 192c-4 8 -7.5 13.167 -10.5 15.5s-8.5 4.16602 -16.5 5.49902
c-16 2.66699 -32.333 4 -49 4c-142 0 -213 -115.333 -213 -346c0 -230 64.333 -345 193 -345c27.333 0 55 5 83 15c7.33301 2.66699 11 8 11 16v199c0 8 -0.5 13.167 -1.5 15.5s-4.16699 5.16602 -9.5 8.49902l-79 48v2h284v-2l-78 -47
c-5.33301 -3.33301 -8.66602 -6.16602 -9.99902 -8.49902s-2 -7.83301 -2 -16.5v-246l-96 19c-39.333 -12.667 -73.666 -19 -102.999 -19zM294.999 830.001c0 17.333 5.66699 31.833 17 43.5s25.333 17.5 42 17.5s30.834 -5.83301 42.501 -17.5s17.5 -26.167 17.5 -43.5
c0 -16 -5.83301 -29.833 -17.5 -41.5s-25.834 -17.5 -42.501 -17.5s-30.667 5.83301 -42 17.5s-17 25.5 -17 41.5z" />
    <glyph glyph-name="gdotaccent" unicode="&#x121;" horiz-adv-x="480" 
d="M45 333c0 50.667 17.835 90.335 53.502 119.002s79.167 43 130.5 43c42 0 79.667 -10.667 113 -32c8 -5.33301 14 -4.66602 18 2.00098l97 131l2 -1v-150h-92c37.333 -29.333 56 -68 56 -116c0 -48.667 -18.667 -87.167 -56 -115.5s-82.333 -42.5 -135 -42.5
c-22.667 0 -42.334 2.33301 -59.001 7c-38 -10.667 -57 -28.667 -57 -54c0 -14 7.33301 -25.5 22 -34.5s36 -13.5 64 -13.5h81c56.667 0 100.667 -12.333 132 -37s47 -59 47 -103c0 -54 -23.167 -96.167 -69.5 -126.5s-102.166 -45.5 -167.499 -45.5
c-54.667 0 -102.334 10.5 -143.001 31.5s-61 50.167 -61 87.5c0 26 10.167 48.5 30.5 67.5s49.833 32.833 88.5 41.5c-26.667 4.66699 -47.334 15.167 -62.001 31.5s-22 35.166 -22 56.499c0 23.333 9.33301 44.166 28 62.499s44 31.166 76 38.499
c-34.667 10.667 -62.5 29.167 -83.5 55.5s-31.5 58.5 -31.5 96.5zM167.002 -11.999c-3.33301 0 -9 0.666992 -17 2c-40 -18 -60 -48 -60 -90c0 -37.333 15.5 -66.5 46.5 -87.5s67.167 -31.5 108.5 -31.5c42 0 77.5 9.66699 106.5 29s43.5 47.333 43.5 84
c0 56 -41.333 86 -124 90zM146.002 333.001c0 -98 29.333 -147 88 -147s88 49 88 147s-29.333 147 -88 147s-88 -49 -88 -147zM177.002 614.001c0 17.333 5.66699 31.833 17 43.5s25.333 17.5 42 17.5s30.834 -5.83301 42.501 -17.5s17.5 -26.167 17.5 -43.5
c0 -16 -5.83301 -29.833 -17.5 -41.5s-25.834 -17.5 -42.501 -17.5s-30.667 5.83301 -42 17.5s-17 25.5 -17 41.5z" />
    <glyph glyph-name="Gcommaaccent" unicode="&#x122;" horiz-adv-x="644" 
d="M348 -10c-106 0 -184.834 32.168 -236.501 96.501s-77.5 151.833 -77.5 262.5c0 108 28.667 195.667 86 263s135.666 101 234.999 101c64.667 0 128.667 -7.33301 192 -22v-211h-2l-100 192c-4 8 -7.5 13.167 -10.5 15.5s-8.5 4.16602 -16.5 5.49902
c-16 2.66699 -32.333 4 -49 4c-142 0 -213 -115.333 -213 -346c0 -230 64.333 -345 193 -345c27.333 0 55 5 83 15c7.33301 2.66699 11 8 11 16v199c0 8 -0.5 13.167 -1.5 15.5s-4.16699 5.16602 -9.5 8.49902l-79 48v2h284v-2l-78 -47
c-5.33301 -3.33301 -8.66602 -6.16602 -9.99902 -8.49902s-2 -7.83301 -2 -16.5v-246l-96 19c-39.333 -12.667 -73.666 -19 -102.999 -19zM295.999 -234.999l-1 2.00098c32.667 21.333 50.667 47.666 54 78.999c0.666992 6 -2.33301 9.66699 -9 11
c-13.333 2 -24 7.83301 -32 17.5s-12 21.834 -12 36.501c0 15.333 5.16699 28.166 15.5 38.499s22.833 15.5 37.5 15.5c16.667 0 30.167 -5.5 40.5 -16.5s15.5 -26.167 15.5 -45.5c0 -30.667 -10.5 -59.167 -31.5 -85.5s-46.833 -43.833 -77.5 -52.5z" />
    <glyph glyph-name="gcommaaccent" unicode="&#x123;" horiz-adv-x="480" 
d="M45 333c0 50.667 17.835 90.335 53.502 119.002s79.167 43 130.5 43c42 0 79.667 -10.667 113 -32c8 -5.33301 14 -4.66602 18 2.00098l97 131l2 -1v-150h-92c37.333 -29.333 56 -68 56 -116c0 -48.667 -18.667 -87.167 -56 -115.5s-82.333 -42.5 -135 -42.5
c-22.667 0 -42.334 2.33301 -59.001 7c-38 -10.667 -57 -28.667 -57 -54c0 -14 7.33301 -25.5 22 -34.5s36 -13.5 64 -13.5h81c56.667 0 100.667 -12.333 132 -37s47 -59 47 -103c0 -54 -23.167 -96.167 -69.5 -126.5s-102.166 -45.5 -167.499 -45.5
c-54.667 0 -102.334 10.5 -143.001 31.5s-61 50.167 -61 87.5c0 26 10.167 48.5 30.5 67.5s49.833 32.833 88.5 41.5c-26.667 4.66699 -47.334 15.167 -62.001 31.5s-22 35.166 -22 56.499c0 23.333 9.33301 44.166 28 62.499s44 31.166 76 38.499
c-34.667 10.667 -62.5 29.167 -83.5 55.5s-31.5 58.5 -31.5 96.5zM167.002 -11.999c-3.33301 0 -9 0.666992 -17 2c-40 -18 -60 -48 -60 -90c0 -37.333 15.5 -66.5 46.5 -87.5s67.167 -31.5 108.5 -31.5c42 0 77.5 9.66699 106.5 29s43.5 47.333 43.5 84
c0 56 -41.333 86 -124 90zM146.002 333.001c0 -98 29.333 -147 88 -147s88 49 88 147s-29.333 147 -88 147s-88 -49 -88 -147zM299.002 743.001l1 -2.00098c-32.667 -21.333 -50.667 -47.666 -54 -78.999c-0.666992 -6 2.33301 -9.66699 9 -11
c13.333 -2 24 -7.83301 32 -17.5s12 -21.834 12 -36.501c0 -15.333 -5.16699 -28.166 -15.5 -38.499s-22.833 -15.5 -37.5 -15.5c-16.667 0 -30.167 5.5 -40.5 16.5s-15.5 26.167 -15.5 45.5c0 30.667 10.5 59.167 31.5 85.5s46.833 43.833 77.5 52.5z" />
    <glyph glyph-name="Hcircumflex" unicode="&#x124;" horiz-adv-x="742" 
d="M625 634v-565.007c0 -6 0.666992 -10.167 2 -12.5s5 -4.83301 11 -7.5l86 -47v-2h-302v2l86 47c8.66699 4.66699 13 11.334 13 20.001v282h-300v-282c0 -6 0.666992 -10.167 2 -12.5s5 -4.83301 11 -7.5l86 -47v-2h-302v2l86 47c8.66699 4.66699 13 11.334 13 20.001v565
c0 8.66699 -4.33301 15.334 -13 20.001l-86 47v2h302v-2l-86 -47c-6 -3.33301 -9.66699 -6.16602 -11 -8.49902s-2 -6.16602 -2 -11.499v-265h300v265c0 9.33301 -4.33301 16 -13 20l-86 47v2h302v-2l-86 -47c-6 -3.33301 -9.66699 -6.16602 -11 -8.49902
s-2 -6.16602 -2 -11.499zM370 828.993l-141 -76l-1 2l141 173h2l141 -173l-1 -2z" />
    <glyph glyph-name="hcircumflex" unicode="&#x125;" horiz-adv-x="546" 
d="M464 64c0 -10 4.00098 -17.335 12.001 -22.002l68 -40v-2h-253v2l64 40c8.66699 5.33301 13 12 13 20c0 1.33301 0.333008 16 1 44s1.16699 58.167 1.5 90.5s0.5 54.5 0.5 66.5c0 60.667 -6.83301 104.834 -20.5 132.501s-35.5 41.5 -65.5 41.5
c-44 0 -79 -24.667 -105 -74v-299c0 -9.33301 4 -16.333 12 -21l67 -41v-2h-253v2l68 40c7.33301 4 11 11.333 11 22v574c0 10.667 -3.66699 18.334 -11 23.001l-68 40v2l174 20v-354c23.333 84 72.666 126 147.999 126c92 0 138 -66.667 138 -200
c0 -47.333 -0.666992 -124.333 -2 -231zM132.001 828.998l-141 -76l-1 2l141 173h2l141 -173l-1 -2z" />
    <glyph glyph-name="Hbar" unicode="&#x126;" horiz-adv-x="742" 
d="M117 477h-93v17h93v142c0 8 -4.33301 14.667 -13 20l-89 45v2h308v-2l-89 -45c-8.66699 -4 -13 -10.667 -13 -20v-142h300v142c0 9.33301 -4.33301 16 -13 20l-89 45v2h308v-2l-89 -45c-8.66699 -4 -13 -10.667 -13 -20v-142h92v-17h-92v-410
c0 -6 0.666992 -10.167 2 -12.5s5 -4.83301 11 -7.5l89 -45v-2h-308v2l89 45c6 2.66699 9.66699 5.16699 11 7.5s2 6.5 2 12.5v235h-300v-235c0 -6 0.666992 -10.167 2 -12.5s5 -4.83301 11 -7.5l89 -45v-2h-308v2l89 45c6 2.66699 9.66699 5.16699 11 7.5s2 6.5 2 12.5v410
zM221 477v-157h300v157h-300z" />
    <glyph glyph-name="hbar" unicode="&#x127;" horiz-adv-x="546" 
d="M464 64c0 -10 4.00098 -17.335 12.001 -22.002l68 -40v-2h-253v2l64 40c8.66699 5.33301 13 12 13 20c0 1.33301 0.333008 16 1 44s1.16699 58.167 1.5 90.5s0.5 54.5 0.5 66.5c0 60.667 -6.83301 104.834 -20.5 132.501s-35.5 41.5 -65.5 41.5
c-44 0 -79 -24.667 -105 -74v-299c0 -9.33301 4 -16.333 12 -21l67 -41v-2h-253v2l68 40c7.33301 4 11 11.333 11 22v497h-79v17h79v60c0 10.667 -3.66699 18.334 -11 23.001l-68 40v2l174 20v-145h145v-17h-145v-192c23.333 84 72.666 126 147.999 126
c92 0 138 -66.667 138 -200c0 -47.333 -0.666992 -124.333 -2 -231z" />
    <glyph glyph-name="Itilde" unicode="&#x128;" horiz-adv-x="338" 
d="M221 69c0 -6 0.666992 -10.1709 2 -12.5039s5 -4.83301 11 -7.5l86 -47v-2h-302v2l86 47c8.66699 4.66699 13 11.334 13 20.001v565c0 8.66699 -4.33301 15.334 -13 20.001l-86 47v2h302v-2l-86 -47c-6 -3.33301 -9.66699 -6.16602 -11 -8.49902s-2 -6.16602 -2 -11.499
v-565zM300 887.996l2.00195 -1c0 -13.333 -1 -25.666 -3 -36.999c-9.33301 -48.667 -32.666 -73 -69.999 -73c-14.667 0 -36.834 7.83301 -66.501 23.5s-51.5 23.5 -65.5 23.5c-26.667 0 -46.667 -16 -60 -48l-2 1c0 11.333 1 22.666 3 33.999
c9.33301 50.667 32.666 76 69.999 76c14.667 0 36.667 -7.83301 66 -23.5s51 -23.5 65 -23.5c27.333 0 47.666 16 60.999 48z" />
    <glyph glyph-name="itilde" unicode="&#x129;" horiz-adv-x="286" 
d="M198 487v-423c0 -9.33301 4 -16.333 12 -21l67 -41v-2h-253v2l68 40c7.33301 4 11 11.333 11 22v348c0 10 -3.66699 17.667 -11 23l-68 50v2h174zM264 672l2.00195 -0.999023c0 -14 -1 -26.333 -3 -37c-9.33301 -48.667 -32.666 -73 -69.999 -73
c-14.667 0 -36.834 7.83301 -66.501 23.5s-51.5 23.5 -65.5 23.5c-26.667 0 -46.667 -16 -60 -48l-2 1c0 11.333 1 22.666 3 33.999c9.33301 50.667 32.666 76 69.999 76c14.667 0 36.667 -7.83301 66 -23.5s51 -23.5 65 -23.5c27.333 0 47.666 16 60.999 48z" />
    <glyph glyph-name="Imacron" unicode="&#x12a;" horiz-adv-x="338" 
d="M221 69c0 -6 0.666992 -10.1709 2 -12.5039s5 -4.83301 11 -7.5l86 -47v-2h-302v2l86 47c8.66699 4.66699 13 11.334 13 20.001v565c0 8.66699 -4.33301 15.334 -13 20.001l-86 47v2h302v-2l-86 -47c-6 -3.33301 -9.66699 -6.16602 -11 -8.49902s-2 -6.16602 -2 -11.499
v-565zM288 806.996h-246v18h246v-18z" />
    <glyph glyph-name="imacron" unicode="&#x12b;" horiz-adv-x="286" 
d="M198 487v-423c0 -9.33301 4 -16.333 12 -21l67 -41v-2h-253v2l68 40c7.33301 4 11 11.333 11 22v348c0 10 -3.66699 17.667 -11 23l-68 50v2h174zM252 591h-246v18h246v-18z" />
    <glyph glyph-name="Ibreve" unicode="&#x12c;" horiz-adv-x="338" 
d="M221 69c0 -6 0.666992 -10.1709 2 -12.5039s5 -4.83301 11 -7.5l86 -47v-2h-302v2l86 47c8.66699 4.66699 13 11.334 13 20.001v565c0 8.66699 -4.33301 15.334 -13 20.001l-86 47v2h302v-2l-86 -47c-6 -3.33301 -9.66699 -6.16602 -11 -8.49902s-2 -6.16602 -2 -11.499
v-565zM163 817.996c32 0 58.668 8.83301 80.001 26.5s32.333 41.5 33 71.5h2c2.66699 -12.667 4 -25.334 4 -38.001c0 -40 -11.667 -70 -35 -90s-51.333 -30 -84 -30s-60.5 10 -83.5 30s-34.5 50 -34.5 90c0 12.667 1.33301 25.334 4 38.001h2
c0.666992 -30 11.667 -53.833 33 -71.5s47.666 -26.5 78.999 -26.5z" />
    <glyph glyph-name="ibreve" unicode="&#x12d;" horiz-adv-x="286" 
d="M198 487v-423c0 -9.33301 4 -16.333 12 -21l67 -41v-2h-253v2l68 40c7.33301 4 11 11.333 11 22v348c0 10 -3.66699 17.667 -11 23l-68 50v2h174zM127 602c32 0 58.668 8.83301 80.001 26.5s32.333 41.5 33 71.5h2c2.66699 -12.667 4 -25.334 4 -38.001
c0 -40 -11.667 -70 -35 -90s-51.333 -30 -84 -30s-60.5 10 -83.5 30s-34.5 50 -34.5 90c0 12.667 1.33301 25.334 4 38.001h2c0.666992 -30 11.667 -53.833 33 -71.5s47.666 -26.5 78.999 -26.5z" />
    <glyph glyph-name="Iogonek" unicode="&#x12e;" horiz-adv-x="338" 
d="M131 -109c0 -24 7.16699 -42.6699 21.5 -56.0029s31.833 -20 52.5 -20c31.333 0 55.333 11.667 72 35l2 -1c-24 -56.667 -60.333 -85 -109 -85c-25.333 0 -48.333 9.16699 -69 27.5s-31 42.833 -31 73.5c0 29.333 11 56.666 33 81.999s52.333 43 91 53h-176v2l86 47
c8.66699 4.66699 13 11.334 13 20.001v565c0 8.66699 -4.33301 15.334 -13 20.001l-86 47v2h302v-2l-86 -47c-6 -3.33301 -9.66699 -6.16602 -11 -8.49902s-2 -6.16602 -2 -11.499v-565c0 -6 0.666992 -10.167 2 -12.5s5 -4.83301 11 -7.5l86 -47v-2h-117
c-48 -22.667 -72 -59 -72 -109z" />
    <glyph glyph-name="iogonek" unicode="&#x12f;" horiz-adv-x="286" 
d="M150 -236c-25.333 0 -48.333 9.16797 -69 27.501s-31 42.833 -31 73.5c0 29.333 11 56.666 33 81.999s52.333 43 91 53h-151v2l68 40c7.33301 4 11 11.333 11 22v348c0 10 -3.66699 17.667 -11 23l-68 50v2h174v-423c0 -9.33301 4 -16.333 12 -21l67 -41v-2h-93
c-48 -22.667 -72 -59 -72 -109c0 -24 7.16699 -42.667 21.5 -56s31.833 -20 52.5 -20c31.333 0 55.333 11.667 72 35l2 -1c-24 -56.667 -60.333 -85 -109 -85zM142 562.001c-16.667 0 -30.667 5.83301 -42 17.5s-17 25.5 -17 41.5c0 17.333 5.66699 31.833 17 43.5
s25.333 17.5 42 17.5s30.834 -5.83301 42.501 -17.5s17.5 -26.167 17.5 -43.5c0 -16 -5.83301 -29.833 -17.5 -41.5s-25.834 -17.5 -42.501 -17.5z" />
    <glyph glyph-name="Idotaccent" unicode="&#x130;" horiz-adv-x="338" 
d="M221 69c0 -6 0.666992 -10.1709 2 -12.5039s5 -4.83301 11 -7.5l86 -47v-2h-302v2l86 47c8.66699 4.66699 13 11.334 13 20.001v565c0 8.66699 -4.33301 15.334 -13 20.001l-86 47v2h302v-2l-86 -47c-6 -3.33301 -9.66699 -6.16602 -11 -8.49902s-2 -6.16602 -2 -11.499
v-565zM109 829.996c0 17.333 5.66699 31.833 17 43.5s25.333 17.5 42 17.5s30.834 -5.83301 42.501 -17.5s17.5 -26.167 17.5 -43.5c0 -16 -5.83301 -29.833 -17.5 -41.5s-25.834 -17.5 -42.501 -17.5s-30.667 5.83301 -42 17.5s-17 25.5 -17 41.5z" />
    <glyph glyph-name="dotlessi" unicode="&#x131;" horiz-adv-x="286" 
d="M198 487v-423c0 -9.33301 4 -16.333 12 -21l67 -41v-2h-253v2l68 40c7.33301 4 11 11.333 11 22v348c0 10 -3.66699 17.667 -11 23l-68 50v2h174z" />
    <glyph glyph-name="IJ" unicode="&#x132;" horiz-adv-x="646" 
d="M221 69c0 -6 0.666992 -10.1709 2 -12.5039s5 -4.83301 11 -7.5l86 -47v-2h-302v2l86 47c8.66699 4.66699 13 11.334 13 20.001v565c0 8.66699 -4.33301 15.334 -13 20.001l-86 47v2h302v-2l-86 -47c-6 -3.33301 -9.66699 -6.16602 -11 -8.49902s-2 -6.16602 -2 -11.499
v-565zM544 633.996v-607.004c0 -68 -20.333 -122 -61 -162s-94 -65.333 -160 -76l-1 2c41.333 19.333 71.333 49.833 90 91.5s28 88.834 28 141.501v610c0 8.66699 -4.33301 15.334 -13 20.001l-86 47v2h302v-2l-86 -47c-6 -3.33301 -9.66699 -6.16602 -11 -8.49902
s-2 -6.16602 -2 -11.499z" />
    <glyph glyph-name="ij" unicode="&#x133;" horiz-adv-x="545" 
d="M143 562c-16.667 0 -30.667 5.83301 -42 17.5s-17 25.5 -17 41.5c0 17.333 5.66699 31.833 17 43.5s25.333 17.5 42 17.5s30.834 -5.83301 42.501 -17.5s17.5 -26.167 17.5 -43.5c0 -16 -5.83301 -29.833 -17.5 -41.5s-25.834 -17.5 -42.501 -17.5zM24 487h174v-423
c0 -9.33301 4 -16.333 12 -21l67 -41v-2h-253v2l68 40c7.33301 4 11 11.333 11 22v348c0 10 -3.66699 17.667 -11 23l-68 50v2zM300 487h174.001v-467c0 -67.333 -15.833 -123 -47.5 -167s-78.834 -66 -141.501 -66c-8 0 -20.667 1.33301 -38 4v2c44 4 77 21.333 99 52
s33 80.667 33 150v417c0 10 -3.66699 17.667 -11 23l-68 50v2zM360.001 621c0 17.333 5.66699 31.833 17 43.5s25.333 17.5 42 17.5s30.834 -5.83301 42.501 -17.5s17.5 -26.167 17.5 -43.5c0 -16 -5.83301 -29.833 -17.5 -41.5s-25.834 -17.5 -42.501 -17.5
s-30.667 5.83301 -42 17.5s-17 25.5 -17 41.5z" />
    <glyph glyph-name="Jcircumflex" unicode="&#x134;" horiz-adv-x="308" 
d="M206 634v-607.004c0 -68 -20.333 -122 -61 -162s-94 -65.333 -160 -76l-1 2c41.333 19.333 71.333 49.833 90 91.5s28 88.834 28 141.501v610c0 8.66699 -4.33301 15.334 -13 20.001l-86 47v2h302v-2l-86 -47c-6 -3.33301 -9.66699 -6.16602 -11 -8.49902
s-2 -6.16602 -2 -11.499zM154 828.996l-141 -76l-1 2l141 173h2l141 -173l-1 -2z" />
    <glyph glyph-name="jcircumflex" unicode="&#x135;" horiz-adv-x="259" 
d="M-1 -213c-14 0 -26.666 1.33301 -37.999 4v2c44 4 77 21.333 99 52s33 80.667 33 150v417c0 10 -3.66699 17.667 -11 23l-68 50v2h174v-467c0 -67.333 -15.833 -123 -47.5 -167s-78.834 -66 -141.501 -66zM128.001 613l-141 -76l-1 2l141 173h2l141 -173l-1 -2z" />
    <glyph glyph-name="Kcommaaccent" unicode="&#x136;" horiz-adv-x="647" 
d="M221 634v-565.004c0 -6 0.666992 -10.167 2 -12.5s5 -4.83301 11 -7.5l86 -47v-2h-302v2l86 47c8.66699 4.66699 13 11.334 13 20.001v565c0 8.66699 -4.33301 15.334 -13 20.001l-86 47v2h302v-2l-86 -47c-6 -3.33301 -9.66699 -6.16602 -11 -8.49902
s-2 -6.16602 -2 -11.499zM508 610.996l-193.001 -198.999l239 -322c8.66699 -10.667 19.334 -21.334 32.001 -32.001l70 -56v-2h-164l-261 353l257 264c10 10 8.66699 18.667 -4 26l-86 58v2h262v-2l-110 -60c-16.667 -8.66699 -30.667 -18.667 -42 -30zM313.999 -235.003
l-1 2.00098c32.667 21.333 50.667 47.666 54 78.999c0.666992 6 -2.33301 9.66699 -9 11c-13.333 2 -24 7.83301 -32 17.5s-12 21.834 -12 36.501c0 15.333 5.16699 28.166 15.5 38.499s22.833 15.5 37.5 15.5c16.667 0 30.167 -5.5 40.5 -16.5s15.5 -26.167 15.5 -45.5
c0 -30.667 -10.5 -59.167 -31.5 -85.5s-46.833 -43.833 -77.5 -52.5z" />
    <glyph glyph-name="kcommaaccent" unicode="&#x137;" horiz-adv-x="505" 
d="M205 265c-7.33301 0 -15.332 -3.33496 -23.999 -10.002v-191c0 -9.33301 4 -16.333 12 -21l67 -41v-2h-253v2l68 40c7.33301 4 11 11.333 11 22v574c0 10.667 -3.66699 18.334 -11 23.001l-68 40v2l174 20v-459l194 147c5.33301 4.66699 5.33301 9.33398 0 14.001l-74 60
v2h200v-2l-196 -148c-6.66699 -4.66699 -8.33398 -10 -5.00098 -16l136 -252c5.33301 -11.333 13 -20.333 23 -27l58 -40v-2h-156l-129 247c-6.66699 12 -15.667 18 -27 18zM232.001 -235.002l-1 2.00098c32.667 21.333 50.667 47.666 54 78.999
c0.666992 6 -2.33301 9.66699 -9 11c-13.333 2 -24 7.83301 -32 17.5s-12 21.834 -12 36.501c0 15.333 5.16699 28.166 15.5 38.499s22.833 15.5 37.5 15.5c16.667 0 30.167 -5.5 40.5 -16.5s15.5 -26.167 15.5 -45.5c0 -30.667 -10.5 -59.167 -31.5 -85.5
s-46.833 -43.833 -77.5 -52.5z" />
    <glyph glyph-name="kgreenlandic" unicode="&#x138;" horiz-adv-x="521" 
d="M533 0l-155.999 -0.000976562l-129 247c-6.66699 12 -15.667 18 -27 18c-7.33301 0 -15.333 -3.33301 -24 -10v-191c0 -9.33301 4 -16.333 12 -21l67 -41v-2h-253v2l68 40c7.33301 4 11 11.333 11 22v348c0 10 -3.66699 17.667 -11 23l-68 50v2h174v-223l194 147
c5.33301 4.66699 5.33301 9.33398 0 14.001l-74 60v2h200v-2l-196 -148c-6.66699 -4.66699 -8.33398 -10 -5.00098 -16l136 -252c5.33301 -11.333 13 -20.333 23 -27l58 -40v-2z" />
    <glyph glyph-name="Lacute" unicode="&#x139;" horiz-adv-x="555" 
d="M117 69v564.996c0 8.66699 -4.33301 15.334 -13 20.001l-86 47v2h302v-2l-86 -47c-6 -3.33301 -9.66699 -6.16602 -11 -8.49902s-2 -6.16602 -2 -11.499v-593c0 -9.33301 1 -15.5 3 -18.5s6.33301 -4.5 13 -4.5h158c18 0 29.333 4.33301 34 13l94 193h2v-224h-507v2
l86 47c8.66699 4.66699 13 11.334 13 20.001zM196 918.996h121v-2l-208 -161l-2 2z" />
    <glyph glyph-name="lacute" unicode="&#x13a;" horiz-adv-x="267" 
d="M181 723v-659.001c0 -9.33301 4 -16.333 12 -21l67 -41v-2h-253v2l68 40c7.33301 4 11 11.333 11 22v574c0 10.667 -3.66699 18.334 -11 23.001l-68 40v2zM161 918.999h121v-2l-208 -161l-2 2z" />
    <glyph glyph-name="Lcommaaccent" unicode="&#x13b;" horiz-adv-x="555" 
d="M117 69v564.996c0 8.66699 -4.33301 15.334 -13 20.001l-86 47v2h302v-2l-86 -47c-6 -3.33301 -9.66699 -6.16602 -11 -8.49902s-2 -6.16602 -2 -11.499v-593c0 -9.33301 1 -15.5 3 -18.5s6.33301 -4.5 13 -4.5h158c18 0 29.333 4.33301 34 13l94 193h2v-224h-507v2
l86 47c8.66699 4.66699 13 11.334 13 20.001zM256 -235.004l-1 2.00098c32.667 21.333 50.667 47.666 54 78.999c0.666992 6 -2.33301 9.66699 -9 11c-13.333 2 -24 7.83301 -32 17.5s-12 21.834 -12 36.501c0 15.333 5.16699 28.166 15.5 38.499s22.833 15.5 37.5 15.5
c16.667 0 30.167 -5.5 40.5 -16.5s15.5 -26.167 15.5 -45.5c0 -30.667 -10.5 -59.167 -31.5 -85.5s-46.833 -43.833 -77.5 -52.5z" />
    <glyph glyph-name="lcommaaccent" unicode="&#x13c;" horiz-adv-x="267" 
d="M181 723v-659.001c0 -9.33301 4 -16.333 12 -21l67 -41v-2h-253v2l68 40c7.33301 4 11 11.333 11 22v574c0 10.667 -3.66699 18.334 -11 23.001l-68 40v2zM81 -235.001l-1 2.00098c32.667 21.333 50.667 47.666 54 78.999c0.666992 6 -2.33301 9.66699 -9 11
c-13.333 2 -24 7.83301 -32 17.5s-12 21.834 -12 36.501c0 15.333 5.16699 28.166 15.5 38.499s22.833 15.5 37.5 15.5c16.667 0 30.167 -5.5 40.5 -16.5s15.5 -26.167 15.5 -45.5c0 -30.667 -10.5 -59.167 -31.5 -85.5s-46.833 -43.833 -77.5 -52.5z" />
    <glyph glyph-name="Lcaron" unicode="&#x13d;" horiz-adv-x="552" 
d="M117 69v564.996c0 8.66699 -4.33301 15.334 -13 20.001l-86 47v2h302v-2l-86 -47c-6 -3.33301 -9.66699 -6.16602 -11 -8.49902s-2 -6.16602 -2 -11.499v-593c0 -9.33301 1 -15.5 3 -18.5s6.33301 -4.5 13 -4.5h158c18 0 29.333 4.33301 34 13l94 193h2v-224h-507v2
l86 47c8.66699 4.66699 13 11.334 13 20.001zM382 511.996h-1l9 191h92z" />
    <glyph glyph-name="lcaron" unicode="&#x13e;" horiz-adv-x="284" 
d="M181 723v-659.001c0 -9.33301 4 -16.333 12 -21l67 -41v-2h-253v2l68 40c7.33301 4 11 11.333 11 22v574c0 10.667 -3.66699 18.334 -11 23.001l-68 40v2zM234 511.999h-1l9 191h92z" />
    <glyph glyph-name="Ldot" unicode="&#x13f;" horiz-adv-x="564" 
d="M117 69v564.996c0 8.66699 -4.33301 15.334 -13 20.001l-86 47v2h302v-2l-86 -47c-6 -3.33301 -9.66699 -6.16602 -11 -8.49902s-2 -6.16602 -2 -11.499v-593c0 -9.33301 1 -15.5 3 -18.5s6.33301 -4.5 13 -4.5h158c18 0 29.333 4.33301 34 13l94 193h2v-224h-507v2
l86 47c8.66699 4.66699 13 11.334 13 20.001zM354 381.996c0 17.333 5.66699 31.833 17 43.5s25.333 17.5 42 17.5s30.834 -5.83301 42.501 -17.5s17.5 -26.167 17.5 -43.5c0 -16 -5.83301 -29.833 -17.5 -41.5s-25.834 -17.5 -42.501 -17.5s-30.667 5.83301 -42 17.5
s-17 25.5 -17 41.5z" />
    <glyph glyph-name="ldot" unicode="&#x140;" horiz-adv-x="353" 
d="M181 723v-659.001c0 -9.33301 4 -16.333 12 -21l67 -41v-2h-253v2l68 40c7.33301 4 11 11.333 11 22v574c0 10.667 -3.66699 18.334 -11 23.001l-68 40v2zM233 351.999c0 17.333 5.66699 31.833 17 43.5s25.333 17.5 42 17.5s30.834 -5.83301 42.501 -17.5
s17.5 -26.167 17.5 -43.5c0 -16 -5.83301 -29.833 -17.5 -41.5s-25.834 -17.5 -42.501 -17.5s-30.667 5.83301 -42 17.5s-17 25.5 -17 41.5z" />
    <glyph glyph-name="Lslash" unicode="&#x141;" horiz-adv-x="559" 
d="M529 0l-507 -0.00390625v2l86 47c8.66699 4.66699 13 11.334 13 20.001v234l-86 -37l-7 15l93 40v313c0 8.66699 -4.33301 15.334 -13 20.001l-86 47v2h302v-2l-86 -47c-6 -3.33301 -9.66699 -6.16602 -11 -8.49902s-2 -6.16602 -2 -11.499v-269l127 55l7 -15l-134 -58
v-306c0 -9.33301 1 -15.5 3 -18.5s6.33301 -4.5 13 -4.5h158c18 0 29.333 4.33301 34 13l94 193h2v-224z" />
    <glyph glyph-name="lslash" unicode="&#x142;" horiz-adv-x="287" 
d="M307 420l7 -15.001l-123 -53v-288c0 -9.33301 4 -16.333 12 -21l67 -41v-2h-253v2l68 40c7.33301 4 11 11.333 11 22v247l-106 -45l-7 15l113 48v309c0 10.667 -3.66699 18.334 -11 23.001l-68 40v2l174 20v-353z" />
    <glyph glyph-name="Nacute" unicode="&#x143;" horiz-adv-x="682" 
d="M576 602v-602h-69l-367 600v-499c0 -12.667 5.33301 -22.667 16 -30l95 -69v-2h-241v2l95 69c10.667 7.33301 16 17.333 16 30v507c0 14.667 -4.33301 26 -13 34l-84 59v2h175l358 -587v486c0 12 -5.33301 22 -16 30l-95 69v2h241v-2l-95 -69
c-10.667 -7.33301 -16 -17.333 -16 -30zM375 919h121v-2l-208 -161l-2 2z" />
    <glyph glyph-name="nacute" unicode="&#x144;" horiz-adv-x="564" 
d="M483 295c0 -47.333 -0.666016 -124.334 -1.99902 -231.001c0 -10 4 -17.333 12 -22l68 -40v-2h-253v2l64 40c8.66699 5.33301 13 12 13 20c0 1.33301 0.166992 16 0.5 44s0.833008 58.167 1.5 90.5s1 54.5 1 66.5c0 60.667 -7 104.834 -21 132.501s-35.667 41.5 -65 41.5
c-44 0 -79 -24.667 -105 -74v-299c0 -9.33301 4 -16.333 12 -21l67 -41v-2h-253v2l68 40c7.33301 4 11 11.333 11 22v348c0 10 -3.66699 17.667 -11 23l-68 50v2h174v-118c23.333 84 72.666 126 147.999 126c92 0 138 -66.667 138 -200zM312.001 702.999h121v-2l-208 -161
l-2 2z" />
    <glyph glyph-name="Ncommaaccent" unicode="&#x145;" horiz-adv-x="682" 
d="M576 602v-602h-69l-367 600v-499c0 -12.667 5.33301 -22.667 16 -30l95 -69v-2h-241v2l95 69c10.667 7.33301 16 17.333 16 30v507c0 14.667 -4.33301 26 -13 34l-84 59v2h175l358 -587v486c0 12 -5.33301 22 -16 30l-95 69v2h241v-2l-95 -69
c-10.667 -7.33301 -16 -17.333 -16 -30zM295 -235l-1 2.00098c32.667 21.333 50.667 47.666 54 78.999c0.666992 6 -2.33301 9.66699 -9 11c-13.333 2 -24 7.83301 -32 17.5s-12 21.834 -12 36.501c0 15.333 5.16699 28.166 15.5 38.499s22.833 15.5 37.5 15.5
c16.667 0 30.167 -5.5 40.5 -16.5s15.5 -26.167 15.5 -45.5c0 -30.667 -10.5 -59.167 -31.5 -85.5s-46.833 -43.833 -77.5 -52.5z" />
    <glyph glyph-name="ncommaaccent" unicode="&#x146;" horiz-adv-x="564" 
d="M483 295c0 -47.333 -0.666016 -124.334 -1.99902 -231.001c0 -10 4 -17.333 12 -22l68 -40v-2h-253v2l64 40c8.66699 5.33301 13 12 13 20c0 1.33301 0.166992 16 0.5 44s0.833008 58.167 1.5 90.5s1 54.5 1 66.5c0 60.667 -7 104.834 -21 132.501s-35.667 41.5 -65 41.5
c-44 0 -79 -24.667 -105 -74v-299c0 -9.33301 4 -16.333 12 -21l67 -41v-2h-253v2l68 40c7.33301 4 11 11.333 11 22v348c0 10 -3.66699 17.667 -11 23l-68 50v2h174v-118c23.333 84 72.666 126 147.999 126c92 0 138 -66.667 138 -200zM239.001 -235.001l-1 2.00098
c32.667 21.333 50.667 47.666 54 78.999c0.666992 6 -2.33301 9.66699 -9 11c-13.333 2 -24 7.83301 -32 17.5s-12 21.834 -12 36.501c0 15.333 5.16699 28.166 15.5 38.499s22.833 15.5 37.5 15.5c16.667 0 30.167 -5.5 40.5 -16.5s15.5 -26.167 15.5 -45.5
c0 -30.667 -10.5 -59.167 -31.5 -85.5s-46.833 -43.833 -77.5 -52.5z" />
    <glyph glyph-name="Ncaron" unicode="&#x147;" horiz-adv-x="682" 
d="M576 602v-602h-69l-367 600v-499c0 -12.667 5.33301 -22.667 16 -30l95 -69v-2h-241v2l95 69c10.667 7.33301 16 17.333 16 30v507c0 14.667 -4.33301 26 -13 34l-84 59v2h175l358 -587v486c0 12 -5.33301 22 -16 30l-95 69v2h241v-2l-95 -69
c-10.667 -7.33301 -16 -17.333 -16 -30zM347 844l141 76l1 -2l-141 -173h-2l-141 173l1 2z" />
    <glyph glyph-name="ncaron" unicode="&#x148;" horiz-adv-x="564" 
d="M483 295c0 -47.333 -0.666016 -124.334 -1.99902 -231.001c0 -10 4 -17.333 12 -22l68 -40v-2h-253v2l64 40c8.66699 5.33301 13 12 13 20c0 1.33301 0.166992 16 0.5 44s0.833008 58.167 1.5 90.5s1 54.5 1 66.5c0 60.667 -7 104.834 -21 132.501s-35.667 41.5 -65 41.5
c-44 0 -79 -24.667 -105 -74v-299c0 -9.33301 4 -16.333 12 -21l67 -41v-2h-253v2l68 40c7.33301 4 11 11.333 11 22v348c0 10 -3.66699 17.667 -11 23l-68 50v2h174v-118c23.333 84 72.666 126 147.999 126c92 0 138 -66.667 138 -200zM284.001 627.999l141 76l1 -2
l-141 -173h-2l-141 173l1 2z" />
    <glyph glyph-name="napostrophe" unicode="&#x149;" horiz-adv-x="595" 
d="M514 295c0 -47.333 -0.666016 -124.334 -1.99902 -231.001c0 -10 4 -17.333 12 -22l68 -40v-2h-253v2l64 40c8.66699 5.33301 13 12 13 20c0 1.33301 0.333008 16 1 44s1.16699 58.167 1.5 90.5s0.5 54.5 0.5 66.5c0 60.667 -6.83301 104.834 -20.5 132.501
s-35.5 41.5 -65.5 41.5c-44 0 -79 -24.667 -105 -74v-299c0 -9.33301 4 -16.333 12 -21l67 -41v-2h-253v2l68 40c7.33301 4 11 11.333 11 22v348c0 10 -3.66699 17.667 -11 23l-68 50v2h174v-118c23.333 84 72.666 126 147.999 126c92 0 138 -66.667 138 -200z
M-28.999 485.999l-1 2.00098c32.667 21.333 50.667 47.666 54 78.999c0.666992 6 -2.33301 9.66699 -9 11c-13.333 2 -24 7.83301 -32 17.5s-12 21.834 -12 36.501c0 15.333 5.16699 28.166 15.5 38.499s22.833 15.5 37.5 15.5c16.667 0 30.167 -5.5 40.5 -16.5
s15.5 -26.167 15.5 -45.5c0 -30.667 -10.5 -59.167 -31.5 -85.5s-46.833 -43.833 -77.5 -52.5z" />
    <glyph glyph-name="Eng" unicode="&#x14a;" horiz-adv-x="632" 
d="M221 578l-0.000976562 -509.002c0 -6 0.666992 -10.167 2 -12.5s5 -4.83301 11 -7.5l86 -47v-2h-302v2l86 47c8.66699 4.66699 13 11.334 13 20.001v565c0 8.66699 -4.33301 15.334 -13 20.001l-86 47v2h203v-120c12 42 34 74 66 96s67.667 33 107 33
c52.667 0 96.334 -17 131.001 -51s52 -83.667 52 -149v-468c0 -78 -19.5 -139.667 -58.5 -185s-93.167 -68 -162.5 -68v2c84.667 18 127 82 127 192v505c0 109.333 -44 164 -132 164c-24 0 -48.833 -7.16699 -74.5 -21.5s-44.167 -32.5 -55.5 -54.5z" />
    <glyph glyph-name="eng" unicode="&#x14b;" horiz-adv-x="543" 
d="M389 -15l-0.999023 277.999c0 60.667 -7 104.834 -21 132.501s-35.667 41.5 -65 41.5c-44 0 -79 -24.667 -105 -74v-299c0 -9.33301 4 -16.333 12 -21l67 -41v-2h-253v2l68 40c7.33301 4 11 11.333 11 22v348c0 10 -3.66699 17.667 -11 23l-68 50v2h174v-118
c23.333 84 72.666 126 147.999 126c92 0 138 -66.667 138 -200v-251c0 -77.333 -20.333 -138.833 -61 -184.5s-96 -68.5 -166 -68.5v2c42.667 8.66699 75.5 29.5 98.5 62.5s34.5 76.167 34.5 129.5z" />
    <glyph glyph-name="Omacron" unicode="&#x14c;" horiz-adv-x="689" 
d="M345 6c57.333 0 103.166 27.666 137.499 82.999s51.5 143 51.5 263s-17.167 207.333 -51.5 262s-80.166 82.334 -137.499 83.001c-57.333 0 -103.166 -27.5 -137.499 -82.5s-51.5 -142.5 -51.5 -262.5s17.167 -207.5 51.5 -262.5s80.166 -82.833 137.499 -83.5z
M345 712.999c98 0 173.833 -32 227.5 -96s80.5 -152.333 80.5 -265s-26.833 -201.167 -80.5 -265.5s-129.5 -96.5 -227.5 -96.5s-174 32.167 -228 96.5s-81 152.833 -81 265.5s27 201 81 265s130 96 228 96zM464 806.999h-246v18h246v-18z" />
    <glyph glyph-name="omacron" unicode="&#x14d;" horiz-adv-x="508" 
d="M254 480c-75.333 0 -113 -78.667 -113 -236c0 -158 37.667 -237 113 -237s113 79 113 237c0 157.333 -37.667 236 -113 236zM254 -8c-68.667 0 -122.834 22.167 -162.501 66.5s-59.5 106.166 -59.5 185.499s19.833 141 59.5 185s93.834 66 162.501 66
s122.834 -22 162.501 -66s59.5 -105.667 59.5 -185s-19.833 -141.166 -59.5 -185.499s-93.834 -66.5 -162.501 -66.5zM373 591h-246v18h246v-18z" />
    <glyph glyph-name="Obreve" unicode="&#x14e;" horiz-adv-x="689" 
d="M345 6c57.333 0 103.166 27.666 137.499 82.999s51.5 143 51.5 263s-17.167 207.333 -51.5 262s-80.166 82.334 -137.499 83.001c-57.333 0 -103.166 -27.5 -137.499 -82.5s-51.5 -142.5 -51.5 -262.5s17.167 -207.5 51.5 -262.5s80.166 -82.833 137.499 -83.5z
M345 712.999c98 0 173.833 -32 227.5 -96s80.5 -152.333 80.5 -265s-26.833 -201.167 -80.5 -265.5s-129.5 -96.5 -227.5 -96.5s-174 32.167 -228 96.5s-81 152.833 -81 265.5s27 201 81 265s130 96 228 96zM339 817.999c32 0 58.668 8.83301 80.001 26.5
s32.333 41.5 33 71.5h2c2.66699 -12.667 4 -25.334 4 -38.001c0 -40 -11.667 -70 -35 -90s-51.333 -30 -84 -30s-60.5 10 -83.5 30s-34.5 50 -34.5 90c0 12.667 1.33301 25.334 4 38.001h2c0.666992 -30 11.667 -53.833 33 -71.5s47.666 -26.5 78.999 -26.5z" />
    <glyph glyph-name="obreve" unicode="&#x14f;" horiz-adv-x="508" 
d="M254 480c-75.333 0 -113 -78.667 -113 -236c0 -158 37.667 -237 113 -237s113 79 113 237c0 157.333 -37.667 236 -113 236zM254 -8c-68.667 0 -122.834 22.167 -162.501 66.5s-59.5 106.166 -59.5 185.499s19.833 141 59.5 185s93.834 66 162.501 66
s122.834 -22 162.501 -66s59.5 -105.667 59.5 -185s-19.833 -141.166 -59.5 -185.499s-93.834 -66.5 -162.501 -66.5zM248 602c32 0 58.668 8.83301 80.001 26.5s32.333 41.5 33 71.5h2c2.66699 -12.667 4 -25.334 4 -38.001c0 -40 -11.667 -70 -35 -90s-51.333 -30 -84 -30
s-60.5 10 -83.5 30s-34.5 50 -34.5 90c0 12.667 1.33301 25.334 4 38.001h2c0.666992 -30 11.667 -53.833 33 -71.5s47.666 -26.5 78.999 -26.5z" />
    <glyph glyph-name="Ohungarumlaut" unicode="&#x150;" horiz-adv-x="689" 
d="M345 6c57.333 0 103.166 27.666 137.499 82.999s51.5 143 51.5 263s-17.167 207.333 -51.5 262s-80.166 82.334 -137.499 83.001c-57.333 0 -103.166 -27.5 -137.499 -82.5s-51.5 -142.5 -51.5 -262.5s17.167 -207.5 51.5 -262.5s80.166 -82.833 137.499 -83.5z
M345 712.999c98 0 173.833 -32 227.5 -96s80.5 -152.333 80.5 -265s-26.833 -201.167 -80.5 -265.5s-129.5 -96.5 -227.5 -96.5s-174 32.167 -228 96.5s-81 152.833 -81 265.5s27 201 81 265s130 96 228 96zM306 918.999h102v-2l-165 -169h-2zM443 918.999h102v-2l-165 -169
h-2z" />
    <glyph glyph-name="ohungarumlaut" unicode="&#x151;" horiz-adv-x="508" 
d="M254 480c-75.333 0 -113 -78.667 -113 -236c0 -158 37.667 -237 113 -237s113 79 113 237c0 157.333 -37.667 236 -113 236zM254 -8c-68.667 0 -122.834 22.167 -162.501 66.5s-59.5 106.166 -59.5 185.499s19.833 141 59.5 185s93.834 66 162.501 66
s122.834 -22 162.501 -66s59.5 -105.667 59.5 -185s-19.833 -141.166 -59.5 -185.499s-93.834 -66.5 -162.501 -66.5zM215 703h102v-2l-165 -169h-2zM352 703h102v-2l-165 -169h-2z" />
    <glyph glyph-name="OE" unicode="&#x152;" horiz-adv-x="961" 
d="M804 240l-53.998 89.999c-7.33301 12 -17 18 -29 18h-132v-306c0 -11.333 1.5 -18.166 4.5 -20.499s11.833 -3.5 26.5 -3.5h163c17.333 0 28.666 4.33301 33.999 13l89 172h2v-203h-404c-46.667 -6.66699 -90.334 -10 -131.001 -10c-113.333 0 -197.833 32.667 -253.5 98
s-83.5 153.333 -83.5 264c0 107.333 28.833 194.333 86.5 261s136.834 100 237.501 100c56 0 102 -3.33301 138 -10h393v-206h-2l-86 170c-6 12 -15.667 18 -29 18h-169c-6.66699 0 -11 -1.5 -13 -4.5s-3 -9.16699 -3 -18.5v-297h133c11.333 0.666992 20.666 7 27.999 19
l54 89h2v-233h-2zM485.002 60.999v576.001c0 10.667 -4.33301 19 -13 25c-32.667 23.333 -70 35 -112 35c-46.667 0 -85.667 -15.667 -117 -47s-53.666 -71.833 -66.999 -121.5s-20 -107.834 -20 -174.501c0 -232.667 72 -349 216 -349c29.333 0 62.666 12 99.999 36
c8.66699 6 13 12.667 13 20z" />
    <glyph glyph-name="oe" unicode="&#x153;" horiz-adv-x="813" 
d="M254 -8c-68.667 0 -122.833 22.1689 -162.5 66.502s-59.5 106.166 -59.5 185.499s19.833 141 59.5 185s93.834 66 162.501 66c76.667 0 135 -27.333 175 -82c39.333 54.667 93.666 82 162.999 82c52 0 96.333 -15.667 133 -47s55 -77 55 -137
c0 -6.66699 -0.666992 -15.334 -2 -26.001h-302v-38c0 -62 13.667 -110.5 41 -145.5s62 -52.5 104 -52.5c73.333 0 126.333 40.667 159 122h2c-10.667 -59.333 -32.5 -104 -65.5 -134s-75.833 -45 -128.5 -45c-70 0 -124 26.333 -162 79c-38.667 -52.667 -96 -79 -172 -79z
M254.001 480.002c-75.333 0 -113 -78.667 -113 -236c0 -158 37.667 -237 113 -237s113 79 113 237c0 157.333 -37.667 236 -113 236zM477.001 302.002h206v4c-1.33301 116 -32 174 -92 174c-32.667 0 -59 -15.833 -79 -47.5s-31.667 -75.167 -35 -130.5z" />
    <glyph glyph-name="Racute" unicode="&#x154;" horiz-adv-x="637" 
d="M256 318l-35 -0.00195312v-251c0 -6 0.666992 -10.167 2 -12.5s5 -4.83301 11 -7.5l89 -45v-2h-305v2l86 47c8.66699 4.66699 13 11.334 13 20.001v565c0 8.66699 -4.33301 15.334 -13 20.001l-86 47v2h303c68 0 123.667 -16.333 167 -49s65 -80 65 -142
c0 -43.333 -14.833 -81.5 -44.5 -114.5s-69.167 -55.833 -118.5 -68.5v-2l28 -40l2 -3l148 -206c10 -14 21 -25.667 33 -35l51 -41v-2h-156l-210 301c-8 11.333 -18 17 -30 17zM221 663.998l0.000976562 -328h49c111.333 0 167 57 167 171c0 66 -13.333 112.167 -40 138.5
s-65.334 39.5 -116.001 39.5h-41c-7.33301 0 -12.333 -1.5 -15 -4.5s-4 -8.5 -4 -16.5zM323.001 918.998h121v-2l-208 -161l-2 2z" />
    <glyph glyph-name="racute" unicode="&#x155;" horiz-adv-x="398" 
d="M197 324l0.000976562 -257c0 -10.667 4.33301 -17.667 13 -21l106 -44v-2h-293v2l68 40c7.33301 4 11 11.333 11 22v348c0 10 -3.66699 17.667 -11 23l-68 50v2h174v-153c8 40.667 25.667 77.667 53 111s62 50 104 50c20 0 36.333 -4 49 -12l-50 -148h-2l-50 111
c-2 4 -6 4.33301 -12 1c-14.667 -8.66699 -28.334 -20.667 -41.001 -36s-21.667 -28.333 -27 -39zM240.001 703h121v-2l-208 -161l-2 2z" />
    <glyph glyph-name="Rcommaaccent" unicode="&#x156;" horiz-adv-x="637" 
d="M256 318l-35 -0.00195312v-251c0 -6 0.666992 -10.167 2 -12.5s5 -4.83301 11 -7.5l89 -45v-2h-305v2l86 47c8.66699 4.66699 13 11.334 13 20.001v565c0 8.66699 -4.33301 15.334 -13 20.001l-86 47v2h303c68 0 123.667 -16.333 167 -49s65 -80 65 -142
c0 -43.333 -14.833 -81.5 -44.5 -114.5s-69.167 -55.833 -118.5 -68.5v-2l28 -40l2 -3l148 -206c10 -14 21 -25.667 33 -35l51 -41v-2h-156l-210 301c-8 11.333 -18 17 -30 17zM221 663.998l0.000976562 -328h49c111.333 0 167 57 167 171c0 66 -13.333 112.167 -40 138.5
s-65.334 39.5 -116.001 39.5h-41c-7.33301 0 -12.333 -1.5 -15 -4.5s-4 -8.5 -4 -16.5zM313.001 -235.002l-1 2.00098c32.667 21.333 50.667 47.666 54 78.999c0.666992 6 -2.33301 9.66699 -9 11c-13.333 2 -24 7.83301 -32 17.5s-12 21.834 -12 36.501
c0 15.333 5.16699 28.166 15.5 38.499s22.833 15.5 37.5 15.5c16.667 0 30.167 -5.5 40.5 -16.5s15.5 -26.167 15.5 -45.5c0 -30.667 -10.5 -59.167 -31.5 -85.5s-46.833 -43.833 -77.5 -52.5z" />
    <glyph glyph-name="rcommaaccent" unicode="&#x157;" horiz-adv-x="398" 
d="M197 324l0.000976562 -257c0 -10.667 4.33301 -17.667 13 -21l106 -44v-2h-293v2l68 40c7.33301 4 11 11.333 11 22v348c0 10 -3.66699 17.667 -11 23l-68 50v2h174v-153c8 40.667 25.667 77.667 53 111s62 50 104 50c20 0 36.333 -4 49 -12l-50 -148h-2l-50 111
c-2 4 -6 4.33301 -12 1c-14.667 -8.66699 -28.334 -20.667 -41.001 -36s-21.667 -28.333 -27 -39zM96.001 -235l-1 2.00098c32.667 21.333 50.667 47.666 54 78.999c0.666992 6 -2.33301 9.66699 -9 11c-13.333 2 -24 7.83301 -32 17.5s-12 21.834 -12 36.501
c0 15.333 5.16699 28.166 15.5 38.499s22.833 15.5 37.5 15.5c16.667 0 30.167 -5.5 40.5 -16.5s15.5 -26.167 15.5 -45.5c0 -30.667 -10.5 -59.167 -31.5 -85.5s-46.833 -43.833 -77.5 -52.5z" />
    <glyph glyph-name="Rcaron" unicode="&#x158;" horiz-adv-x="637" 
d="M256 318l-35 -0.00195312v-251c0 -6 0.666992 -10.167 2 -12.5s5 -4.83301 11 -7.5l89 -45v-2h-305v2l86 47c8.66699 4.66699 13 11.334 13 20.001v565c0 8.66699 -4.33301 15.334 -13 20.001l-86 47v2h303c68 0 123.667 -16.333 167 -49s65 -80 65 -142
c0 -43.333 -14.833 -81.5 -44.5 -114.5s-69.167 -55.833 -118.5 -68.5v-2l28 -40l2 -3l148 -206c10 -14 21 -25.667 33 -35l51 -41v-2h-156l-210 301c-8 11.333 -18 17 -30 17zM221 663.998l0.000976562 -328h49c111.333 0 167 57 167 171c0 66 -13.333 112.167 -40 138.5
s-65.334 39.5 -116.001 39.5h-41c-7.33301 0 -12.333 -1.5 -15 -4.5s-4 -8.5 -4 -16.5zM295.001 843.998l141 76l1 -2l-141 -173h-2l-141 173l1 2z" />
    <glyph glyph-name="rcaron" unicode="&#x159;" horiz-adv-x="398" 
d="M197 324l0.000976562 -257c0 -10.667 4.33301 -17.667 13 -21l106 -44v-2h-293v2l68 40c7.33301 4 11 11.333 11 22v348c0 10 -3.66699 17.667 -11 23l-68 50v2h174v-153c8 40.667 25.667 77.667 53 111s62 50 104 50c20 0 36.333 -4 49 -12l-50 -148h-2l-50 111
c-2 4 -6 4.33301 -12 1c-14.667 -8.66699 -28.334 -20.667 -41.001 -36s-21.667 -28.333 -27 -39zM212.001 628l141 76l1 -2l-141 -173h-2l-141 173l1 2z" />
    <glyph glyph-name="Sacute" unicode="&#x15a;" horiz-adv-x="515" 
d="M245 -10c-67.333 0 -128.998 9 -184.998 27v209h2l91 -196c5.33301 -11.333 12.666 -17.666 21.999 -18.999c21.333 -3.33301 40.666 -5 57.999 -5c47.333 0 86.333 11.167 117 33.5s46 56.5 46 102.5c0 33.333 -10.167 60.666 -30.5 81.999s-52.5 42.333 -96.5 63
l-86 41c-39.333 18.667 -72 44.334 -98 77.001s-39 71.667 -39 117c0 55.333 20.333 101 61 137s92.334 54 155.001 54c51.333 0 108.666 -8 171.999 -24v-204h-2l-94 192c-4.66699 10 -11 15.333 -19 16c-13.333 2.66699 -28 4 -44 4c-44.667 0 -80.5 -12.5 -107.5 -37.5
s-40.5 -58.5 -40.5 -100.5c0 -56 33 -99.667 99 -131l104 -50c50 -23.333 88 -48.833 114 -76.5s39 -62.834 39 -105.501c0 -59.333 -21.667 -108.5 -65 -147.5s-101 -58.5 -173 -58.5zM287.002 919h121v-2l-208 -161l-2 2z" />
    <glyph glyph-name="sacute" unicode="&#x15b;" horiz-adv-x="416" 
d="M299 100c0 13.333 -2.16602 24.833 -6.49902 34.5s-11.833 18.5 -22.5 26.5s-19.834 14 -27.501 18s-19.834 9.66699 -36.501 17l-62 28c-62.667 28.667 -94 72.334 -94 131.001c0 42.667 16.667 76.667 50 102s72 38 116 38c55.333 0 105.666 -8.33301 150.999 -25
l-38 -127h-2l-64 122c-3.33301 5.33301 -6 8.83301 -8 10.5s-6.66699 2.83398 -14 3.50098c-6 0.666992 -14.667 1 -26 1c-24.667 0 -45.667 -7.83301 -63 -23.5s-26 -37.167 -26 -64.5c0 -22 6.5 -39.333 19.5 -52s32.167 -24.334 57.5 -35.001l67 -29
c36 -15.333 64 -32.833 84 -52.5s30 -46.5 30 -80.5c0 -48 -18.5 -85.167 -55.5 -111.5s-81.5 -39.5 -133.5 -39.5c-51.333 0 -103.666 10 -156.999 30l42 139h2l56 -138c2.66699 -6.66699 9 -11 19 -13c12 -2 25.333 -3 40 -3c32.667 0 57.834 9.16699 75.501 27.5
s26.5 40.166 26.5 65.499zM240.001 703h121v-2l-208 -161l-2 2z" />
    <glyph glyph-name="Scircumflex" unicode="&#x15c;" horiz-adv-x="515" 
d="M245 -10c-67.333 0 -128.998 9 -184.998 27v209h2l91 -196c5.33301 -11.333 12.666 -17.666 21.999 -18.999c21.333 -3.33301 40.666 -5 57.999 -5c47.333 0 86.333 11.167 117 33.5s46 56.5 46 102.5c0 33.333 -10.167 60.666 -30.5 81.999s-52.5 42.333 -96.5 63
l-86 41c-39.333 18.667 -72 44.334 -98 77.001s-39 71.667 -39 117c0 55.333 20.333 101 61 137s92.334 54 155.001 54c51.333 0 108.666 -8 171.999 -24v-204h-2l-94 192c-4.66699 10 -11 15.333 -19 16c-13.333 2.66699 -28 4 -44 4c-44.667 0 -80.5 -12.5 -107.5 -37.5
s-40.5 -58.5 -40.5 -100.5c0 -56 33 -99.667 99 -131l104 -50c50 -23.333 88 -48.833 114 -76.5s39 -62.834 39 -105.501c0 -59.333 -21.667 -108.5 -65 -147.5s-101 -58.5 -173 -58.5zM259.002 829l-141 -76l-1 2l141 173h2l141 -173l-1 -2z" />
    <glyph glyph-name="scircumflex" unicode="&#x15d;" horiz-adv-x="416" 
d="M299 100c0 13.333 -2.16602 24.833 -6.49902 34.5s-11.833 18.5 -22.5 26.5s-19.834 14 -27.501 18s-19.834 9.66699 -36.501 17l-62 28c-62.667 28.667 -94 72.334 -94 131.001c0 42.667 16.667 76.667 50 102s72 38 116 38c55.333 0 105.666 -8.33301 150.999 -25
l-38 -127h-2l-64 122c-3.33301 5.33301 -6 8.83301 -8 10.5s-6.66699 2.83398 -14 3.50098c-6 0.666992 -14.667 1 -26 1c-24.667 0 -45.667 -7.83301 -63 -23.5s-26 -37.167 -26 -64.5c0 -22 6.5 -39.333 19.5 -52s32.167 -24.334 57.5 -35.001l67 -29
c36 -15.333 64 -32.833 84 -52.5s30 -46.5 30 -80.5c0 -48 -18.5 -85.167 -55.5 -111.5s-81.5 -39.5 -133.5 -39.5c-51.333 0 -103.666 10 -156.999 30l42 139h2l56 -138c2.66699 -6.66699 9 -11 19 -13c12 -2 25.333 -3 40 -3c32.667 0 57.834 9.16699 75.501 27.5
s26.5 40.166 26.5 65.499zM212.001 613l-141 -76l-1 2l141 173h2l141 -173l-1 -2z" />
    <glyph glyph-name="Scedilla" unicode="&#x15e;" horiz-adv-x="515" 
d="M253 -236c-30.667 0 -55.667 8.33203 -75 24.999s-30.666 36.667 -33.999 60l2 1c5.33301 -16.667 15.333 -30.167 30 -40.5s30.334 -15.5 47.001 -15.5c18.667 0 34.334 5.33301 47.001 16s19 24.667 19 42c0 18 -5.83301 32.667 -17.5 44s-26.834 17.333 -45.501 18
c-12.667 0 -26 -2.33301 -40 -7l-1 2l65 81h-5c-67.333 0 -129 9 -185 27v209h2l91 -196c5.33301 -11.333 12.666 -17.666 21.999 -18.999c21.333 -3.33301 40.666 -5 57.999 -5c47.333 0 86.333 11.167 117 33.5s46 56.5 46 102.5c0 33.333 -10.167 60.666 -30.5 81.999
s-52.5 42.333 -96.5 63l-86 41c-39.333 18.667 -72 44.334 -98 77.001s-39 71.667 -39 117c0 55.333 20.333 101 61 137s92.334 54 155.001 54c51.333 0 108.666 -8 171.999 -24v-204h-2l-94 192c-4.66699 10 -11 15.333 -19 16c-13.333 2.66699 -28 4 -44 4
c-44.667 0 -80.5 -12.5 -107.5 -37.5s-40.5 -58.5 -40.5 -100.5c0 -56 33 -99.667 99 -131l104 -50c50 -23.333 88 -48.833 114 -76.5s39 -62.834 39 -105.501c0 -58 -20.833 -106.333 -62.5 -145s-97.5 -59 -167.5 -61l-9 -53c31.333 6.66699 58.833 1.83398 82.5 -14.499
s35.5 -38.166 35.5 -65.499c0 -26.667 -9.66699 -48.834 -29 -66.501s-46 -26.5 -80 -26.5z" />
    <glyph glyph-name="scedilla" unicode="&#x15f;" horiz-adv-x="416" 
d="M384 143c0 -48 -18.501 -85.167 -55.501 -111.5s-81.5 -39.5 -133.5 -39.5h-4l-8 -55c31.333 6.66699 58.833 1.83398 82.5 -14.499s35.5 -38.166 35.5 -65.499c0 -26.667 -9.66699 -48.834 -29 -66.501s-46 -26.5 -80 -26.5c-30.667 0 -55.667 8.33301 -75 25
s-30.666 36.667 -33.999 60l2 1c5.33301 -16.667 15.333 -30.167 30 -40.5s30.334 -15.5 47.001 -15.5c18.667 0 34.334 5.33301 47.001 16s19 24.667 19 42c0 18.667 -6 33.667 -18 45s-28 16.666 -48 15.999c-12 0 -24.333 -2 -37 -6l-1 2l61 83c-52 2 -101 12 -147 30
l42 139h2l56 -138c2.66699 -6.66699 9 -11 19 -13c12 -2 25.333 -3 40 -3c32.667 0 57.834 9.16699 75.501 27.5s26.5 40.166 26.5 65.499c0 13.333 -2.16699 24.833 -6.5 34.5s-11.833 18.5 -22.5 26.5s-19.834 14 -27.501 18s-19.834 9.66699 -36.501 17l-62 28
c-62.667 28.667 -94 72.334 -94 131.001c0 42.667 16.667 76.667 50 102s72 38 116 38c55.333 0 105.666 -8.33301 150.999 -25l-38 -127h-2l-64 122c-3.33301 5.33301 -6 8.83301 -8 10.5s-6.66699 2.83398 -14 3.50098c-6 0.666992 -14.667 1 -26 1
c-24.667 0 -45.667 -7.83301 -63 -23.5s-26 -37.167 -26 -64.5c0 -22 6.5 -39.333 19.5 -52s32.167 -24.334 57.5 -35.001l67 -29c36 -15.333 64 -32.833 84 -52.5s30 -46.5 30 -80.5z" />
    <glyph glyph-name="Scaron" unicode="&#x160;" horiz-adv-x="515" 
d="M245 -10c-67.333 0 -128.998 9 -184.998 27v209h2l91 -196c5.33301 -11.333 12.666 -17.666 21.999 -18.999c21.333 -3.33301 40.666 -5 57.999 -5c47.333 0 86.333 11.167 117 33.5s46 56.5 46 102.5c0 33.333 -10.167 60.666 -30.5 81.999s-52.5 42.333 -96.5 63
l-86 41c-39.333 18.667 -72 44.334 -98 77.001s-39 71.667 -39 117c0 55.333 20.333 101 61 137s92.334 54 155.001 54c51.333 0 108.666 -8 171.999 -24v-204h-2l-94 192c-4.66699 10 -11 15.333 -19 16c-13.333 2.66699 -28 4 -44 4c-44.667 0 -80.5 -12.5 -107.5 -37.5
s-40.5 -58.5 -40.5 -100.5c0 -56 33 -99.667 99 -131l104 -50c50 -23.333 88 -48.833 114 -76.5s39 -62.834 39 -105.501c0 -59.333 -21.667 -108.5 -65 -147.5s-101 -58.5 -173 -58.5zM259.002 844l141 76l1 -2l-141 -173h-2l-141 173l1 2z" />
    <glyph glyph-name="scaron" unicode="&#x161;" horiz-adv-x="416" 
d="M299 100c0 13.333 -2.16602 24.833 -6.49902 34.5s-11.833 18.5 -22.5 26.5s-19.834 14 -27.501 18s-19.834 9.66699 -36.501 17l-62 28c-62.667 28.667 -94 72.334 -94 131.001c0 42.667 16.667 76.667 50 102s72 38 116 38c55.333 0 105.666 -8.33301 150.999 -25
l-38 -127h-2l-64 122c-3.33301 5.33301 -6 8.83301 -8 10.5s-6.66699 2.83398 -14 3.50098c-6 0.666992 -14.667 1 -26 1c-24.667 0 -45.667 -7.83301 -63 -23.5s-26 -37.167 -26 -64.5c0 -22 6.5 -39.333 19.5 -52s32.167 -24.334 57.5 -35.001l67 -29
c36 -15.333 64 -32.833 84 -52.5s30 -46.5 30 -80.5c0 -48 -18.5 -85.167 -55.5 -111.5s-81.5 -39.5 -133.5 -39.5c-51.333 0 -103.666 10 -156.999 30l42 139h2l56 -138c2.66699 -6.66699 9 -11 19 -13c12 -2 25.333 -3 40 -3c32.667 0 57.834 9.16699 75.501 27.5
s26.5 40.166 26.5 65.499zM212.001 628l141 76l1 -2l-141 -173h-2l-141 173l1 2z" />
    <glyph glyph-name="Tcommaaccent" unicode="&#x162;" horiz-adv-x="602" 
d="M582 703v-228.001h-2l-87 191c-3.33301 8 -6.5 13.167 -9.5 15.5s-8.5 3.5 -16.5 3.5h-114v-616c0 -6 0.666992 -10.167 2 -12.5s5 -4.83301 11 -7.5l91 -47v-2h-312v2l91 47c8.66699 4.66699 13 11.334 13 20.001v616h-114c-8 0 -13.333 -1 -16 -3s-6 -7.33301 -10 -16
l-87 -191h-2v228h562zM248 -245.001l-1 2.00098c32.667 21.333 50.667 47.666 54 78.999c0.666992 6 -2.33301 9.66699 -9 11c-13.333 2 -24 7.83301 -32 17.5s-12 21.834 -12 36.501c0 15.333 5.16699 28.166 15.5 38.499s22.833 15.5 37.5 15.5
c16.667 0 30.167 -5.5 40.5 -16.5s15.5 -26.167 15.5 -45.5c0 -30.667 -10.5 -59.167 -31.5 -85.5s-46.833 -43.833 -77.5 -52.5z" />
    <glyph glyph-name="tcommaaccent" unicode="&#x163;" horiz-adv-x="309" 
d="M170 469v-354c0 -22 5 -39.333 15 -52s24 -19 42 -19c17.333 0 33 5.66699 47 17s24 25.333 30 42h2c-4.66699 -32 -17.5 -58.5 -38.5 -79.5s-49.5 -31.5 -85.5 -31.5c-71.333 0 -107 37.667 -107 113v364h-70v18h55c10.667 0 18.667 4.66699 24 14l84 148h2v-162h142
v-18h-142zM129 -235l-1 2.00098c32.667 21.333 50.667 47.666 54 78.999c0.666992 6 -2.33301 9.66699 -9 11c-13.333 2 -24 7.83301 -32 17.5s-12 21.834 -12 36.501c0 15.333 5.16699 28.166 15.5 38.499s22.833 15.5 37.5 15.5c16.667 0 30.167 -5.5 40.5 -16.5
s15.5 -26.167 15.5 -45.5c0 -30.667 -10.5 -59.167 -31.5 -85.5s-46.833 -43.833 -77.5 -52.5z" />
    <glyph glyph-name="Tcaron" unicode="&#x164;" horiz-adv-x="602" 
d="M582 703v-228.001h-2l-87 191c-3.33301 8 -6.5 13.167 -9.5 15.5s-8.5 3.5 -16.5 3.5h-114v-616c0 -6 0.666992 -10.167 2 -12.5s5 -4.83301 11 -7.5l91 -47v-2h-312v2l91 47c8.66699 4.66699 13 11.334 13 20.001v616h-114c-8 0 -13.333 -1 -16 -3s-6 -7.33301 -10 -16
l-87 -191h-2v228h562zM300 843.999l141 76l1 -2l-141 -173h-2l-141 173l1 2z" />
    <glyph glyph-name="tcaron" unicode="&#x165;" horiz-adv-x="309" 
d="M170 469v-354c0 -22 5 -39.333 15 -52s24 -19 42 -19c17.333 0 33 5.66699 47 17s24 25.333 30 42h2c-4.66699 -32 -17.5 -58.5 -38.5 -79.5s-49.5 -31.5 -85.5 -31.5c-71.333 0 -107 37.667 -107 113v364h-70v18h55c10.667 0 18.667 4.66699 24 14l84 148h2v-162h142
v-18h-142zM214 512h-1l9 191h92z" />
    <glyph glyph-name="Tbar" unicode="&#x166;" horiz-adv-x="608" 
d="M501 335l-145 -0.000976562v-266c0 -6 0.666992 -10.167 2 -12.5s5 -4.83301 11 -7.5l91 -47v-2h-312v2l91 47c8.66699 4.66699 13 11.334 13 20.001v266h-145v17h145v333h-114c-8 0 -13.333 -1 -16 -3s-6 -7.33301 -10 -16l-87 -191h-2v228h562v-228h-2l-87 191
c-3.33301 8 -6.5 13.167 -9.5 15.5s-8.5 3.5 -16.5 3.5h-114v-333h145v-17z" />
    <glyph glyph-name="tbar" unicode="&#x167;" horiz-adv-x="319" 
d="M187 -8c-71.333 0 -107 37.667 -107 113v229h-70v17h70v118h-70v18h55c10.667 0 18.667 4.66699 24 14l84 148h2v-162h142v-18h-142v-118h142v-17h-142v-219c0 -22 5 -39.333 15 -52s24 -19 42 -19c17.333 0 33 5.66699 47 17s24 25.333 30 42h2
c-4.66699 -32 -17.5 -58.5 -38.5 -79.5s-49.5 -31.5 -85.5 -31.5z" />
    <glyph glyph-name="Utilde" unicode="&#x168;" horiz-adv-x="652" 
d="M554 248c0 -80 -17.334 -142.998 -52.001 -188.998s-90 -69 -166 -69c-159.333 0 -239 71.333 -239 214v427c0 5.33301 -0.666992 9.16602 -2 11.499s-5 5.16602 -11 8.49902l-79 50v2h293v-2l-84 -50c-6 -2.66699 -9.66699 -5.16699 -11 -7.5s-2 -6.5 -2 -12.5v-405
c0 -67.333 14.333 -118.833 43 -154.5s70.334 -53.5 125.001 -53.5c53.333 0 94.333 20 123 60s43 96.333 43 169v355c0 12.667 -5.33301 22.667 -16 30l-95 69v2h242v-2l-96 -69c-10.667 -7.33301 -16 -17.333 -16 -30v-354zM492.999 888.002l2.00195 -1
c0 -13.333 -1 -25.666 -3 -36.999c-9.33301 -48.667 -32.666 -73 -69.999 -73c-14.667 0 -36.834 7.83301 -66.501 23.5s-51.5 23.5 -65.5 23.5c-26.667 0 -46.667 -16 -60 -48l-2 1c0 11.333 1 22.666 3 33.999c9.33301 50.667 32.666 76 69.999 76
c14.667 0 36.667 -7.83301 66 -23.5s51 -23.5 65 -23.5c27.333 0 47.666 16 60.999 48z" />
    <glyph glyph-name="utilde" unicode="&#x169;" 
d="M259 50c39.333 0 72.333 24.666 99 73.999v288c0 10 -3.66699 17.667 -11 23l-68 50v2h174v-412c0 -10 3.66699 -17.667 11 -23l68 -50v-2h-174v116c-26.667 -82.667 -75 -124 -145 -124c-90 0 -135 66.667 -135 200c0 40 0.666992 113.333 2 220
c0 10 -3.66699 17.667 -11 23l-68 50v2h175l-2 -119c-0.666992 -79.333 -1 -126.666 -1 -141.999c0 -60.667 6.83301 -105.167 20.5 -133.5s35.5 -42.5 65.5 -42.5zM386 671.999l2.00195 -0.999023c0 -14 -1 -26.333 -3 -37c-9.33301 -48.667 -32.666 -73 -69.999 -73
c-14.667 0 -36.834 7.83301 -66.501 23.5s-51.5 23.5 -65.5 23.5c-26.667 0 -46.667 -16 -60 -48l-2 1c0 11.333 1 22.666 3 33.999c9.33301 50.667 32.666 76 69.999 76c14.667 0 36.667 -7.83301 66 -23.5s51 -23.5 65 -23.5c27.333 0 47.666 16 60.999 48z" />
    <glyph glyph-name="Umacron" unicode="&#x16a;" horiz-adv-x="652" 
d="M554 248c0 -80 -17.334 -142.998 -52.001 -188.998s-90 -69 -166 -69c-159.333 0 -239 71.333 -239 214v427c0 5.33301 -0.666992 9.16602 -2 11.499s-5 5.16602 -11 8.49902l-79 50v2h293v-2l-84 -50c-6 -2.66699 -9.66699 -5.16699 -11 -7.5s-2 -6.5 -2 -12.5v-405
c0 -67.333 14.333 -118.833 43 -154.5s70.334 -53.5 125.001 -53.5c53.333 0 94.333 20 123 60s43 96.333 43 169v355c0 12.667 -5.33301 22.667 -16 30l-95 69v2h242v-2l-96 -69c-10.667 -7.33301 -16 -17.333 -16 -30v-354zM480.999 807.002h-246v18h246v-18z" />
    <glyph glyph-name="umacron" unicode="&#x16b;" 
d="M259 50c39.333 0 72.333 24.666 99 73.999v288c0 10 -3.66699 17.667 -11 23l-68 50v2h174v-412c0 -10 3.66699 -17.667 11 -23l68 -50v-2h-174v116c-26.667 -82.667 -75 -124 -145 -124c-90 0 -135 66.667 -135 200c0 40 0.666992 113.333 2 220
c0 10 -3.66699 17.667 -11 23l-68 50v2h175l-2 -119c-0.666992 -79.333 -1 -126.666 -1 -141.999c0 -60.667 6.83301 -105.167 20.5 -133.5s35.5 -42.5 65.5 -42.5zM374 590.999h-246v18h246v-18z" />
    <glyph glyph-name="Ubreve" unicode="&#x16c;" horiz-adv-x="652" 
d="M554 248c0 -80 -17.334 -142.998 -52.001 -188.998s-90 -69 -166 -69c-159.333 0 -239 71.333 -239 214v427c0 5.33301 -0.666992 9.16602 -2 11.499s-5 5.16602 -11 8.49902l-79 50v2h293v-2l-84 -50c-6 -2.66699 -9.66699 -5.16699 -11 -7.5s-2 -6.5 -2 -12.5v-405
c0 -67.333 14.333 -118.833 43 -154.5s70.334 -53.5 125.001 -53.5c53.333 0 94.333 20 123 60s43 96.333 43 169v355c0 12.667 -5.33301 22.667 -16 30l-95 69v2h242v-2l-96 -69c-10.667 -7.33301 -16 -17.333 -16 -30v-354zM355.999 818.002
c32 0 58.668 8.83301 80.001 26.5s32.333 41.5 33 71.5h2c2.66699 -12.667 4 -25.334 4 -38.001c0 -40 -11.667 -70 -35 -90s-51.333 -30 -84 -30s-60.5 10 -83.5 30s-34.5 50 -34.5 90c0 12.667 1.33301 25.334 4 38.001h2c0.666992 -30 11.667 -53.833 33 -71.5
s47.666 -26.5 78.999 -26.5z" />
    <glyph glyph-name="ubreve" unicode="&#x16d;" 
d="M259 50c39.333 0 72.333 24.666 99 73.999v288c0 10 -3.66699 17.667 -11 23l-68 50v2h174v-412c0 -10 3.66699 -17.667 11 -23l68 -50v-2h-174v116c-26.667 -82.667 -75 -124 -145 -124c-90 0 -135 66.667 -135 200c0 40 0.666992 113.333 2 220
c0 10 -3.66699 17.667 -11 23l-68 50v2h175l-2 -119c-0.666992 -79.333 -1 -126.666 -1 -141.999c0 -60.667 6.83301 -105.167 20.5 -133.5s35.5 -42.5 65.5 -42.5zM249 601.999c32 0 58.668 8.83301 80.001 26.5s32.333 41.5 33 71.5h2
c2.66699 -12.667 4 -25.334 4 -38.001c0 -40 -11.667 -70 -35 -90s-51.333 -30 -84 -30s-60.5 10 -83.5 30s-34.5 50 -34.5 90c0 12.667 1.33301 25.334 4 38.001h2c0.666992 -30 11.667 -53.833 33 -71.5s47.666 -26.5 78.999 -26.5z" />
    <glyph glyph-name="Uring" unicode="&#x16e;" horiz-adv-x="652" 
d="M554 248c0 -80 -17.334 -142.998 -52.001 -188.998s-90 -69 -166 -69c-159.333 0 -239 71.333 -239 214v427c0 5.33301 -0.666992 9.16602 -2 11.499s-5 5.16602 -11 8.49902l-79 50v2h293v-2l-84 -50c-6 -2.66699 -9.66699 -5.16699 -11 -7.5s-2 -6.5 -2 -12.5v-405
c0 -67.333 14.333 -118.833 43 -154.5s70.334 -53.5 125.001 -53.5c53.333 0 94.333 20 123 60s43 96.333 43 169v355c0 12.667 -5.33301 22.667 -16 30l-95 69v2h242v-2l-96 -69c-10.667 -7.33301 -16 -17.333 -16 -30v-354zM442.999 838.002
c0 -22.667 -7.83301 -41.834 -23.5 -57.501s-34.834 -23.5 -57.501 -23.5s-41.834 7.83301 -57.501 23.5s-23.5 34.834 -23.5 57.501s7.83301 41.834 23.5 57.501s34.834 23.5 57.501 23.5s41.834 -7.83301 57.501 -23.5s23.5 -34.834 23.5 -57.501zM423.999 838.002
c0 17.333 -6 32.166 -18 44.499s-26.667 18.5 -44 18.5s-32 -6.16699 -44 -18.5s-18 -27.166 -18 -44.499s6 -32.166 18 -44.499s26.667 -18.5 44 -18.5s32 6.16699 44 18.5s18 27.166 18 44.499z" />
    <glyph glyph-name="uring" unicode="&#x16f;" 
d="M259 50c39.333 0 72.333 24.666 99 73.999v288c0 10 -3.66699 17.667 -11 23l-68 50v2h174v-412c0 -10 3.66699 -17.667 11 -23l68 -50v-2h-174v116c-26.667 -82.667 -75 -124 -145 -124c-90 0 -135 66.667 -135 200c0 40 0.666992 113.333 2 220
c0 10 -3.66699 17.667 -11 23l-68 50v2h175l-2 -119c-0.666992 -79.333 -1 -126.666 -1 -141.999c0 -60.667 6.83301 -105.167 20.5 -133.5s35.5 -42.5 65.5 -42.5zM336 621.999c0 -22.667 -7.83301 -41.834 -23.5 -57.501s-34.834 -23.5 -57.501 -23.5
s-41.834 7.83301 -57.501 23.5s-23.5 34.834 -23.5 57.501s7.83301 41.834 23.5 57.501s34.834 23.5 57.501 23.5s41.834 -7.83301 57.501 -23.5s23.5 -34.834 23.5 -57.501zM317 621.999c0 17.333 -6 32.166 -18 44.499s-26.667 18.5 -44 18.5s-32 -6.16699 -44 -18.5
s-18 -27.166 -18 -44.499s6 -32.166 18 -44.499s26.667 -18.5 44 -18.5s32 6.16699 44 18.5s18 27.166 18 44.499z" />
    <glyph glyph-name="Uhungarumlaut" unicode="&#x170;" horiz-adv-x="652" 
d="M554 248c0 -80 -17.334 -142.998 -52.001 -188.998s-90 -69 -166 -69c-159.333 0 -239 71.333 -239 214v427c0 5.33301 -0.666992 9.16602 -2 11.499s-5 5.16602 -11 8.49902l-79 50v2h293v-2l-84 -50c-6 -2.66699 -9.66699 -5.16699 -11 -7.5s-2 -6.5 -2 -12.5v-405
c0 -67.333 14.333 -118.833 43 -154.5s70.334 -53.5 125.001 -53.5c53.333 0 94.333 20 123 60s43 96.333 43 169v355c0 12.667 -5.33301 22.667 -16 30l-95 69v2h242v-2l-96 -69c-10.667 -7.33301 -16 -17.333 -16 -30v-354zM322.999 919.002h102v-2l-165 -169h-2z
M459.999 919.002h102v-2l-165 -169h-2z" />
    <glyph glyph-name="uhungarumlaut" unicode="&#x171;" 
d="M259 50c39.333 0 72.333 24.666 99 73.999v288c0 10 -3.66699 17.667 -11 23l-68 50v2h174v-412c0 -10 3.66699 -17.667 11 -23l68 -50v-2h-174v116c-26.667 -82.667 -75 -124 -145 -124c-90 0 -135 66.667 -135 200c0 40 0.666992 113.333 2 220
c0 10 -3.66699 17.667 -11 23l-68 50v2h175l-2 -119c-0.666992 -79.333 -1 -126.666 -1 -141.999c0 -60.667 6.83301 -105.167 20.5 -133.5s35.5 -42.5 65.5 -42.5zM216 702.999h102v-2l-165 -169h-2zM353 702.999h102v-2l-165 -169h-2z" />
    <glyph glyph-name="Uogonek" unicode="&#x172;" horiz-adv-x="652" 
d="M554 248c0 -80 -17.334 -142.995 -52.001 -188.995s-90 -69 -166 -69h-4c-37.333 -26 -56 -59 -56 -99c0 -24 7.16699 -42.667 21.5 -56s31.833 -20 52.5 -20c31.333 0 55.333 11.667 72 35l2 -1c-24 -56.667 -60.333 -85 -109 -85c-25.333 0 -48.333 9.16699 -69 27.5
s-31 42.833 -31 73.5c0 25.333 9.16699 49.166 27.5 71.499s43.833 40.166 76.5 53.499c-148 5.33301 -222 76.666 -222 213.999v427c0 5.33301 -0.666992 9.16602 -2 11.499s-5 5.16602 -11 8.49902l-79 50v2h293v-2l-84 -50c-6 -2.66699 -9.66699 -5.16699 -11 -7.5
s-2 -6.5 -2 -12.5v-405c0 -67.333 14.333 -118.833 43 -154.5s70.334 -53.5 125.001 -53.5c53.333 0 94.333 20 123 60s43 96.333 43 169v355c0 12.667 -5.33301 22.667 -16 30l-95 69v2h242v-2l-96 -69c-10.667 -7.33301 -16 -17.333 -16 -30v-354z" />
    <glyph glyph-name="uogonek" unicode="&#x173;" 
d="M339 -236c-25.333 0 -48.333 9.16602 -69 27.499s-31 42.833 -31 73.5c0 29.333 10.667 57 32 83s50.333 44 87 54v114c-26.667 -82.667 -75 -124 -145 -124c-90 0 -135 66.667 -135 200c0 40 0.666992 113.333 2 220c0 10 -3.66699 17.667 -11 23l-68 50v2h175l-2 -119
c-0.666992 -79.333 -1 -126.666 -1 -141.999c0 -60.667 6.83301 -105.167 20.5 -133.5s35.5 -42.5 65.5 -42.5c39.333 0 72.333 24.667 99 74v288c0 10 -3.66699 17.667 -11 23l-68 50v2h174v-412c0 -10 3.66699 -17.667 11 -23l68 -50v-2h-163
c-46 -22 -69 -58.333 -69 -109c0 -24 7.16699 -42.667 21.5 -56s31.833 -20 52.5 -20c31.333 0 55.333 11.667 72 35l2 -1c-24 -56.667 -60.333 -85 -109 -85z" />
    <glyph glyph-name="Wcircumflex" unicode="&#x174;" horiz-adv-x="960" 
d="M634 0l-153.999 476.001l-155 -476h-61l-210 621c-5.33301 15.333 -13 28 -23 38l-43 42v2h249v-2l-71 -54c-6.66699 -4.66699 -8 -12.667 -4 -24l176 -520l132 404l-37 114c-5.33301 15.333 -13 28 -23 38l-37 42v2h244v-2l-71 -54
c-6.66699 -4.66699 -8.33398 -12.334 -5.00098 -23.001l168 -520l158 491c4.66699 13.333 0.333984 25.333 -12.999 36l-87 70v2h225v-2l-76 -65c-6.66699 -6 -11.334 -10.333 -14.001 -13s-5.16699 -6 -7.5 -10s-4.5 -9.33301 -6.5 -16l-193 -597h-61zM490.001 829.001
l-141 -76l-1 2l141 173h2l141 -173l-1 -2z" />
    <glyph glyph-name="wcircumflex" unicode="&#x175;" horiz-adv-x="702" 
d="M717 485l-57 -69c-8 -9.33301 -13.667 -19.333 -17 -30l-139 -386h-46l-112 303l-113 -303h-46l-154 418c-4 11.333 -9 20.666 -15 27.999l-31 39v2h200v-2l-48 -46c-6.66699 -6 -8 -14 -4 -24l115 -318l87 231l-33 90c-4 11.333 -9 20.666 -15 27.999l-31 39v2h199v-2
l-48 -46c-6.66699 -6 -8 -14 -4 -24l116 -318l104 290c2.66699 8.66699 3.66699 14.334 3 17.001s-3.66699 7.33398 -9 14.001l-57 67v2h155v-2zM361 613l-141 -76l-1 2l141 173h2l141 -173l-1 -2z" />
    <glyph glyph-name="Ycircumflex" unicode="&#x176;" horiz-adv-x="596" 
d="M355 287l-0.000976562 -218.001c0 -6 0.666992 -10.167 2 -12.5s5 -4.83301 11 -7.5l91 -47v-2h-312v2l91 47c8.66699 4.66699 13 11.334 13 20.001v207c0 10.667 -2.66699 20.667 -8 30l-177 317c-7.33301 13.333 -16.333 24.333 -27 33l-51 45v2h260v-2l-65 -51
c-6 -5.33301 -7.33301 -11.333 -4 -18l167 -299l143 270c5.33301 10 4.33301 18 -3 24l-85 74v2h227v-2l-88 -69c-15.333 -12.667 -26.666 -25.667 -33.999 -39l-143 -270c-5.33301 -9.33301 -8 -21.333 -8 -36zM324.999 828.999l-141 -76l-1 2l141 173h2l141 -173l-1 -2z
" />
    <glyph glyph-name="ycircumflex" unicode="&#x177;" horiz-adv-x="435" 
d="M56 -236c-16 0 -30 3.33203 -42 9.99902l35 151h2l58 -100c4.66699 -8 8.66699 -12 12 -12s7.33301 3 12 9c22 26.667 42.333 65.667 61 117l13 36l-173 443c-6 14 -12.333 25.333 -19 34l-25 33v2h198v-2l-48 -46c-6.66699 -6 -8 -14 -4 -24l120 -310l107 279
c4.66699 12 3.66699 22 -3 30l-60 71v2h155v-2l-56 -69c-6.66699 -7.33301 -13 -18.666 -19 -33.999l-170 -446c-17.333 -44.667 -34 -79.667 -50 -105c-28 -44.667 -62.667 -67 -104 -67zM242 612.999l-141 -76l-1 2l141 173h2l141 -173l-1 -2z" />
    <glyph glyph-name="Ydieresis" unicode="&#x178;" horiz-adv-x="596" 
d="M355 287l-0.000976562 -218.001c0 -6 0.666992 -10.167 2 -12.5s5 -4.83301 11 -7.5l91 -47v-2h-312v2l91 47c8.66699 4.66699 13 11.334 13 20.001v207c0 10.667 -2.66699 20.667 -8 30l-177 317c-7.33301 13.333 -16.333 24.333 -27 33l-51 45v2h260v-2l-65 -51
c-6 -5.33301 -7.33301 -11.333 -4 -18l167 -299l143 270c5.33301 10 4.33301 18 -3 24l-85 74v2h227v-2l-88 -69c-15.333 -12.667 -26.666 -25.667 -33.999 -39l-143 -270c-5.33301 -9.33301 -8 -21.333 -8 -36zM190.999 838.999c0 14.667 5 27.167 15 37.5
s22.333 15.5 37 15.5s27 -5.16699 37 -15.5s15 -22.833 15 -37.5c0 -14 -5.16699 -26.167 -15.5 -36.5s-22.5 -15.5 -36.5 -15.5s-26.167 5.16699 -36.5 15.5s-15.5 22.5 -15.5 36.5zM354.999 838.999c0 14.667 5 27.167 15 37.5s22 15.5 36 15.5
c14.667 0 27.167 -5.16699 37.5 -15.5s15.5 -22.833 15.5 -37.5c0 -14 -5.16699 -26.167 -15.5 -36.5s-22.833 -15.5 -37.5 -15.5c-14 0 -26 5.16699 -36 15.5s-15 22.5 -15 36.5z" />
    <glyph glyph-name="Zacute" unicode="&#x179;" horiz-adv-x="575" 
d="M546 701l-404 -683h244c18 0 29.333 4.33301 34 13l103 198h2v-229h-510v2l402 683h-222c-18 0 -29.333 -4.33301 -34 -13l-99 -201h-2v232h486v-2zM314 919h121v-2l-208 -161l-2 2z" />
    <glyph glyph-name="zacute" unicode="&#x17a;" horiz-adv-x="433" 
d="M299 32l100 154h2l-16 -186h-370v2l288 468h-147c-8.66699 0 -14.167 -0.666992 -16.5 -2s-5.83301 -5.66602 -10.5 -12.999l-89 -144h-3v176h380v-2l-286 -468h141c8.66699 0 14.167 0.666992 16.5 2s5.83301 5.66602 10.5 12.999zM252 703h121v-2l-208 -161l-2 2z" />
    <glyph glyph-name="Zdotaccent" unicode="&#x17b;" horiz-adv-x="575" 
d="M546 701l-404 -683h244c18 0 29.333 4.33301 34 13l103 198h2v-229h-510v2l402 683h-222c-18 0 -29.333 -4.33301 -34 -13l-99 -201h-2v232h486v-2zM227 830c0 17.333 5.66699 31.833 17 43.5s25.333 17.5 42 17.5s30.834 -5.83301 42.501 -17.5s17.5 -26.167 17.5 -43.5
c0 -16 -5.83301 -29.833 -17.5 -41.5s-25.834 -17.5 -42.501 -17.5s-30.667 5.83301 -42 17.5s-17 25.5 -17 41.5z" />
    <glyph glyph-name="zdotaccent" unicode="&#x17c;" horiz-adv-x="433" 
d="M299 32l100 154h2l-16 -186h-370v2l288 468h-147c-8.66699 0 -14.167 -0.666992 -16.5 -2s-5.83301 -5.66602 -10.5 -12.999l-89 -144h-3v176h380v-2l-286 -468h141c8.66699 0 14.167 0.666992 16.5 2s5.83301 5.66602 10.5 12.999zM165 614
c0 17.333 5.66699 31.833 17 43.5s25.333 17.5 42 17.5s30.834 -5.83301 42.501 -17.5s17.5 -26.167 17.5 -43.5c0 -16 -5.83301 -29.833 -17.5 -41.5s-25.834 -17.5 -42.501 -17.5s-30.667 5.83301 -42 17.5s-17 25.5 -17 41.5z" />
    <glyph glyph-name="Zcaron" unicode="&#x17d;" horiz-adv-x="575" 
d="M546 701l-404 -683h244c18 0 29.333 4.33301 34 13l103 198h2v-229h-510v2l402 683h-222c-18 0 -29.333 -4.33301 -34 -13l-99 -201h-2v232h486v-2zM286 844l141 76l1 -2l-141 -173h-2l-141 173l1 2z" />
    <glyph glyph-name="zcaron" unicode="&#x17e;" horiz-adv-x="433" 
d="M299 32l100 154h2l-16 -186h-370v2l288 468h-147c-8.66699 0 -14.167 -0.666992 -16.5 -2s-5.83301 -5.66602 -10.5 -12.999l-89 -144h-3v176h380v-2l-286 -468h141c8.66699 0 14.167 0.666992 16.5 2s5.83301 5.66602 10.5 12.999zM224 628l141 76l1 -2l-141 -173h-2
l-141 173l1 2z" />
    <glyph glyph-name="florin" unicode="&#x192;" horiz-adv-x="410" 
d="M54 292v18h98v213c0 67.333 13 115.833 39 145.5s66.333 44.5 121 44.5c42.667 0 85 -8.66699 127 -26l-51 -122h-2l-49 120c-2.66699 6.66699 -5 10.5 -7 11.5s-7.66699 1.5 -17 1.5c-44 0 -66 -39 -66 -117v-271h107v-18h-107v-290c0 -82 -12.667 -142.167 -38 -180.5
s-64.333 -57.5 -117 -57.5c-43.333 0 -87.333 8.66699 -132 26l51 122h2l48 -119c2.66699 -6.66699 5.5 -11.167 8.5 -13.5s8.5 -3.5 16.5 -3.5c14.667 0 26.667 3 36 9s16 15 20 27s6.66699 23.667 8 35s2 26 2 44v401h-98z" />
    <glyph glyph-name="uni01B5" unicode="&#x1b5;" horiz-adv-x="575" 
d="M525 0h-510v2l203 345h-156v17h166l189 321h-222c-18 0 -29.333 -4.33301 -34 -13l-99 -201h-2v232h486v-2l-200 -337h145v-17h-155l-194 -329h244c18 0 29.333 4.33301 34 13l103 198h2v-229z" />
    <glyph glyph-name="uni01B6" unicode="&#x1b6;" horiz-adv-x="437" 
d="M387 0h-370v2l146 238h-121v17h132l131 213h-147c-8.66699 0 -14.167 -0.666992 -16.5 -2s-5.83301 -5.66602 -10.5 -12.999l-89 -144h-3v176h380v-2l-140 -228h116v-17h-126l-136 -223h141c8.66699 0 14.167 0.666992 16.5 2s5.83301 5.66602 10.5 12.999l100 154h2z
" />
    <glyph glyph-name="Aringacute" unicode="&#x1fa;" horiz-adv-x="621" 
d="M292 967l120.999 -0.000976562v-2l-146 -99c-20 -13.333 -32 -23.333 -36 -30c18.667 18 40.667 27 66 27c21.333 0 40.166 -5.66699 56.499 -17s24.5 -26.333 24.5 -45s-8.16699 -33.667 -24.5 -45s-35.166 -17 -56.499 -17s-40.166 5.66699 -56.499 17
s-24.5 26.333 -24.5 45c0 10.667 3 21.334 9 32.001zM358.999 800.999c0 14 -6.16699 24.833 -18.5 32.5s-26.833 11.5 -43.5 11.5s-31.167 -3.83301 -43.5 -11.5s-18.5 -18.5 -18.5 -32.5s6.16699 -24.833 18.5 -32.5s26.833 -11.5 43.5 -11.5s31.167 3.83301 43.5 11.5
s18.5 18.5 18.5 32.5zM156.999 245.999l-47.998 -142.999c-2 -9.33301 -2.5 -15.166 -1.5 -17.499s6.5 -7.5 16.5 -15.5l85 -68v-2h-225v2l80 68c13.333 12 22 24 26 36l168 498c2.66699 10.667 3.66699 17.667 3 21s-4.33398 8.66602 -11.001 15.999l-55 60v2h153l210 -621
c5.33301 -15.333 13 -28 23 -38l43 -42v-2h-249v2l71 54c7.33301 5.33301 8.66602 13.666 3.99902 24.999l-56 165h-237zM276.001 599l-113 -335h225z" />
    <glyph glyph-name="aringacute" unicode="&#x1fb;" horiz-adv-x="465" 
d="M222 750l120.999 -0.000976562v-2l-146 -99c-20 -13.333 -32 -23.333 -36 -30c18.667 18 40.667 27 66 27c21.333 0 40.166 -5.66699 56.499 -17s24.5 -26.333 24.5 -45s-8.16699 -33.667 -24.5 -45s-35.166 -17 -56.499 -17s-40.166 5.66699 -56.499 17
s-24.5 26.333 -24.5 45c0 10.667 3 21.334 9 32.001zM288.999 583.999c0 14 -6.16699 24.833 -18.5 32.5s-26.833 11.5 -43.5 11.5s-31.167 -3.83301 -43.5 -11.5s-18.5 -18.5 -18.5 -32.5s6.16699 -24.833 18.5 -32.5s26.833 -11.5 43.5 -11.5s31.167 3.83301 43.5 11.5
s18.5 18.5 18.5 32.5zM298.999 237.999l2.00195 105.999v3c0 40 -9 71.833 -27 95.5s-44.667 35.5 -80 35.5c-12.667 0 -20.667 -0.666992 -24 -2s-6.33301 -5.33301 -9 -12l-61 -132h-2l-45 130c53.333 22 109.333 33 168 33c59.333 0 101.666 -13 126.999 -39
c30 -31.333 45 -86 45 -164v-14l-4 -163c-1.33301 -44.667 10.667 -67 36 -67c16.667 0 27.667 9.66699 33 29h2c0 -10.667 -2 -21 -6 -31c-6 -15.333 -15.667 -28.166 -29 -38.499s-29.333 -15.5 -48 -15.5c-23.333 0 -42.5 9 -57.5 27s-22.5 44.333 -22.5 79
c-10 -33.333 -26.833 -59.333 -50.5 -78s-51.5 -28 -83.5 -28c-36 0 -66.667 11.667 -92 35s-38 55.333 -38 96c0 46 16.167 81.833 48.5 107.5s70.166 38.5 113.499 38.5c41.333 0 76 -10.333 104 -31zM241.001 241.998c-34.667 0 -61.668 -10.333 -81.001 -31
s-29 -46 -29 -76c0 -26 7.16699 -47 21.5 -63s32.5 -24 54.5 -24c37.333 0 67.333 19.333 90 58v3l2 123c-19.333 6.66699 -38.666 10 -57.999 10z" />
    <glyph glyph-name="AEacute" unicode="&#x1fc;" horiz-adv-x="911" 
d="M858 0l-521.998 -0.00390625v2l86 47c8.66699 4.66699 13 11.334 13 20.001v176h-237l-82 -136c-6.66699 -11.333 -10.167 -19.166 -10.5 -23.499s3.5 -9.83301 11.5 -16.5l84 -67v-2h-226v2l74 58c18.667 14.667 31.667 27.667 39 39l306 505
c6.66699 10.667 10 17.834 10 21.501s-3.33301 8.83398 -10 15.501l-63 60v2h517v-216h-2l-84 180c-6 12 -15.667 18 -29 18h-178c-6.66699 0 -11 -1.5 -13 -4.5s-3 -9.16699 -3 -18.5v-294h123c10.667 0.666992 20 7 28 19l64 89h2v-234h-2l-64 90
c-8.66699 12 -18.334 18 -29.001 18h-122v-309c0 -9.33301 1 -15.5 3 -18.5s6.33301 -4.5 13 -4.5h178c17.333 0 28.666 4.33301 33.999 13l89 182h2v-213zM435.002 262.996v374l-226 -374h226zM606.002 921.996h121v-2l-208 -161l-2 2z" />
    <glyph glyph-name="aeacute" unicode="&#x1fd;" horiz-adv-x="732" 
d="M190 269c44 0 80.3359 -10.333 109.003 -31v26l2 80c1.33301 40.667 -7.33398 73 -26.001 97s-46.334 36 -83.001 36c-11.333 0 -18.666 -0.666992 -21.999 -2s-6.33301 -5 -9 -11l-61 -131h-2l-49 135c56 18 114.667 27 176 27c55.333 0 95.666 -13 120.999 -39
c8 -9.33301 13.667 -17 17 -23c39.333 41.333 88.666 62 147.999 62c52 0 96.333 -15.667 133 -47s55 -77 55 -137c0 -6.66699 -0.666992 -15.334 -2 -26.001h-303v-28c0 -65.333 13.667 -116.333 41 -153s62.333 -55 105 -55c73.333 0 126.333 40.667 159 122h2
c-10.667 -59.333 -32.5 -104 -65.5 -134s-75.833 -45 -128.5 -45c-38 0 -72.833 9 -104.5 27s-56.5 45 -74.5 81c-10.667 -33.333 -30 -59.666 -58 -78.999s-61 -29 -99 -29c-40 0 -73 12.167 -99 36.5s-39 57.5 -39 99.5c0 44 16.167 78.5 48.5 103.5s68.5 37.5 108.5 37.5
zM510.003 480c-32.667 0 -59.168 -16 -79.501 -48s-32.166 -75.333 -35.499 -130h207c0 118.667 -30.667 178 -92 178zM217.002 48c45.333 0 81.668 18.667 109.001 56c-18 37.333 -27 80.333 -27 129c-24 6 -43 9 -57 9c-34.667 0 -61.834 -9.83301 -81.501 -29.5
s-29.5 -44.167 -29.5 -73.5c0 -27.333 7.66699 -49.333 23 -66s36.333 -25 63 -25zM403.004 703h121v-2l-208 -161l-2 2z" />
    <glyph glyph-name="Oslashacute" unicode="&#x1fe;" horiz-adv-x="689" 
d="M402 919h121v-2l-208 -161l-2 2zM345 713c52.667 0 100 -10.001 142 -30.001l43 96l17 -7l-43 -98c48 -27.333 84.833 -68.666 110.5 -123.999s38.5 -121.333 38.5 -198c0 -112.667 -26.833 -201.167 -80.5 -265.5s-129.5 -96.5 -227.5 -96.5
c-48.667 0 -92.667 8.33301 -132 25l-43 -97l-17 7l43 98c-52 27.333 -91.667 69 -119 125s-41 124 -41 204c0 112.667 27 201 81 265s130 96 228 96zM156 351.999c0 -128.667 20.666 -221.667 61.999 -279l249 563c-32 40.667 -72.667 61 -122 61
c-57.333 0 -103.166 -27.5 -137.499 -82.5s-51.5 -142.5 -51.5 -262.5zM344.999 5.99902c57.333 0 103.167 27.667 137.5 83s51.5 143 51.5 263s-18.333 209 -55 267l-248 -563c29.333 -33.333 67.333 -50 114 -50z" />
    <glyph glyph-name="oslashacute" unicode="&#x1ff;" horiz-adv-x="508" 
d="M281 703h121v-2l-208 -161l-2 2zM398 545l-32.999 -74c74.667 -37.333 112 -113 112 -227c0 -83.333 -19.833 -146.166 -59.5 -188.499s-94.167 -63.5 -163.5 -63.5c-36.667 0 -68 5.33301 -94 16l-40 -90l-16 8l39 89c-74.667 37.333 -112 113.666 -112 228.999
c0 83.333 19.833 146 59.5 188s94.167 63 163.5 63c35.333 0 66.666 -5.33301 93.999 -16l33 73zM254.001 480c-37.333 0 -65.333 -18.333 -84 -55s-28 -97 -28 -181c0 -80.667 8.33301 -139 25 -175l163 369c-18.667 28 -44 42 -76 42zM366.001 244
c0 76 -8.33301 133.667 -25 173l-163 -369c16.667 -27.333 42 -41 76 -41c36.667 0 64.5 18.5 83.5 55.5s28.5 97.5 28.5 181.5z" />
    </font>
</defs>
</svg>
